<svg width="15" height="26" viewBox="0 0 15 26" fill="none" xmlns="http://www.w3.org/2000/svg">
<path d="M3.51387 13.0008L13.6742 23.1611C13.9767 23.4636 14.1273 23.8324 14.1262 24.2675C14.1253 24.7026 13.9737 25.0788 13.6712 25.3961C13.3539 25.7133 12.9763 25.8718 12.5385 25.8718C12.1008 25.8718 11.7233 25.7133 11.4062 25.3961L0.779208 14.7801C0.526764 14.5277 0.341653 14.2467 0.223875 13.9371C0.105875 13.6278 0.046875 13.3157 0.046875 13.0008C0.046875 12.6859 0.105875 12.3738 0.223875 12.0645C0.341653 11.7549 0.526764 11.4739 0.779208 11.2215L11.4285 0.57214C11.7457 0.255029 12.1199 0.101585 12.5512 0.111807C12.9828 0.122029 13.3571 0.284028 13.6742 0.597806C13.9767 0.914917 14.1315 1.28869 14.1389 1.71914C14.1464 2.14936 13.9915 2.52314 13.6742 2.84047L3.51387 13.0008Z" fill="#1C1B1F"/>
</svg>
