<svg width="18" height="19" viewBox="0 0 18 19" fill="none" xmlns="http://www.w3.org/2000/svg">
<g clip-path="url(#clip0_294_4462)">
<path d="M15.053 11.6455L14.2931 10.8085L11.8826 8.15449C11.024 7.20855 10.1653 6.26273 9.30662 5.31703L7.78482 3.64104C7.76056 3.61421 7.73629 3.58745 7.71203 3.56079C7.41803 3.23712 6.91411 3.70741 7.20846 4.0316C7.56078 4.41986 7.91301 4.8078 8.26515 5.19542C9.05794 6.06904 9.85096 6.94237 10.6441 7.81538L13.191 10.6203C13.702 11.183 14.213 11.7458 14.7241 12.3086C14.7542 12.3417 14.7843 12.3746 14.8141 12.4078C15.0571 12.6786 15.2468 13.0174 15.3376 13.3587C15.4438 13.7574 15.4491 14.1788 15.3576 14.5517C15.3107 14.7497 15.2391 14.9414 15.1445 15.1217C15.0939 15.2159 15.0379 15.3069 14.9769 15.3945C14.895 15.512 14.8756 15.5354 14.7844 15.6325C14.717 15.7046 14.6458 15.7732 14.5713 15.8378C14.5252 15.8773 14.4771 15.9152 14.429 15.9528C14.4258 15.9552 14.4097 15.9667 14.4025 15.9719C14.3775 15.9893 14.352 16.0062 14.3262 16.0225C14.2364 16.0798 14.1433 16.1316 14.0476 16.1779C13.9948 16.2032 13.9411 16.2259 13.8875 16.2486C13.8839 16.2502 13.8648 16.2575 13.8574 16.2604C13.8299 16.2703 13.8023 16.2796 13.7746 16.2882C13.6759 16.3194 13.5756 16.3449 13.4743 16.3644C13.4181 16.3751 13.3617 16.3829 13.3052 16.3914C13.3013 16.392 13.2801 16.3943 13.2732 16.3955C13.2449 16.3979 13.2164 16.3997 13.1875 16.4009C13.0855 16.4059 12.9832 16.4051 12.8814 16.3985C12.8249 16.3948 12.7686 16.3891 12.7125 16.3815C12.6953 16.3792 12.678 16.3768 12.6608 16.3741C12.652 16.3721 12.6041 16.3629 12.597 16.3615C12.0552 16.2477 11.6571 15.9947 11.2979 15.5991C10.838 15.0925 10.378 14.5859 9.91783 14.0797L7.43566 11.3456C6.60473 10.4302 5.7738 9.5148 4.94285 8.59939L3.64172 7.16645C3.6327 7.15353 3.62288 7.14121 3.61234 7.12954L2.66623 6.08759C2.4698 5.87121 2.34739 5.71067 2.24011 5.42644C2.23884 5.42222 2.22625 5.386 2.22371 5.37755C2.21719 5.35527 2.21063 5.33309 2.20465 5.31069C2.19109 5.26055 2.1794 5.20987 2.16959 5.15863C2.1506 5.06913 2.14038 4.97782 2.13907 4.88601C2.13529 4.65685 2.15441 4.52082 2.21351 4.32285C2.27835 4.10594 2.33834 3.98285 2.47616 3.78733C2.56381 3.663 2.71284 3.51084 2.87443 3.38592C2.93191 3.34148 2.90074 3.36719 2.88762 3.37608C2.90746 3.36264 2.92755 3.34943 2.9478 3.33665C2.99803 3.30491 3.04951 3.2754 3.10228 3.24813C3.14378 3.22676 3.18618 3.20662 3.22949 3.1877C3.24556 3.18065 3.26193 3.17398 3.27826 3.16741C3.28293 3.16628 3.33484 3.14768 3.3421 3.14507C3.44088 3.11361 3.54173 3.08965 3.6438 3.07336C3.65993 3.07082 3.74045 3.06184 3.73811 3.06125C3.7912 3.05742 3.84437 3.05573 3.89763 3.05618C4.42308 3.06068 4.84637 3.28341 5.19776 3.67043L6.79798 5.43279L9.27631 8.16217C9.72739 8.65904 10.1696 9.16591 10.6288 9.65607C10.6355 9.66498 10.6425 9.67378 10.6504 9.68239C10.9488 10.0111 11.2472 10.3397 11.5457 10.6683C11.6707 10.8061 11.797 10.9429 11.921 11.0816C12.1198 11.3042 12.2218 11.5758 12.2036 11.8805C12.1939 12.0489 12.1444 12.2132 12.0592 12.3593C12.0318 12.406 12.0014 12.45 11.97 12.4939C11.9678 12.4969 11.9579 12.5088 11.9517 12.5163C11.9381 12.5316 11.9244 12.5468 11.9102 12.5614C11.8844 12.5883 11.8575 12.614 11.8296 12.6388C11.8114 12.6546 11.7916 12.6698 11.7732 12.6863C11.7639 12.6941 11.7572 12.7004 11.753 12.7045C11.7487 12.7085 11.741 12.7111 11.7302 12.7183C11.5503 12.8297 11.4467 12.8732 11.245 12.8997C11.2401 12.9002 11.2157 12.9028 11.2113 12.9029C11.1828 12.9039 11.1544 12.9049 11.1259 12.9047C11.0802 12.9042 11.0349 12.9012 10.9895 12.8967C10.986 12.8964 10.9664 12.8936 10.9524 12.8918C10.9358 12.8877 10.8835 12.8768 10.8901 12.8784C10.8401 12.8659 10.7916 12.8495 10.7429 12.8327C10.7348 12.83 10.701 12.816 10.6955 12.8143C10.6799 12.8072 10.6647 12.7987 10.6497 12.7906C10.6087 12.7684 10.5688 12.7441 10.5303 12.7178C10.5157 12.7078 10.4478 12.6537 10.4518 12.659C10.4182 12.6286 10.3871 12.5968 10.3564 12.5639C10.3484 12.5555 10.3414 12.5474 10.3338 12.539C10.2788 12.4787 10.2239 12.4182 10.1691 12.3575L8.40191 10.411C7.61672 9.54625 6.83148 8.68146 6.04618 7.8167C5.59453 7.3192 5.15413 6.80759 4.68912 6.32239C4.68214 6.31507 4.67555 6.30743 4.66878 6.29995C4.37487 5.97632 3.87094 6.44661 4.1653 6.77081L5.36296 8.08915L7.77193 10.7417L9.64504 12.8047C9.85573 13.0367 10.0596 13.269 10.3479 13.409C11.2486 13.847 12.3364 13.4349 12.7438 12.4957C12.9323 12.0607 12.9227 11.5691 12.7556 11.1353C12.6596 10.8862 12.4927 10.6857 12.317 10.4922L11.3109 9.38371C11.3004 9.36768 11.2887 9.35249 11.2759 9.33829C10.8439 8.86248 10.4118 8.38664 9.97975 7.91079C9.13603 6.98141 8.29227 6.05201 7.4485 5.12263C6.87059 4.48696 6.29294 3.85116 5.71554 3.21525C5.30528 2.76345 4.79514 2.46493 4.18545 2.3857C3.24696 2.26312 2.27598 2.75876 1.79652 3.59373C1.29858 4.45986 1.3719 5.53337 1.95615 6.31739C2.08653 6.49238 2.24455 6.64988 2.39131 6.81094C2.56232 6.99939 2.73321 7.18775 2.90398 7.37601C2.91307 7.38893 2.92291 7.40127 2.93347 7.41297C3.28502 7.79999 3.63646 8.18696 3.98781 8.57389C4.78274 9.44939 5.57771 10.3249 6.37271 11.2004C7.24432 12.1603 8.1157 13.1198 8.98685 14.0793L10.6731 15.9365C10.8916 16.1771 11.1131 16.4079 11.3843 16.5919C12.1863 17.1361 13.2207 17.2303 14.129 16.8838C15.0236 16.5428 15.7351 15.7482 15.989 14.8152C16.1163 14.3434 16.1325 13.8496 16.0364 13.3738C15.9404 12.8981 15.7346 12.4537 15.4359 12.0767C15.3172 11.9263 15.1817 11.7873 15.053 11.6455Z" fill="#787878"/>
</g>
<defs>
<clipPath id="clip0_294_4462">
<rect width="16.2" height="15.3" fill="white" transform="translate(0.643555 2.03906)"/>
</clipPath>
</defs>
</svg>
