<svg width="17" height="14" viewBox="0 0 17 14" fill="none" xmlns="http://www.w3.org/2000/svg">
<path fill-rule="evenodd" clip-rule="evenodd" d="M0.955964 2.00195C1.48393 2.00195 1.91193 1.55424 1.91193 1.00195C1.91193 0.449668 1.48393 0.00195312 0.955964 0.00195312C0.428 0.00195312 0 0.449668 0 1.00195C0 1.55424 0.428 2.00195 0.955964 2.00195ZM3.82393 0.201953C3.3821 0.201953 3.02393 0.560125 3.02393 1.00195C3.02393 1.44378 3.3821 1.80195 3.82393 1.80195H16.2515C16.6933 1.80195 17.0515 1.44378 17.0515 1.00195C17.0515 0.560125 16.6933 0.201953 16.2515 0.201953H3.82393ZM1.91193 7.00195C1.91193 7.55424 1.48393 8.00195 0.955964 8.00195C0.428 8.00195 0 7.55424 0 7.00195C0 6.44967 0.428 6.00195 0.955964 6.00195C1.48393 6.00195 1.91193 6.44967 1.91193 7.00195ZM3.82393 6.20195C3.3821 6.20195 3.02393 6.56013 3.02393 7.00195C3.02393 7.44378 3.3821 7.80195 3.82393 7.80195H16.2515C16.6933 7.80195 17.0515 7.44378 17.0515 7.00195C17.0515 6.56013 16.6933 6.20195 16.2515 6.20195H3.82393ZM1.91193 13.002C1.91193 13.5542 1.48393 14.002 0.955964 14.002C0.428 14.002 0 13.5542 0 13.002C0 12.4497 0.428 12.002 0.955964 12.002C1.48393 12.002 1.91193 12.4497 1.91193 13.002ZM3.82393 12.202C3.3821 12.202 3.02393 12.5601 3.02393 13.002C3.02393 13.4438 3.3821 13.802 3.82393 13.802H16.2515C16.6933 13.802 17.0515 13.4438 17.0515 13.002C17.0515 12.5601 16.6933 12.202 16.2515 12.202H3.82393Z" fill="#181818"/>
</svg>
