<svg width="17" height="16" viewBox="0 0 17 16" fill="none" xmlns="http://www.w3.org/2000/svg">
<path d="M1.57305 0.999999C1.57305 0.793723 1.7204 0.7 1.81421 0.7H7.26514C7.35896 0.7 7.50631 0.793722 7.50631 0.999998V5.78999C7.50631 5.99627 7.35896 6.08999 7.26514 6.08999H1.81421C1.7204 6.08999 1.57305 5.99627 1.57305 5.78999V0.999999ZM1.57305 10.2083C1.57305 10.0021 1.7204 9.90834 1.81421 9.90834H7.26514C7.35896 9.90834 7.50631 10.0021 7.50631 10.2083V15C7.50631 15.2063 7.35896 15.3 7.26514 15.3H1.81421C1.7204 15.3 1.57305 15.2063 1.57305 15V10.2083ZM10.2397 0.999998C10.2397 0.793724 10.387 0.7 10.4808 0.7H15.9318C16.0256 0.7 16.1729 0.793722 16.1729 0.999998V5.79166C16.1729 5.99793 16.0256 6.09166 15.9317 6.09166H10.4808C10.387 6.09166 10.2397 5.99793 10.2397 5.79166V0.999998ZM10.2398 10.2083C10.2398 10.0021 10.3871 9.90834 10.481 9.90834H15.9319C16.0257 9.90834 16.173 10.0021 16.173 10.2083V15C16.173 15.2063 16.0257 15.3 15.9319 15.3H10.481C10.3871 15.3 10.2398 15.2063 10.2398 15V10.2083Z" stroke="#787878" stroke-width="1.4" stroke-linejoin="round"/>
</svg>
