<svg width="1447" height="700" viewBox="0 0 1447 700" fill="none" xmlns="http://www.w3.org/2000/svg">
<g clip-path="url(#clip0_2018_5232)">
<path d="M176.514 -72.6486C176.514 -72.6486 282.139 -393.513 486.443 -324.302C690.748 -255.091 663.198 354.677 770.405 184.149C905.768 -31.0341 707.237 291.929 866.103 347.025C1024.97 402.121 844.928 497.482 952.249 567.282C1167.08 707.108 1182.01 -67.1969 1398.56 6.66473C1653.35 93.556 1092.74 376.513 1335.45 550.273C1578.16 724.034 2246.26 646.535 2383.48 922.491" stroke="url(#paint0_linear_2018_5232)" stroke-opacity="0.5" stroke-width="0.5"/>
<path d="M185.827 -72.2749C185.827 -72.2749 293.298 -387.896 497.032 -322.322C551.749 -304.694 590.391 -249.536 619.627 -180.567C700.235 8.94097 703.253 300.897 779.218 182.708C821.601 116.767 830.362 104.032 828.656 119.135C825.04 151.434 770.334 304.499 875.93 338.391C1031.38 388.274 856.97 479.021 963.439 547.608C1176.74 684.988 1178.85 -50.6772 1396.16 23.3057C1569.61 82.3636 1376.97 204.824 1311.72 344.673C1280.29 412.493 1274.64 483.554 1351.69 544.614C1408.75 589.863 1489.17 621.934 1583.48 645.005C1733.75 681.783 1886.72 671.239 2043.02 707.03C2193.91 741.986 2326.28 794.971 2394.05 904.066" stroke="url(#paint1_linear_2018_5232)" stroke-opacity="0.5" stroke-width="0.5"/>
<path d="M195.161 -71.8987C195.161 -71.8987 304.635 -382.251 507.607 -320.231C562.508 -303.494 601.809 -250.144 631.739 -182.64C714.598 2.99822 714.684 292.736 788.038 181.242C829.442 118.359 837.849 106.532 836.888 121.75C834.833 154.512 782.545 299.377 885.684 329.683C1037.58 374.333 868.961 460.493 974.514 527.988C1186.39 662.864 1175.66 -34.1902 1393.72 39.9786C1569.39 99.5594 1381.69 196.891 1325.16 333.655C1297.79 399.853 1293.06 473.714 1367.88 539.029C1423.94 587.967 1502.18 624.879 1597.21 649.954C1750.11 690.251 1881.07 650.709 2041.49 687.408C2188.18 720.957 2321.76 773.49 2404.57 885.694" stroke="url(#paint2_linear_2018_5232)" stroke-opacity="0.5" stroke-width="0.5"/>
<path d="M204.473 -71.5248C204.473 -71.5248 315.843 -376.642 518.229 -318.359C573.306 -302.49 613.219 -250.797 643.912 -184.902C728.639 -2.89804 726.19 284.414 796.898 179.65C837.364 119.696 845.404 108.893 845.161 124.239C844.681 157.493 794.753 294.117 895.644 320.925C1044.15 360.348 881.145 441.958 985.87 508.081C1196.06 640.772 1172.5 -17.692 1391.32 56.6196C1568.88 116.794 1386.61 189.045 1338.63 322.513C1315.42 387.093 1311.51 463.792 1384.15 533.355C1439.19 586.074 1515.47 627.823 1611.03 654.79C1766.7 698.653 1875.48 630.297 2040.03 667.718C2182.43 700.119 2317.31 751.918 2415.17 867.282" stroke="url(#paint3_linear_2018_5232)" stroke-opacity="0.5" stroke-width="0.5"/>
<path d="M213.807 -71.1463C213.807 -71.1463 327.215 -371.031 528.796 -316.316C584.105 -301.417 624.635 -251.475 656.038 -187.016C742.975 -8.75217 737.643 276.262 805.717 178.186C845.246 121.233 852.912 111.402 853.427 126.748C854.517 160.516 806.899 288.905 905.511 312.16C1050.46 346.35 893.24 423.322 997.093 488.296C1205.74 618.563 1169.34 -1.17447 1388.91 73.23C1568.46 134.024 1391.52 181.197 1352.1 311.389C1333.03 374.396 1329.92 453.998 1400.33 527.602C1454.37 584.109 1528.6 630.689 1624.77 659.576C1783.17 707.135 1869.79 609.828 2038.52 647.984C2176.63 679.258 2312.77 730.34 2425.67 848.813" stroke="url(#paint4_linear_2018_5232)" stroke-opacity="0.5" stroke-width="0.5"/>
<path d="M223.119 -70.7734C223.119 -70.7734 338.53 -365.461 539.426 -314.395C594.869 -300.307 636.101 -252.23 668.204 -189.259C757.352 -14.7345 749.122 268.024 814.577 176.594C853.184 122.669 860.482 113.789 861.673 129.323C864.353 163.611 818.987 283.725 915.358 303.46C1056.69 332.377 905.331 404.781 1008.32 468.563C1215.48 596.563 1166.15 15.316 1386.52 89.8485C1568.05 151.262 1396.41 173.343 1365.57 300.267C1350.64 361.678 1348.35 444.14 1416.56 521.891C1469.59 582.274 1542.33 631.85 1638.54 664.399C1798.71 718.575 1864.13 589.394 2037.02 628.279C2170.85 658.384 2308.3 708.782 2436.22 830.358" stroke="url(#paint5_linear_2018_5232)" stroke-opacity="0.5" stroke-width="0.5"/>
<path d="M232.432 -70.4019C232.432 -70.4019 349.872 -359.907 550.006 -312.395C605.655 -299.191 647.51 -252.886 680.43 -191.389C771.843 -20.7062 760.676 259.928 823.497 175.113C861.175 124.239 868.111 116.289 870.005 131.923C874.276 166.732 831.154 278.52 925.277 294.758C1062.99 318.444 917.501 386.287 1019.6 448.841C1225.04 574.413 1162.97 31.8983 1384.08 106.524C1567.67 168.413 1401.18 165.569 1379 289.202C1368.22 349.067 1366.76 434.632 1432.76 516.287C1484.75 580.516 1554.88 636.644 1652.27 669.277C1816.17 724.213 1858.46 569.024 2035.49 608.659C2165.05 637.644 2303.77 687.303 2446.74 811.989" stroke="url(#paint6_linear_2018_5232)" stroke-opacity="0.5" stroke-width="0.5"/>
<path d="M241.767 -70.0216C241.767 -70.0216 361.201 -354.379 560.623 -310.43C616.462 -298.138 658.875 -253.696 692.49 -193.593C786.101 -26.5355 772.035 251.772 832.257 173.537C869.03 125.792 875.582 118.693 878.186 134.407C884.069 169.742 843.064 273.308 935.095 286.002C1069.11 304.459 929.541 367.682 1030.78 429.045C1234.74 552.328 1159.85 48.338 1381.73 123.178C1567.31 185.644 1406.22 157.856 1392.56 278.179C1385.92 336.492 1385.09 425.098 1449.06 510.669C1500.01 578.838 1568.13 639.689 1666.14 674.199C1832.78 732.858 1852.89 548.69 2034.08 589.032C2159.36 616.94 2299.37 665.838 2457.38 793.633" stroke="url(#paint7_linear_2018_5232)" stroke-opacity="0.5" stroke-width="0.5"/>
<path d="M251.079 -69.6496C251.079 -69.6496 372.564 -348.889 571.211 -308.452C627.254 -297.043 670.271 -254.308 704.623 -195.728C800.522 -32.4339 783.476 243.735 841.083 172.052C876.992 127.377 883.025 121.182 886.446 137.009C893.942 172.871 854.981 268.144 944.898 277.288C1075.09 290.526 941.574 349.17 1041.94 409.312C1244.36 530.242 1156.58 64.8721 1379.24 139.861C1566.86 202.89 1411.06 150.174 1405.87 267.052C1403.37 323.841 1403.23 415.481 1465.13 504.976C1514.99 577.091 1581.09 642.695 1679.74 679.037C1849.13 741.399 1847.06 528.273 2032.43 569.351C2153.39 596.147 2294.7 644.29 2467.75 775.217" stroke="url(#paint8_linear_2018_5232)" stroke-opacity="0.5" stroke-width="0.5"/>
<path d="M260.413 -69.2685C260.413 -69.2685 383.912 -343.426 581.798 -306.471C638.088 -296.004 681.796 -254.948 716.796 -197.991C814.933 -38.4512 794.93 235.657 849.93 170.504C884.983 128.95 890.638 123.584 894.726 139.478C903.862 175.852 866.911 262.868 954.779 268.482C1081.12 276.515 953.699 330.522 1053.18 389.465C1254.04 508.036 1153.49 81.298 1376.85 156.481C1566.45 220.058 1415.98 142.472 1419.37 255.967C1421.07 311.244 1421.58 405.905 1481.4 499.302C1530.13 575.401 1594.4 645.739 1693.56 683.875C1865.67 750.046 1841.45 507.876 2030.97 549.683C2147.65 575.402 2290.24 622.763 2478.33 756.799" stroke="url(#paint9_linear_2018_5232)" stroke-opacity="0.5" stroke-width="0.5"/>
<path d="M269.725 -68.8967C269.725 -68.8967 395.325 -337.944 592.408 -304.486C648.881 -294.91 693.133 -255.674 728.928 -200.126C829.326 -44.3349 806.329 227.749 858.736 169.083C892.935 130.721 898.197 126.157 902.938 142.159C913.723 179.096 878.686 257.778 964.592 259.89C1086.89 262.749 965.742 312.131 1064.35 369.853C1263.67 486.072 1150.25 97.96 1374.49 173.227C1566.11 237.387 1420.98 134.937 1432.89 245C1438.71 298.747 1439.88 396.434 1497.68 493.747C1545.28 573.852 1607.48 648.85 1707.38 688.852C1882.17 758.799 1835.84 487.577 2029.52 530.112C2141.9 554.798 2285.79 601.354 2488.92 738.5" stroke="url(#paint10_linear_2018_5232)" stroke-opacity="0.5" stroke-width="0.5"/>
<path d="M279.059 -68.5161C279.059 -68.5161 406.73 -332.511 603.039 -302.493C659.723 -293.821 704.708 -256.323 741.111 -202.268C843.797 -50.2395 817.774 219.928 867.653 167.462C901.02 132.37 905.874 128.508 911.268 144.619C923.715 182.074 890.532 252.618 974.523 251.075C1092.93 248.881 977.873 293.461 1075.64 349.997C1273.4 463.858 1147.17 114.364 1372.05 189.761C1565.68 254.477 1425.92 127.169 1446.3 233.766C1456.3 286.045 1458.03 386.869 1513.82 487.939C1560.29 572.071 1620.54 651.791 1721.09 693.584C1898.64 767.354 1830.13 467.031 2027.96 510.316C2136.05 533.947 2281.12 579.665 2499.43 719.961" stroke="url(#paint11_linear_2018_5232)" stroke-opacity="0.5" stroke-width="0.5"/>
<path d="M288.392 -68.209C288.392 -68.209 418.148 -327.122 613.605 -300.521C670.429 -292.825 715.995 -257.041 753.214 -204.46C858.203 -56.1662 829.012 212.16 876.45 165.92C909.008 134.176 913.424 130.959 919.478 147.158C933.673 185.159 902.179 247.488 984.319 242.311C1098.66 235.131 989.956 274.869 1086.81 330.221C1283 441.744 1143.96 130.868 1369.61 206.387C1565.25 271.686 1430.92 119.562 1459.73 222.679C1473.94 273.476 1476.18 377.373 1530.04 482.271C1575.31 570.482 1633.65 654.866 1734.84 698.47C1915.11 776.072 1824.44 446.705 2026.45 490.704C2130.22 513.294 2276.72 558.227 2509.94 701.613" stroke="url(#paint12_linear_2018_5232)" stroke-opacity="0.5" stroke-width="0.5"/>
<path d="M297.571 -67.7143C297.571 -67.7143 429.566 -321.735 624.192 -298.544C681.299 -291.755 727.526 -257.707 765.36 -206.639C872.652 -62.0809 840.231 204.526 885.289 164.389C917.034 136.088 921.024 133.401 927.773 149.722C943.594 188.207 913.827 242.499 994.215 233.601C1104.42 221.479 1002.08 256.36 1098.14 310.49C1292.79 419.661 1140.89 147.39 1367.32 223.058C1564.95 288.906 1436.09 111.98 1473.3 211.61C1491.73 260.953 1494.43 367.953 1546.37 476.635C1590.43 568.853 1646.89 657.979 1748.72 703.273C1931.76 784.75 1818.91 426.238 2024.99 470.96C2124.45 492.539 2272.2 536.604 2520.52 683.12" stroke="url(#paint13_linear_2018_5232)" stroke-opacity="0.5" stroke-width="0.5"/>
<path d="M306.954 -67.4142C306.954 -67.4142 440.977 -316.396 634.754 -296.479C692.15 -290.617 738.923 -258.318 777.48 -208.731C887.075 -67.9067 851.299 197.155 894.103 162.948C925.043 138.209 928.59 135.953 935.963 152.327C953.489 191.344 925.362 237.501 1004.01 224.931C1109.98 208.005 1014.17 237.89 1109.22 290.781C1302.31 397.592 1137.61 163.875 1364.8 239.686C1564.4 306.076 1441.12 104.36 1486.67 200.504C1509.35 248.357 1512.46 358.467 1562.51 470.941C1605.32 567.223 1659.91 661.049 1762.39 708.133C1948.05 793.486 1813.14 405.864 2023.47 451.321C2118.63 471.887 2267.74 515.146 2531.04 664.752" stroke="url(#paint14_linear_2018_5232)" stroke-opacity="0.5" stroke-width="0.5"/>
<path d="M316.31 -67.027C316.31 -67.027 452.415 -311.07 645.39 -294.578C703.076 -289.645 750.395 -259.094 789.653 -210.994C901.586 -73.941 857.312 181.005 902.969 161.335C928.193 134.645 936.217 138.311 944.243 154.794C963.481 194.323 936.903 232.482 1013.89 216.125C1115.59 194.502 1026.21 219.236 1120.46 270.933C1312.01 375.392 1134.52 180.393 1362.38 256.32C1564.15 323.34 1446.27 96.7308 1500.12 189.398C1527.07 235.717 1530.52 349.017 1578.69 465.261C1620.25 565.609 1672.95 664.127 1776.15 712.999C1964.51 802.227 1807.48 385.475 2021.95 431.66C2112.81 451.214 2263.2 493.619 2541.58 646.341" stroke="url(#paint15_linear_2018_5232)" stroke-opacity="0.5" stroke-width="0.5"/>
<path d="M325.665 -66.6408C325.665 -66.6408 463.867 -305.789 655.984 -292.621C713.781 -288.648 761.825 -259.813 801.748 -213.163C916.042 -79.875 868.299 172.448 911.766 159.793C935.806 135.909 943.773 140.742 952.452 157.334C973.402 197.373 948.347 227.621 1023.7 207.368C1121.09 181.201 1038.26 200.66 1131.64 251.136C1321.61 353.279 1131.22 196.871 1359.92 272.939C1563.6 340.488 1451.41 89.0726 1513.53 178.306C1544.77 223.169 1548.48 339.533 1594.87 459.558C1635.17 563.964 1686.06 667.224 1789.85 717.823C1980.88 810.962 1801.75 365.042 2020.38 411.957C2106.97 430.534 2258.62 472.121 2552.02 627.903" stroke="url(#paint16_linear_2018_5232)" stroke-opacity="0.5" stroke-width="0.5"/>
<path d="M335.021 -66.2535C335.021 -66.2535 475.297 -300.513 666.572 -290.64C724.6 -287.638 773.248 -260.51 813.938 -215.326C930.591 -85.8026 879.372 163.919 920.648 158.28C943.477 137.215 951.416 143.2 960.754 159.88C983.417 200.43 959.843 222.896 1033.6 198.662C1126.66 168.085 1050.38 182.105 1142.9 231.389C1331.31 331.173 1128.1 213.383 1357.55 289.615C1563.22 357.713 1456.69 81.4125 1527.01 167.213C1562.56 210.578 1566.62 330.132 1611.13 453.927C1650.11 562.399 1699.19 670.378 1803.66 722.702C1997.36 819.782 1796.12 344.667 2018.93 392.316C2101.1 409.891 2254.23 450.57 2562.64 609.448" stroke="url(#paint17_linear_2018_5232)" stroke-opacity="0.5" stroke-width="0.5"/>
<path d="M344.376 -65.8688C344.376 -65.8688 486.748 -295.305 677.181 -288.656C735.419 -286.631 784.7 -261.224 826.084 -217.506C945.103 -91.7679 890.424 155.381 929.553 156.771C951.169 138.526 959.08 145.663 969.072 162.452C993.453 203.491 971.356 218.269 1043.53 189.938C1132.24 155.117 1062.53 163.582 1154.18 211.645C1341.05 309.077 1124.98 229.913 1355.2 306.267C1562.89 374.948 1462.01 73.7135 1540.53 156.153C1580.39 197.997 1584.7 320.709 1627.38 448.293C1664.92 560.792 1712.29 673.495 1817.42 727.566C2013.78 828.578 1790.45 324.275 2017.42 372.653C2095.32 389.251 2249.7 429.04 2573.13 591.164" stroke="url(#paint18_linear_2018_5232)" stroke-opacity="0.5" stroke-width="0.5"/>
<path d="M353.732 -65.4826C353.732 -65.4826 498.192 -290.074 687.769 -286.677C746.261 -285.615 796.123 -261.921 838.23 -219.683C959.638 -97.7249 901.475 146.844 938.328 155.223C958.732 139.798 966.622 148.065 977.253 165.006C1003.38 206.52 982.72 213.739 1053.29 181.211C1137.72 142.281 1074.56 145.02 1165.33 191.884C1350.64 286.957 1121.75 246.412 1352.73 322.908C1562.42 392.166 1467.18 65.9472 1553.93 145.053C1598.19 185.383 1602.62 311.261 1643.45 442.6C1679.77 559.199 1725.29 676.63 1831.09 732.426C2030.11 837.371 1784.69 303.879 2015.88 353.006C2089.48 368.642 2245.23 407.554 2583.68 572.731" stroke="url(#paint19_linear_2018_5232)" stroke-opacity="0.5" stroke-width="0.5"/>
<path d="M362.937 -65.1425C362.937 -65.1425 509.714 -284.864 698.378 -284.69C757.087 -284.626 807.575 -262.633 850.369 -221.838C974.179 -103.702 912.484 138.295 947.168 153.696C966.367 141.069 974.222 150.51 985.498 167.51C1013.35 209.513 994.222 209.3 1063.13 172.441C1143.3 129.573 1086.64 126.451 1176.53 172.095C1360.3 264.815 1118.54 262.968 1350.28 339.536C1562.01 409.334 1472.43 58.1591 1567.37 133.947C1615.82 172.766 1620.58 301.799 1659.74 436.932C1694.7 557.605 1738.43 679.762 1844.9 737.263C2046.61 846.219 1779.12 283.495 2014.43 333.273C2083.69 347.955 2240.7 385.956 2594.24 554.284" stroke="url(#paint20_linear_2018_5232)" stroke-opacity="0.5" stroke-width="0.5"/>
<path d="M372.271 -64.765C372.271 -64.765 521.071 -279.733 708.987 -282.778C767.913 -283.712 819.162 -263.4 862.536 -224.083C988.741 -109.748 923.535 129.685 955.942 152.074C973.929 142.267 981.763 152.839 993.707 169.977C1023.32 212.389 1005.73 204.93 1072.94 163.633C1148.92 116.947 1098.69 107.708 1187.7 152.246C1369.9 242.629 1115.34 279.307 1347.84 356.089C1561.56 426.464 1477.66 50.2398 1580.79 122.76C1633.72 159.92 1638.57 292.348 1675.96 431.335C1709.53 556.075 1751.53 682.972 1858.67 742.197C2062.98 855.095 1773.45 263.103 2012.89 313.717C2077.83 327.43 2236.17 364.476 2604.75 535.978" stroke="url(#paint21_linear_2018_5232)" stroke-opacity="0.5" stroke-width="0.5"/>
<path d="M381.584 -64.393C381.584 -64.393 532.499 -274.602 719.554 -280.735C778.719 -282.661 830.616 -264.041 874.684 -226.19C1003.29 -115.677 934.437 121.171 964.842 150.659C981.623 143.65 989.436 155.352 1002.03 172.621C1033.35 215.566 1017.43 200.814 1082.87 154.981C1154.76 104.625 1110.82 89.344 1198.98 132.575C1379.62 220.599 1112.24 295.916 1345.48 372.813C1561.21 443.765 1482.96 42.4916 1594.3 111.722C1651.46 147.263 1656.55 282.776 1692.19 425.552C1724.4 554.367 1764.63 686.018 1872.46 746.954C2079.39 863.843 1767.8 242.647 2011.52 293.98C2072.13 306.746 2231.78 342.945 2615.42 517.492" stroke="url(#paint22_linear_2018_5232)" stroke-opacity="0.5" stroke-width="0.5"/>
<path d="M390.918 -64.0132C390.918 -64.0132 543.954 -269.485 730.164 -278.748C789.551 -281.694 842.117 -264.762 886.83 -228.367C1017.86 -121.67 945.597 112.669 973.746 149.151C989.272 144.949 997.1 157.817 1010.35 175.173C1043.4 218.657 1029.24 196.755 1092.81 146.287C1160.71 92.3167 1123.01 70.8082 1210.28 112.84C1389.38 198.512 1109.16 312.441 1343.16 389.502C1560.89 461.009 1488.28 34.6515 1607.84 100.692C1669.28 134.635 1674.55 273.471 1708.49 419.955C1739.3 552.766 1777.78 689.25 1886.3 751.868C2095.82 872.763 1762.12 222.3 2009.88 274.329C2066.2 286.154 2227.15 321.433 2625.83 499.112" stroke="url(#paint23_linear_2018_5232)" stroke-opacity="0.5" stroke-width="0.5"/>
<path d="M400.23 -63.6396C400.23 -63.6396 555.374 -264.403 740.752 -276.768C800.363 -280.734 853.597 -265.488 898.969 -230.522C1032.44 -127.706 956.627 104.126 982.521 147.604C996.885 146.213 1004.64 160.22 1018.51 177.793C1053.32 221.687 1041.04 192.833 1102.53 137.691C1166.55 80.2113 1134.94 52.385 1221.36 93.2244C1398.9 176.537 1105.84 329.077 1340.6 406.281C1560.42 478.178 1493.42 26.758 1621.18 89.6729C1686.89 122.032 1692.3 264.041 1724.59 414.348C1753.98 551.192 1790.76 692.379 1899.89 756.68C2112.02 881.588 1756.34 201.877 2008.31 254.626C2060.27 265.519 2222.56 299.886 2636.27 480.674" stroke="url(#paint24_linear_2018_5232)" stroke-opacity="0.5" stroke-width="0.5"/>
<path d="M409.542 -63.2691C409.542 -63.2691 566.8 -259.345 751.339 -274.792C811.181 -279.799 865.099 -266.211 911.137 -232.695C1047.02 -133.745 967.657 95.5803 991.296 146.054C1004.47 147.49 1012.18 162.62 1026.73 180.237C1063.29 224.584 1053.01 188.775 1112.34 128.789C1172.67 67.8113 1147.01 33.67 1232.56 73.2887C1408.63 154.319 1102.58 345.424 1338.18 422.748C1559.94 495.394 1498.56 18.8614 1634.59 78.5067C1704.66 109.195 1710.22 254.52 1740.75 408.586C1768.7 549.578 1803.75 695.554 1913.67 761.571C2128.42 890.498 1750.69 181.491 2006.81 234.991C2054.45 244.937 2218.08 278.398 2646.82 462.289" stroke="url(#paint25_linear_2018_5232)" stroke-opacity="0.5" stroke-width="0.5"/>
<path d="M418.877 -62.8903C418.877 -62.8903 578.234 -254.307 761.97 -272.8C822.021 -278.855 876.608 -266.954 923.283 -234.874C1061.59 -139.81 978.687 87.0361 1000.2 144.545C1012.16 148.801 1019.86 165.062 1035.04 182.81C1073.35 227.581 1065.19 184.879 1122.28 120.022C1179.01 55.5733 1159.19 15.0832 1243.85 53.5029C1418.3 132.132 1099.57 361.896 1335.84 439.379C1559.6 512.58 1503.84 10.9137 1648.13 67.3825C1722.47 96.4655 1728.19 245.013 1757.05 402.895C1783.55 547.934 1816.87 698.75 1927.5 766.456C2144.84 899.389 1745.1 161.099 2005.37 215.327C2048.7 224.354 2213.64 256.875 2657.45 443.882" stroke="url(#paint26_linear_2018_5232)" stroke-opacity="0.5" stroke-width="0.5"/>
<path d="M428.175 -62.4746C428.175 -62.4746 589.63 -249.304 772.536 -270.828C832.817 -277.925 888.066 -267.688 935.407 -237.059C1076.23 -145.877 989.766 78.4128 1009.04 143.017C1019.79 150.093 1027.46 167.484 1043.22 185.314C1083.36 230.586 1077.52 181.003 1132.13 111.323C1185.37 43.3709 1171.25 -3.44368 1255.06 33.7621C1427.89 110.012 1096.38 378.429 1333.43 456.04C1559.16 529.783 1509 3.04726 1661.58 56.2533C1740.22 83.6947 1746.11 235.494 1773.28 397.185C1798.33 546.271 1829.95 701.84 1941.27 771.206C2161.17 908.303 1739.4 140.794 2003.97 195.677C2042.96 203.8 2209.24 235.387 2668.08 425.525" stroke="url(#paint27_linear_2018_5232)" stroke-opacity="0.5" stroke-width="0.5"/>
<path d="M437.523 -62.1381C437.523 -62.1381 601.005 -244.307 783.146 -268.842C843.614 -276.994 899.575 -268.43 947.554 -239.236C1090.84 -151.857 1000.77 69.9558 1017.88 141.489C1027.42 151.363 1035.07 169.906 1051.56 187.894C1093.37 233.571 1089.96 177.117 1141.99 102.58C1191.88 31.1162 1183.24 -21.9472 1266.28 14.0001C1437.61 87.9116 1093.22 394.926 1331.01 472.673C1558.8 547.013 1513.59 -2.93384 1675.02 45.2177C1758.25 70.0394 1763.97 226.076 1789.57 391.609C1813.17 544.721 1843.05 705.102 1955.1 776.142C2177.51 917.218 1733.74 120.311 2002.35 175.982C2037.01 183.179 2204.62 213.832 2678.51 407.08" stroke="url(#paint28_linear_2018_5232)" stroke-opacity="0.5" stroke-width="0.5"/>
<path d="M446.836 -61.7627C446.836 -61.7627 612.408 -239.322 793.733 -266.86C854.417 -276.082 911.068 -269.198 959.693 -241.389C1105.41 -157.99 1011.77 61.5229 1026.72 139.964C1035.05 152.658 1042.68 172.31 1059.77 190.558C1103.33 236.659 1102.49 173.333 1151.81 93.9692C1198.46 18.9126 1195.41 -40.459 1277.48 -5.64464C1447.23 65.901 1089.99 411.549 1328.57 489.445C1558.4 564.233 1519.43 -12.763 1688.48 34.1414C1775.7 58.3146 1781.84 216.589 1805.67 385.932C1827.83 543.07 1856.02 708.254 1968.78 780.983C2193.82 926.128 1728.08 99.9018 2000.86 156.33C2031.19 162.602 2200.11 192.314 2689.04 388.671" stroke="url(#paint29_linear_2018_5232)" stroke-opacity="0.5" stroke-width="0.5"/>
<path d="M456.148 -61.392C456.148 -61.392 623.775 -234.378 804.314 -264.861C865.214 -275.153 922.548 -269.927 971.832 -243.548C1119.98 -164.129 1010.89 55.537 1035.55 138.456C1041.84 158.989 1052.99 177.7 1068.06 193.001C1113.36 239.576 1115.17 169.283 1161.7 85.138C1205.21 6.4722 1207.53 -59.0889 1288.64 -25.5221C1456.87 43.5849 1086.78 427.909 1326.09 505.963C1557.88 581.435 1524.4 -20.7133 1701.92 23.0536C1793.36 45.6082 1799.67 207.112 1821.85 380.321C1842.6 541.52 1869.01 711.501 1982.52 785.839C2210.13 935.055 1722.41 79.5094 1999.34 136.666C2025.35 142.012 2195.6 170.791 2699.58 370.258" stroke="url(#paint30_linear_2018_5232)" stroke-opacity="0.5" stroke-width="0.5"/>
<path d="M465.482 -61.0111C465.482 -61.0111 635.149 -229.451 814.931 -262.895C876.024 -274.264 934.07 -270.711 983.959 -245.659C1134.62 -170.194 1024.69 45.9189 1044.37 136.994C1049.14 159.205 1060.22 179.564 1076.29 195.62C1123.23 242.586 1127.93 165.357 1171.53 76.4829C1211.95 -5.94319 1219.63 -77.5791 1299.92 -45.1911C1466.56 21.6647 1083.67 444.542 1323.75 522.696C1557.56 598.723 1529.59 -28.5429 1715.35 12.0408C1811.07 32.947 1817.52 197.667 1838.07 374.677C1857.25 539.889 1882.04 714.694 1996.26 790.771C2226.43 943.986 1716.74 59.1205 1997.75 116.957C2019.45 121.363 2191.03 149.229 2710.02 351.842" stroke="url(#paint31_linear_2018_5232)" stroke-opacity="0.5" stroke-width="0.5"/>
<path d="M474.794 -60.6396C474.794 -60.6396 646.479 -224.54 825.518 -260.918C886.812 -273.384 945.563 -271.483 996.131 -247.924C1149.24 -176.432 1038.15 36.5696 1053.24 135.378C1056.49 159.162 1067.51 181.206 1084.57 198.086C1133.38 245.495 1140.81 161.154 1181.4 67.6458C1218.83 -18.5568 1231.7 -96.2216 1311.16 -65.0408C1476.24 -0.543998 1080.6 460.972 1321.35 539.263C1557.18 615.853 1534.74 -36.5532 1728.86 0.787913C1828.83 20.1538 1835.43 188.046 1854.36 368.864C1872.03 538.082 1895.16 717.746 2010.18 795.517C2242.95 952.91 1711.08 38.6358 1996.43 97.2836C2013.67 100.866 2186.61 127.734 2720.64 333.435" stroke="url(#paint32_linear_2018_5232)" stroke-opacity="0.5" stroke-width="0.5"/>
<path d="M484.129 -60.2585C484.129 -60.2585 657.731 -219.676 836.106 -258.937C897.601 -272.502 957.057 -272.252 1008.3 -250.187C1163.91 -182.819 1051.29 27.501 1062.09 133.809C1064.54 157.909 1073.13 181.934 1092.85 200.575C1143.39 248.431 1153.7 157.033 1191.26 58.883C1225.75 -31.2257 1243.82 -114.826 1322.43 -84.9525C1485.96 -22.8079 1077.4 477.314 1319.02 555.76C1556.85 632.927 1540.01 -44.9775 1742.37 -10.369C1846.66 7.07601 1853.35 178.436 1870.6 363.112C1886.8 536.371 1908.17 720.839 2023.9 800.278C2259.04 961.866 1705.39 18.3119 1994.83 77.6682C2007.84 80.3305 2182.1 106.214 2731.17 315.046" stroke="url(#paint33_linear_2018_5232)" stroke-opacity="0.5" stroke-width="0.5"/>
<path d="M493.441 -59.8866C493.441 -59.8866 669.106 -214.68 846.715 -256.952C908.476 -271.595 968.536 -273.051 1020.42 -252.257C1178.49 -188.928 1064.06 18.8375 1070.92 132.323C1072.52 159.143 1080.72 184.399 1101.09 203.171C1153.39 251.458 1166.55 152.845 1201.11 50.1824C1232.68 -43.8903 1255.88 -133.354 1333.6 -104.564C1495.57 -44.7789 1074.19 493.962 1316.47 572.516C1556.43 650.3 1545 -52.5625 1755.76 -21.3262C1864.28 -5.44984 1871.13 169.061 1886.76 357.588C1901.45 534.902 1921.04 724.383 2037.58 805.258C2275.03 971.215 1699.74 -2.07271 1993.33 57.984C2001.99 59.7638 2177.58 84.7135 2741.73 296.64" stroke="url(#paint34_linear_2018_5232)" stroke-opacity="0.5" stroke-width="0.5"/>
<path d="M502.754 -59.5142C502.754 -59.5142 680.427 -209.89 857.303 -254.973C919.092 -270.768 980.056 -273.908 1032.56 -254.435C1193.16 -195.389 1076.64 10.1853 1079.75 130.817C1080.51 160.406 1088.34 186.778 1109.34 205.724C1163.43 254.355 1179.62 148.611 1210.96 41.4608C1239.66 -56.6623 1267.97 -151.896 1344.82 -124.348C1505.24 -66.8721 1071 510.473 1314.13 589.198C1555.97 667.475 1550.12 -60.4424 1769.19 -32.3191C1881.97 -18.0978 1888.74 159.562 1903.06 351.947C1915.95 533.223 1934.13 727.523 2051.4 810.143C2291.43 979.985 1694.05 -22.4701 1991.81 38.3221C1996.26 39.2383 2173.08 63.1705 2752.25 278.25" stroke="url(#paint35_linear_2018_5232)" stroke-opacity="0.5" stroke-width="0.5"/>
<path d="M512.087 -59.1354C512.087 -59.1354 840.405 -325.825 1044.71 -256.614C1249.01 -187.403 1010.7 114.185 1117.53 208.256C1224.35 302.327 1197.15 -199.214 1356.03 -144.111C1514.92 -89.0088 1067.84 526.969 1311.7 605.83C1555.57 684.691 1555.25 -68.3158 1782.68 -43.5067C2010.11 -18.6975 1822.39 641.227 2065.1 814.987C2307.81 988.748 1686.84 -34.8137 1990.3 18.6599C1990.3 18.6599 2168.57 41.6487 2762.79 259.838" stroke="url(#paint36_linear_2018_5232)" stroke-opacity="0.5" stroke-width="0.5"/>
</g>
<defs>
<linearGradient id="paint0_linear_2018_5232" x1="1422.67" y1="-32.0647" x2="1209.02" y2="652.247" gradientUnits="userSpaceOnUse">
<stop offset="0.25" stop-color="#00A990" stop-opacity="0.3"/>
<stop offset="0.535" stop-color="#00A990"/>
</linearGradient>
<linearGradient id="paint1_linear_2018_5232" x1="1429.52" y1="-31.1983" x2="1222.1" y2="633.161" gradientUnits="userSpaceOnUse">
<stop offset="0.25" stop-color="#00A990" stop-opacity="0.3"/>
<stop offset="0.535" stop-color="#00A990"/>
</linearGradient>
<linearGradient id="paint2_linear_2018_5232" x1="1436.35" y1="-30.2723" x2="1235.16" y2="614.152" gradientUnits="userSpaceOnUse">
<stop offset="0.25" stop-color="#00A990" stop-opacity="0.3"/>
<stop offset="0.535" stop-color="#00A990"/>
</linearGradient>
<linearGradient id="paint3_linear_2018_5232" x1="1443.28" y1="-29.5828" x2="1248.32" y2="594.868" gradientUnits="userSpaceOnUse">
<stop offset="0.25" stop-color="#00A990" stop-opacity="0.3"/>
<stop offset="0.535" stop-color="#00A990"/>
</linearGradient>
<linearGradient id="paint4_linear_2018_5232" x1="1450.12" y1="-28.7768" x2="1261.4" y2="575.695" gradientUnits="userSpaceOnUse">
<stop offset="0.25" stop-color="#00A990" stop-opacity="0.3"/>
<stop offset="0.535" stop-color="#00A990"/>
</linearGradient>
<linearGradient id="paint5_linear_2018_5232" x1="1457.02" y1="-28.117" x2="1274.47" y2="556.601" gradientUnits="userSpaceOnUse">
<stop offset="0.25" stop-color="#00A990" stop-opacity="0.3"/>
<stop offset="0.535" stop-color="#00A990"/>
</linearGradient>
<linearGradient id="paint6_linear_2018_5232" x1="1463.91" y1="-27.4181" x2="1282.43" y2="553.87" gradientUnits="userSpaceOnUse">
<stop offset="0.25" stop-color="#00A990" stop-opacity="0.3"/>
<stop offset="0.535" stop-color="#00A990"/>
</linearGradient>
<linearGradient id="paint7_linear_2018_5232" x1="1470.89" y1="-26.7878" x2="1288.77" y2="556.551" gradientUnits="userSpaceOnUse">
<stop offset="0.25" stop-color="#00A990" stop-opacity="0.3"/>
<stop offset="0.535" stop-color="#00A990"/>
</linearGradient>
<linearGradient id="paint8_linear_2018_5232" x1="1477.74" y1="-26.2218" x2="1294.96" y2="559.214" gradientUnits="userSpaceOnUse">
<stop offset="0.25" stop-color="#00A990" stop-opacity="0.3"/>
<stop offset="0.535" stop-color="#00A990"/>
</linearGradient>
<linearGradient id="paint9_linear_2018_5232" x1="1484.72" y1="-25.6875" x2="1301.27" y2="561.877" gradientUnits="userSpaceOnUse">
<stop offset="0.25" stop-color="#00A990" stop-opacity="0.3"/>
<stop offset="0.535" stop-color="#00A990"/>
</linearGradient>
<linearGradient id="paint10_linear_2018_5232" x1="1491.72" y1="-25.1938" x2="1307.55" y2="564.686" gradientUnits="userSpaceOnUse">
<stop offset="0.25" stop-color="#00A990" stop-opacity="0.3"/>
<stop offset="0.535" stop-color="#00A990"/>
</linearGradient>
<linearGradient id="paint11_linear_2018_5232" x1="1498.67" y1="-24.7858" x2="1313.82" y2="567.296" gradientUnits="userSpaceOnUse">
<stop offset="0.25" stop-color="#00A990" stop-opacity="0.3"/>
<stop offset="0.535" stop-color="#00A990"/>
</linearGradient>
<linearGradient id="paint12_linear_2018_5232" x1="1505.68" y1="-24.4541" x2="1320.07" y2="570.053" gradientUnits="userSpaceOnUse">
<stop offset="0.25" stop-color="#00A990" stop-opacity="0.3"/>
<stop offset="0.535" stop-color="#00A990"/>
</linearGradient>
<linearGradient id="paint13_linear_2018_5232" x1="1512.67" y1="-24.2031" x2="1326.31" y2="572.701" gradientUnits="userSpaceOnUse">
<stop offset="0.25" stop-color="#00A990" stop-opacity="0.3"/>
<stop offset="0.535" stop-color="#00A990"/>
</linearGradient>
<linearGradient id="paint14_linear_2018_5232" x1="1519.72" y1="-23.9367" x2="1332.57" y2="575.486" gradientUnits="userSpaceOnUse">
<stop offset="0.25" stop-color="#00A990" stop-opacity="0.3"/>
<stop offset="0.535" stop-color="#00A990"/>
</linearGradient>
<linearGradient id="paint15_linear_2018_5232" x1="1526.85" y1="-23.9321" x2="1338.84" y2="578.255" gradientUnits="userSpaceOnUse">
<stop offset="0.25" stop-color="#00A990" stop-opacity="0.3"/>
<stop offset="0.535" stop-color="#00A990"/>
</linearGradient>
<linearGradient id="paint16_linear_2018_5232" x1="1533.94" y1="-23.9643" x2="1345.07" y2="580.996" gradientUnits="userSpaceOnUse">
<stop offset="0.25" stop-color="#00A990" stop-opacity="0.3"/>
<stop offset="0.535" stop-color="#00A990"/>
</linearGradient>
<linearGradient id="paint17_linear_2018_5232" x1="1541.14" y1="-24.0746" x2="1351.36" y2="583.791" gradientUnits="userSpaceOnUse">
<stop offset="0.25" stop-color="#00A990" stop-opacity="0.3"/>
<stop offset="0.535" stop-color="#00A990"/>
</linearGradient>
<linearGradient id="paint18_linear_2018_5232" x1="1548.35" y1="-24.316" x2="1357.62" y2="586.576" gradientUnits="userSpaceOnUse">
<stop offset="0.25" stop-color="#00A990" stop-opacity="0.3"/>
<stop offset="0.535" stop-color="#00A990"/>
</linearGradient>
<linearGradient id="paint19_linear_2018_5232" x1="1555.59" y1="-24.6746" x2="1363.88" y2="589.387" gradientUnits="userSpaceOnUse">
<stop offset="0.25" stop-color="#00A990" stop-opacity="0.3"/>
<stop offset="0.535" stop-color="#00A990"/>
</linearGradient>
<linearGradient id="paint20_linear_2018_5232" x1="1562.81" y1="-25.1976" x2="1370.08" y2="592.126" gradientUnits="userSpaceOnUse">
<stop offset="0.25" stop-color="#00A990" stop-opacity="0.3"/>
<stop offset="0.535" stop-color="#00A990"/>
</linearGradient>
<linearGradient id="paint21_linear_2018_5232" x1="1570.16" y1="-25.9201" x2="1376.31" y2="594.982" gradientUnits="userSpaceOnUse">
<stop offset="0.25" stop-color="#00A990" stop-opacity="0.3"/>
<stop offset="0.535" stop-color="#00A990"/>
</linearGradient>
<linearGradient id="paint22_linear_2018_5232" x1="1577.55" y1="-26.6418" x2="1382.63" y2="597.689" gradientUnits="userSpaceOnUse">
<stop offset="0.25" stop-color="#00A990" stop-opacity="0.3"/>
<stop offset="0.535" stop-color="#00A990"/>
</linearGradient>
<linearGradient id="paint23_linear_2018_5232" x1="1584.92" y1="-27.6311" x2="1388.81" y2="600.501" gradientUnits="userSpaceOnUse">
<stop offset="0.25" stop-color="#00A990" stop-opacity="0.3"/>
<stop offset="0.535" stop-color="#00A990"/>
</linearGradient>
<linearGradient id="paint24_linear_2018_5232" x1="1592.34" y1="-28.7816" x2="1395" y2="603.293" gradientUnits="userSpaceOnUse">
<stop offset="0.25" stop-color="#00A990" stop-opacity="0.3"/>
<stop offset="0.535" stop-color="#00A990"/>
</linearGradient>
<linearGradient id="paint25_linear_2018_5232" x1="1599.87" y1="-30.0989" x2="1401.23" y2="606.122" gradientUnits="userSpaceOnUse">
<stop offset="0.25" stop-color="#00A990" stop-opacity="0.3"/>
<stop offset="0.535" stop-color="#00A990"/>
</linearGradient>
<linearGradient id="paint26_linear_2018_5232" x1="1607.5" y1="-31.5851" x2="1407.52" y2="608.946" gradientUnits="userSpaceOnUse">
<stop offset="0.25" stop-color="#00A990" stop-opacity="0.3"/>
<stop offset="0.535" stop-color="#00A990"/>
</linearGradient>
<linearGradient id="paint27_linear_2018_5232" x1="1615.18" y1="-33.2405" x2="1413.83" y2="611.686" gradientUnits="userSpaceOnUse">
<stop offset="0.25" stop-color="#00A990" stop-opacity="0.3"/>
<stop offset="0.535" stop-color="#00A990"/>
</linearGradient>
<linearGradient id="paint28_linear_2018_5232" x1="1622.83" y1="-35.1165" x2="1420" y2="614.525" gradientUnits="userSpaceOnUse">
<stop offset="0.25" stop-color="#00A990" stop-opacity="0.3"/>
<stop offset="0.535" stop-color="#00A990"/>
</linearGradient>
<linearGradient id="paint29_linear_2018_5232" x1="1630.57" y1="-37.1637" x2="1426.23" y2="617.345" gradientUnits="userSpaceOnUse">
<stop offset="0.25" stop-color="#00A990" stop-opacity="0.3"/>
<stop offset="0.535" stop-color="#00A990"/>
</linearGradient>
<linearGradient id="paint30_linear_2018_5232" x1="1638.37" y1="-39.371" x2="1432.46" y2="620.164" gradientUnits="userSpaceOnUse">
<stop offset="0.25" stop-color="#00A990" stop-opacity="0.3"/>
<stop offset="0.535" stop-color="#00A990"/>
</linearGradient>
<linearGradient id="paint31_linear_2018_5232" x1="1646.19" y1="-41.771" x2="1438.63" y2="623.033" gradientUnits="userSpaceOnUse">
<stop offset="0.25" stop-color="#00A990" stop-opacity="0.3"/>
<stop offset="0.535" stop-color="#00A990"/>
</linearGradient>
<linearGradient id="paint32_linear_2018_5232" x1="1654.16" y1="-44.3906" x2="1444.95" y2="625.73" gradientUnits="userSpaceOnUse">
<stop offset="0.25" stop-color="#00A990" stop-opacity="0.3"/>
<stop offset="0.535" stop-color="#00A990"/>
</linearGradient>
<linearGradient id="paint33_linear_2018_5232" x1="1662.16" y1="-47.199" x2="1451.2" y2="628.499" gradientUnits="userSpaceOnUse">
<stop offset="0.25" stop-color="#00A990" stop-opacity="0.3"/>
<stop offset="0.535" stop-color="#00A990"/>
</linearGradient>
<linearGradient id="paint34_linear_2018_5232" x1="1671.71" y1="-54.985" x2="1457.38" y2="631.505" gradientUnits="userSpaceOnUse">
<stop offset="0.25" stop-color="#00A990" stop-opacity="0.3"/>
<stop offset="0.535" stop-color="#00A990"/>
</linearGradient>
<linearGradient id="paint35_linear_2018_5232" x1="1683.91" y1="-71.3134" x2="1463.17" y2="635.737" gradientUnits="userSpaceOnUse">
<stop offset="0.25" stop-color="#00A990" stop-opacity="0.3"/>
<stop offset="0.535" stop-color="#00A990"/>
</linearGradient>
<linearGradient id="paint36_linear_2018_5232" x1="1696.15" y1="-87.696" x2="1464.71" y2="653.606" gradientUnits="userSpaceOnUse">
<stop offset="0.25" stop-color="#00A990" stop-opacity="0.3"/>
<stop offset="0.535" stop-color="#00A990"/>
</linearGradient>
<clipPath id="clip0_2018_5232">
<rect width="2568.43" height="852.705" fill="white" transform="translate(254.125 -469) rotate(17.3388)"/>
</clipPath>
</defs>
</svg>
