<svg width="24" height="21" viewBox="0 0 24 21" fill="none" xmlns="http://www.w3.org/2000/svg">
<path d="M22.742 20.6257H1.25821C0.284708 20.6257 -0.318991 19.567 0.177608 18.7299L10.9196 0.615456C11.4061 -0.205152 12.5938 -0.205152 13.0806 0.615456L23.8226 18.7289C24.3192 19.5662 23.7155 20.6257 22.742 20.6257Z" fill="#E92020"/>
<path d="M11.2451 14.471L10.7197 6.66232C10.6968 6.32277 10.8098 5.98804 11.0337 5.73178C11.2577 5.47553 11.5742 5.31872 11.9138 5.29587C12.2533 5.27301 12.5881 5.38598 12.8443 5.60992C13.1006 5.83386 13.2574 6.15042 13.2802 6.48997C13.2837 6.54737 13.2837 6.60492 13.2802 6.66232L12.7541 14.471C12.6633 15.4066 11.3345 15.4049 11.2451 14.471Z" fill="white"/>
<path d="M12 18.3555C12.5782 18.3555 13.0469 17.8868 13.0469 17.3086C13.0469 16.7304 12.5782 16.2617 12 16.2617C11.4218 16.2617 10.9531 16.7304 10.9531 17.3086C10.9531 17.8868 11.4218 18.3555 12 18.3555Z" fill="white"/>
</svg>
