<?xml version="1.0" encoding="UTF-8"?>
<svg xmlns="http://www.w3.org/2000/svg" viewBox="0 0 72 72">
  <g id="color">
    <g>
      <rect x="5" y="44.1428" width="62" height="5.4286" fill="#fff" stroke-width="0"/>
      <rect x="5" y="38.7143" width="62" height="5.4285" fill="#5c9e31" stroke-width="0"/>
      <rect x="5" y="49.5714" width="62" height="5.4286" fill="#5c9e31" stroke-width="0"/>
      <rect x="5" y="22.4285" width="62" height="5.4286" fill="#fff" stroke-width="0"/>
      <rect x="5" y="17" width="62" height="5.4285" fill="#5c9e31" stroke-width="0"/>
      <rect x="5" y="33.2857" width="62" height="5.4286" fill="#fff" stroke-width="0"/>
      <rect x="5" y="27.8571" width="62" height="5.4286" fill="#5c9e31" stroke-width="0"/>
    </g>
    <rect x="5" y="17" width="23.9444" height="16.2857" fill="#d22f27" stroke-width="0"/>
    <g id="line">
      <rect x="5" y="17" width="62" height="38" fill="none" stroke="#000" stroke-linecap="round" stroke-linejoin="round" stroke-width="2"/>
    </g>
  </g>
  <g id="arm">
    <g>
      <path d="m19.9001,29.0954l.0739-.1289-.0083-.0006-.0656.1295Z" fill="#fff" stroke-width="0"/>
      <path d="m17.3067,30.8746c.0461,0,.0922-.0012.139-.0035.9289-.0467,1.7585-.557,2.2197-1.3641l.1928-.3382.042-.0733.0656-.1295,1.1288-2.2416c.2176-.2903.1614-.7042-.1265-.926-.2909-.2241-.7096-.1691-.9331.1212l-.0089.0136-.5942,1.1601-.1774.3459v-4.1964c0-.2738-.224-.4979-.4979-.4979h-.0195c-.275,0-.4979.2235-.4979.4979v3.0404h-.1774v-3.6418c0-.2744-.2229-.4973-.4979-.4973h-.0195c-.2738,0-.4979.224-.4979.4979v3.7198h-.1774v-2.9813c0-.2746-.2226-.4973-.4973-.4973h-.0201c-.2746,0-.4973.2226-.4973.4973v3.1096h-.1774v-2.1831c0-.0822-.0201-.1596-.0556-.2277-.0822-.1602-.2501-.2702-.4423-.2702h-.0195c-.275,0-.4979.2235-.4979.4979v3.5447c0,.1296-.0003.2727.0015.4236.0135,1.1448.7706,2.1522,1.8712,2.4676.2741.0786.5439.1317.7722.1317Z" fill="#fff" stroke-width="0"/>
    </g>
  </g>
  <g id="stars">
    <g>
      <polygon points="17.4583 18.3356 17.6823 19.025 18.4073 19.025 17.8208 19.4511 18.0448 20.1406 17.4583 19.7145 16.8719 20.1406 17.0959 19.4511 16.5094 19.025 17.2343 19.025 17.4583 18.3356" fill="#fff" stroke-width="0"/>
      <polygon points="12.8969 19.5578 13.4357 20.0428 14.0635 19.6804 13.7686 20.3426 14.3073 20.8277 13.5864 20.7519 13.2915 21.4142 13.1408 20.7051 12.4199 20.6293 13.0477 20.2669 12.8969 19.5578" fill="#fff" stroke-width="0"/>
      <polygon points="9.5578 22.8969 10.2669 23.0477 10.6293 22.4199 10.7051 23.1408 11.4142 23.2915 10.7519 23.5864 10.8277 24.3073 10.3426 23.7686 9.6804 24.0635 10.0428 23.4357 9.5578 22.8969" fill="#fff" stroke-width="0"/>
      <polygon points="8.3356 27.4583 9.025 27.2343 9.025 26.5094 9.4511 27.0959 10.1406 26.8719 9.7145 27.4583 10.1406 28.0448 9.4511 27.8208 9.025 28.4073 9.025 27.6823 8.3356 27.4583" fill="#fff" stroke-width="0"/>
      <polygon points="22.0197 19.5578 21.481 20.0428 20.8532 19.6804 21.148 20.3426 20.6093 20.8277 21.3303 20.7519 21.6251 21.4142 21.7759 20.7051 22.4968 20.6293 21.869 20.2669 22.0197 19.5578" fill="#fff" stroke-width="0"/>
      <polygon points="25.3589 22.8969 24.6498 23.0477 24.2873 22.4199 24.2116 23.1408 23.5025 23.2915 24.1647 23.5864 24.089 24.3073 24.574 23.7686 25.2363 24.0635 24.8738 23.4357 25.3589 22.8969" fill="#fff" stroke-width="0"/>
      <polygon points="26.5811 27.4583 25.8917 27.2343 25.8917 26.5094 25.4656 27.0959 24.7761 26.8719 25.2022 27.4583 24.7761 28.0448 25.4656 27.8208 25.8917 28.4073 25.8917 27.6823 26.5811 27.4583" fill="#fff" stroke-width="0"/>
    </g>
  </g>
</svg>