<?xml version="1.0" encoding="UTF-8"?>
<svg xmlns="http://www.w3.org/2000/svg" viewBox="0 0 72 72">
  <g id="color">
    <rect x="5" y="17" width="62" height="38" fill="#fff" stroke-width="0"/>
    <rect x="5.5" y="17" width="21" height="38" fill="#1e50a0" stroke-width="0"/>
    <path d="m9.0417,20.2917h4.5747v4.0725c0,1.2624-1.0249,2.2873-2.2873,2.2873h0c-1.2624,0-2.2873-1.0249-2.2873-2.2873v-4.0725h0Z" fill="#d22f27" stroke-width="0"/>
    <path d="m9.7691,21.303h3.1198v2.7773c0,.8609-.699,1.5599-1.5599,1.5599h0c-.8609,0-1.5599-.699-1.5599-1.5599v-2.7773h0Z" fill="#fff" stroke-width="0"/>
  </g>
  <g id="eagle">
    <path d="m38.8954,33.7955c-1.5486.34-5.7781.1667-7.2665.1209-1.6042-.0494-1.9743.9378-1.9743.9378-.4527.5762-.9352.8473-1.3443.9681.0629-.2088.3462-1.1236.5052-1.2087.1727-.0925.5368.1296.5368.1296l.0208-.3098c.0147-.2182-.1395-.4153-.3562-.4446-.1108-.015-.2161-.0407-.2693-.0847-.1419-.1172-.4936-.1121-.4936-.1121-1.1599-.0195-2.5605,1.4818-2.6715,2.0741,0,0-1.2586.3702-2.3445-1.0118,0,0-.3702-.9872-1.9743-.9378-1.4885.0458-5.7179.2191-7.2665-.1209-.1199-.0263-.2135.101-.1531.2079.5009.8853,2.2064,3.4533,5.1861,3.5655,0,0,4.0721,2.1224,5.9847.691,0,0,.4566,1.0365.0864,1.5918s-.765,2.3075-.765,2.3075h4.2201s-.3949-1.7522-.7651-2.3075.0864-1.5918.0864-1.5918c1.9126,1.4314,5.9847-.691,5.9847-.691,2.9797-.1122,4.6852-2.6802,5.1861-3.5655.0605-.1069-.0331-.2342-.1531-.2079Z" fill="#f1b31c" stroke-width="0"/>
    <g>
      <polygon points="22.7482 26.6515 23.0323 27.1435 23.588 27.0254 23.2078 27.4476 23.4919 27.9396 22.9729 27.7085 22.5927 28.1308 22.6521 27.5657 22.1331 27.3346 22.6888 27.2165 22.7482 26.6515" fill="#f1b31c" stroke-width="0"/>
      <polygon points="19.1422 27.732 19.5224 28.1542 20.0414 27.9231 19.7574 28.4151 20.1375 28.8373 19.5818 28.7192 19.2977 29.2112 19.2383 28.6462 18.6826 28.5281 19.2016 28.297 19.1422 27.732" fill="#f1b31c" stroke-width="0"/>
      <polygon points="15.8397 29.5385 16.2994 29.8725 16.759 29.5385 16.5834 30.0789 17.0431 30.4128 16.4749 30.4128 16.2994 30.9532 16.1238 30.4128 15.5556 30.4128 16.0153 30.0789 15.8397 29.5385" fill="#f1b31c" stroke-width="0"/>
      <polygon points="12.985 31.9923 13.504 32.2234 13.8842 31.8012 13.8248 32.3662 14.3438 32.5973 13.7881 32.7154 13.7287 33.2804 13.4446 32.7884 12.8889 32.9065 13.269 32.4843 12.985 31.9923" fill="#f1b31c" stroke-width="0"/>
      <polygon points="26.5 26.3444 26.3244 26.8847 25.7563 26.8847 26.2159 27.2186 26.0404 27.759 26.5 27.425 26.9596 27.759 26.7841 27.2186 27.2437 26.8847 26.6756 26.8847 26.5 26.3444" fill="#f1b31c" stroke-width="0"/>
      <polygon points="30.2518 26.6515 29.9677 27.1435 29.412 27.0254 29.7922 27.4476 29.5081 27.9396 30.0271 27.7085 30.4073 28.1308 30.3479 27.5657 30.8669 27.3346 30.3112 27.2165 30.2518 26.6515" fill="#f1b31c" stroke-width="0"/>
      <polygon points="33.8578 27.732 33.4776 28.1542 32.9586 27.9231 33.2426 28.4151 32.8625 28.8373 33.4182 28.7192 33.7023 29.2112 33.7617 28.6462 34.3174 28.5281 33.7984 28.297 33.8578 27.732" fill="#f1b31c" stroke-width="0"/>
      <polygon points="37.1603 29.5385 36.7006 29.8725 36.241 29.5385 36.4166 30.0789 35.9569 30.4128 36.5251 30.4128 36.7006 30.9532 36.8762 30.4128 37.4444 30.4128 36.9847 30.0789 37.1603 29.5385" fill="#f1b31c" stroke-width="0"/>
      <polygon points="40.015 31.9923 39.496 32.2234 39.1158 31.8012 39.1752 32.3662 38.6562 32.5973 39.2119 32.7154 39.2713 33.2804 39.5554 32.7884 40.1111 32.9065 39.731 32.4843 40.015 31.9923" fill="#f1b31c" stroke-width="0"/>
    </g>
  </g>
  <g id="frame">
    <g id="line">
      <rect x="5" y="17" width="62" height="38" fill="none" stroke="#000" stroke-linecap="round" stroke-linejoin="round" stroke-width="2"/>
    </g>
  </g>
</svg>