<?xml version="1.0" encoding="UTF-8"?>
<svg xmlns="http://www.w3.org/2000/svg" viewBox="0 0 72 72">
  <g id="color">
    <rect x="5" y="17" width="62" height="38" fill="#1e50a0" stroke-width="0"/>
  </g>
  <g id="elefant">
    <circle cx="48.6608" cy="34.7066" r="9.3391" fill="#fcea2b" stroke-width="0"/>
    <path d="m39.3218,34.7066c0,1.1645.2229,2.2746.6123,3.3028h17.4536c.3894-1.0281.6123-2.1382.6123-3.3028s-.2229-2.2746-.6123-3.3028h-17.4536c-.3894,1.0281-.6123,2.1382-.6123,3.3028Z" fill="#186648" stroke-width="0"/>
    <g>
      <path d="m43.1412,31.9741c.5061.2828,1.0634.4874,1.6287.6002.5395.1081,1.1193.1188,1.6468-.0248,0,0,.111.6217.111.6217-.9401.0942-1.8665-.1963-2.6734-.6536-.2611-.1491-.5111-.3127-.7437-.5009l.0305-.0426h0Z" fill="#fff" stroke-width="0"/>
      <path d="m43.4383,31.7033c.5061.2828,1.0634.4874,1.6287.6002.5395.1081,1.1193.1188,1.6468-.0248l.111.6217c-.9401.0942-1.8665-.1963-2.6734-.6536-.2611-.1491-.5111-.3127-.7437-.5009l.0305-.0426h0Z" fill="#fff" stroke-width="0"/>
      <path d="m51.4698,35.9941s-1.5377.3961-2.0619.4077c0,0,.5592,1.2581.5009,2.6561h-1.4678s.0539-.1078.1544-.1689c0,0-.1267-1.6164-.4762-1.9833,0,0-.616.98-.5461,2.1522l-1.3586.0364s.1747-.3582.2359-.664.9742-3.3594.8606-3.5341-.7689-.8562-1.66-1.1009-1.6513-.9698-1.6513-.9698c0,0,1.3018.4718,1.494.4805s.2359-.0437.332-.1747.3757-.3844.3757-.3844c0,0-.7776.2446-1.363-.3145s-1.6775-1.6513-2.324-1.4329-.8475.4543-.8475.4543l-.4194-.4019s.2883-.4369.7514-.6203,1.3979-.2097,2.3503.4456,1.1795.6291,1.3106.5941.7601-.5155,1.7299-.166,1.8086.5679,1.9746.7601,1.2669.2359,1.5814.3233,1.8522.2708,2.3677.7514,1.8697,1.2144,1.2843,3.3026c0,0,.1048-1.4329-.3844-1.8348,0,0-.0699,2.0794,0,2.2716s.367.2359.4194.4805-.2796,1.7343-.2796,1.7343h-1.0921s.3058-1.0441.1136-1.3499-.5242-.5504-.5242-.5504c0,0,.0961,1.6032-.2621,1.9003h-1.1183s.3233-.3189.3582-.8955.0524-1.7736.0524-1.7736c0,0-.367-.233-.4106-.431Z" fill="#9b9b9a" stroke-width="0"/>
      <path d="m49.5552,32.1621c.3164.5199.6263,1.0406.8164,1.6259.0205.0761.0408.1521.0367.2451-.0111.0932-.054.1634-.1027.2365-.3456.4665-.9418.893-1.5009,1.0547-.5962.1704-.8804-.2016-1.093-.7046-.2005-.5102-.3385-1.2625-.1911-1.7943-.0545.2964-.0079.6006.0436.8938.0556.2919.1384.5815.2601.8519.1149.2401.2765.5388.5346.6232.125.0348.269.0176.4061-.0186.4207-.125.7988-.3802,1.129-.6672.109-.0983.2157-.2025.2987-.3176.0998-.1258.1001-.2233.0605-.372-.0343-.1415-.0869-.2821-.1404-.4217-.1653-.4204-.3615-.8276-.5577-1.2353h0Z" fill="#3f3f3f" stroke-width="0"/>
    </g>
  </g>
  <g id="brit">
    <g>
      <polygon points="33.8212 24.6953 33.8212 20.3243 26.6895 24.6953 33.8212 24.6953" fill="#1e50a0" stroke-width="0"/>
      <polygon points="22.025 35.5842 21.1176 35.5842 18.3954 35.5842 17.488 35.5842 17.488 30.335 8.9234 35.5843 31.217 35.5843 22.025 29.9505 22.025 35.5842" fill="#1e50a0" stroke-width="0"/>
      <polygon points="31.8442 18.3436 22.025 18.3436 22.025 24.3618 31.8442 18.3436" fill="#1e50a0" stroke-width="0"/>
      <polygon points="33.8212 33.9879 33.8212 29.2324 26.0622 29.2324 33.8212 33.9879" fill="#1e50a0" stroke-width="0"/>
      <polygon points="5.6916 34.5603 5.6916 35.5843 6.3191 35.5843 5.6916 34.5603" fill="#1e50a0" stroke-width="0"/>
      <polygon points="5.6917 29.2324 5.6917 28.325 5.6917 25.6027 5.6917 24.6953 13.4508 24.6953 5.6916 19.9397 5.6916 34.3726 14.0782 29.2324 5.6917 29.2324" fill="#1e50a0" stroke-width="0"/>
      <polygon points="17.488 18.3436 8.2962 18.3436 17.488 23.9772 17.488 18.3436" fill="#1e50a0" stroke-width="0"/>
      <polygon points="5.6916 18.3436 5.6916 18.3437 5.6916 18.3436 5.6916 18.3436" fill="#1e50a0" stroke-width="0"/>
      <polygon points="17.488 23.9772 8.2962 18.3436 7.9717 18.3436 17.488 24.1761 17.488 23.9772" fill="#fff" stroke-width="0"/>
      <polygon points="5.6916 18.3436 5.6916 18.3437 5.6916 18.5576 5.8227 18.3436 5.6916 18.3436" fill="#fff" stroke-width="0"/>
      <polygon points="33.8212 35.5843 33.8212 35.471 33.7517 35.5843 33.8212 35.5843" fill="#fff" stroke-width="0"/>
      <polygon points="22.025 29.9505 31.217 35.5843 31.603 35.5843 22.025 29.7139 22.025 29.9505" fill="#fff" stroke-width="0"/>
      <polygon points="15.5569 24.6953 5.6916 18.6489 5.6916 19.9397 13.4508 24.6953 15.5569 24.6953" fill="#fff" stroke-width="0"/>
      <polygon points="24.0177 29.2324 33.8212 35.241 33.8212 33.9879 26.0622 29.2324 24.0177 29.2324" fill="#fff" stroke-width="0"/>
      <polygon points="6.3886 35.5843 6.2167 35.3038 16.1227 29.2324 14.0782 29.2324 5.6916 34.3726 5.6916 34.5603 5.6916 35.5843 6.3886 35.5843" fill="#fff" stroke-width="0"/>
      <polygon points="17.488 30.0984 8.5374 35.5843 8.9234 35.5843 17.488 30.335 17.488 30.0984" fill="#fff" stroke-width="0"/>
      <polygon points="22.025 24.5606 32.1687 18.3436 31.8442 18.3436 22.025 24.3618 22.025 24.5606" fill="#fff" stroke-width="0"/>
      <polygon points="26.6895 24.6953 33.8212 20.3243 33.8212 19.0335 24.5835 24.6953 26.6895 24.6953" fill="#fff" stroke-width="0"/>
      <polygon points="17.488 29.2324 16.1227 29.2324 5.7591 35.5843 6.3886 35.5843 8.5374 35.5843 17.488 30.0984 17.488 29.2324" fill="#d22f27" stroke-width="0"/>
      <polygon points="22.025 24.6953 24.5835 24.6953 33.8212 19.0335 33.8212 18.3436 32.1687 18.3436 22.025 24.5606 22.025 24.6953" fill="#d22f27" stroke-width="0"/>
      <polygon points="22.025 29.2324 22.025 29.7139 31.603 35.5843 33.7517 35.5843 33.8212 35.5843 33.8212 35.241 24.0177 29.2324 22.025 29.2324" fill="#d22f27" stroke-width="0"/>
      <polygon points="17.488 24.6953 17.488 24.1761 7.9717 18.3436 5.6916 18.3436 5.6916 18.5576 5.6916 18.6489 15.5569 24.6953 17.488 24.6953" fill="#d22f27" stroke-width="0"/>
      <polygon points="22.025 28.325 22.025 29.2324 24.0177 29.2324 26.0622 29.2324 33.8212 29.2324 33.8212 28.325 22.025 28.325" fill="#fff" stroke-width="0"/>
      <polygon points="17.488 25.6027 17.488 24.6953 15.5569 24.6953 13.4508 24.6953 5.6917 24.6953 5.6917 25.6027 17.488 25.6027" fill="#fff" stroke-width="0"/>
      <polygon points="24.5835 24.6953 22.025 24.6953 22.025 25.6027 33.8212 25.6027 33.8212 24.6953 26.6895 24.6953 24.5835 24.6953" fill="#fff" stroke-width="0"/>
      <polygon points="17.488 28.325 5.6917 28.325 5.6917 29.2324 14.0782 29.2324 16.1227 29.2324 17.488 29.2324 17.488 28.325" fill="#fff" stroke-width="0"/>
      <polygon points="22.025 29.9505 22.025 29.7139 22.025 29.2324 22.025 28.325 21.1176 28.325 21.1176 35.5842 22.025 35.5842 22.025 29.9505" fill="#fff" stroke-width="0"/>
      <polygon points="17.488 24.1761 17.488 24.6953 17.488 25.6027 18.3954 25.6027 18.3954 18.3436 17.488 18.3436 17.488 23.9772 17.488 24.1761" fill="#fff" stroke-width="0"/>
      <polygon points="21.1176 25.6027 22.025 25.6027 22.025 24.6953 22.025 24.5606 22.025 24.3618 22.025 18.3436 21.1176 18.3436 21.1176 25.6027" fill="#fff" stroke-width="0"/>
      <polygon points="17.488 28.325 17.488 29.2324 17.488 30.0984 17.488 30.335 17.488 35.5842 18.3954 35.5842 18.3954 28.325 17.488 28.325" fill="#fff" stroke-width="0"/>
      <polygon points="22.025 25.6027 21.1176 25.6027 21.1176 28.325 22.025 28.325 33.8212 28.325 33.8212 25.6027 22.025 25.6027" fill="#d22f27" stroke-width="0"/>
      <polygon points="17.488 28.325 18.3954 28.325 18.3954 25.6027 17.488 25.6027 5.6917 25.6027 5.6917 28.325 17.488 28.325" fill="#d22f27" stroke-width="0"/>
      <polygon points="18.3954 25.6027 18.3954 28.325 18.3954 35.5842 21.1176 35.5842 21.1176 28.325 21.1176 25.6027 21.1176 18.3436 18.3954 18.3436 18.3954 25.6027" fill="#d22f27" stroke-width="0"/>
    </g>
  </g>
  <g id="frame">
    <g id="line">
      <rect x="5" y="17" width="62" height="38" fill="none" stroke="#000" stroke-linecap="round" stroke-linejoin="round" stroke-width="2"/>
    </g>
  </g>
</svg>