<?xml version="1.0" encoding="UTF-8"?>
<svg xmlns="http://www.w3.org/2000/svg" viewBox="0 0 72 72">
  <g id="three_colors" data-name="three colors">
    <g>
      <rect x="5" y="17" width="62" height="19" fill="#5c9e31" stroke-width="0"/>
      <rect x="5" y="36" width="62" height="6.3333" fill="#fff" stroke-width="0"/>
      <rect x="5" y="42.3333" width="62" height="12.6667" fill="#d22f27" stroke-width="0"/>
      <rect x="5" y="17" width="7.8478" height="38" fill="#fff" stroke-width="0"/>
    </g>
  </g>
  <g id="ornament">
    <g>
      <path d="m9.5083,30.0062c-.6509,0-1.2734-.2222-1.7788-.6396-.5835-.4814-.9409-1.1602-1.0068-1.9106-.0874-.9888.5703-1.876,1.4976-2.02.5278-.0806,1.0532.0684,1.4517.4087.3984.3418.6274.8384.6274,1.3628,0,.6699-.3687,1.2788-.9624,1.5898l-.3594-.6865c.3369-.1768.5464-.5229.5464-.9033,0-.2979-.1299-.5801-.3564-.7739-.229-.1968-.5254-.2808-.8281-.2319-.5254.0815-.8965.6025-.8452,1.186.0479.5425.3066,1.0332.7285,1.3813.4209.3477.9541.5088,1.5024.4512.9663-.0991,1.7417-.9067,1.8037-1.8784.0283-.5459-.186-1.0737-.5854-1.4751l-3.4062-3.4233c-.2402-.2422-.4175-.4824-.541-.7344-.1875-.3813-.2832-.7925-.2852-1.2217-.0044-1.5029,1.2129-2.7617,2.7134-2.8066.7773-.0259,1.4868.2578,2.0347.7891.5479.5317.8496,1.2451.8496,2.0083,0,.5425-.2417,1.0498-.6631,1.3921-.4204.3428-.9717.4751-1.5127.3618-.6792-.1416-1.231-.6934-1.3726-1.3726-.165-.79.1968-1.5776.8994-1.959l.3701.6807c-.4004.2173-.6055.6675-.5107,1.1201.0796.3823.3896.6924.772.772.3154.0674.623-.0068.8657-.2041.2393-.1948.3765-.4829.3765-.791,0-.5518-.2178-1.0674-.6143-1.4521-.3955-.3843-.917-.5771-1.4712-.5708-1.0664.0322-1.9648.9614-1.9614,2.0298.001.3101.0703.6074.2056.8828.0859.1753.2148.3481.395.5288l3.4058,3.4233c.5532.5562.8496,1.2979.812,2.0342-.0884,1.3818-1.1621,2.5-2.5005,2.6367-.0991.0103-.1978.0156-.2959.0156Z" fill="#f1b31c" stroke-width="0"/>
      <path d="m9.5088,42.1634c-.6514,0-1.2744-.2222-1.7798-.6396-.583-.4814-.9404-1.1602-1.0063-1.9102-.0874-.9888.5703-1.876,1.4976-2.02.5278-.0806,1.0532.0679,1.4517.4087.3984.3418.6274.8384.6274,1.3628,0,.6689-.3687,1.2783-.9619,1.5898l-.3604-.6865c.3374-.1768.5469-.5229.5469-.9033,0-.2979-.1299-.5801-.3564-.7739-.229-.1968-.5254-.2788-.8281-.2319-.5254.0815-.8965.6025-.8452,1.186.0479.5425.3066,1.0327.728,1.3809.4214.3472.958.5068,1.5029.4517.9663-.0996,1.7417-.9072,1.8037-1.8789.0283-.5454-.186-1.0732-.5859-1.4751l-3.4058-3.4229c-.2412-.2432-.418-.4834-.541-.7344-.1875-.3813-.2832-.7925-.2852-1.2222-.0044-1.5029,1.2129-2.7617,2.7134-2.8062.7603-.0225,1.4868.2573,2.0347.7891s.8496,1.2446.8496,2.0078c0,.5425-.2417,1.0498-.6631,1.3926-.4209.3428-.9717.4756-1.5127.3618-.6792-.1416-1.231-.6934-1.3726-1.3726-.165-.79.1968-1.5776.8994-1.959l.3701.6807c-.4004.2173-.6055.6675-.5107,1.1201.0796.3823.3896.6924.772.772.3164.0674.6235-.0063.8652-.2041.2397-.1948.377-.4834.377-.7915,0-.5518-.2178-1.0674-.6138-1.4517s-.9175-.5762-1.4717-.5708c-1.0669.0317-1.9648.9609-1.9614,2.0293.001.3105.0703.6079.2056.8833.0854.1743.2148.3472.395.5293l3.4058,3.4224c.5532.5566.8496,1.2983.812,2.0347-.0884,1.3813-1.1621,2.499-2.5005,2.6367-.0986.0103-.1973.0151-.2954.0151Z" fill="#f1b31c" stroke-width="0"/>
      <path d="m9.5088,54.3211c-.6514,0-1.2744-.2222-1.7798-.6396-.583-.4814-.9404-1.1602-1.0063-1.9102-.0874-.9888.5703-1.876,1.4976-2.02.5278-.0811,1.0532.0679,1.4517.4087.3984.3418.6274.8384.6274,1.3628,0,.6689-.3687,1.2783-.9619,1.5898l-.3604-.6865c.3374-.1768.5469-.5229.5469-.9033,0-.2979-.1299-.5801-.3564-.7739-.229-.1973-.5254-.2798-.8281-.2319-.5342.083-.8975.5928-.8452,1.186.0479.5425.3066,1.0327.728,1.3809.4214.3472.958.5063,1.5029.4517.9663-.0996,1.7417-.9072,1.8037-1.8789.0283-.5454-.186-1.0732-.5859-1.4751l-3.4058-3.4233c-.2407-.2422-.4175-.4824-.541-.7339-.1875-.3818-.2832-.7935-.2852-1.2222-.0044-1.5029,1.2129-2.7617,2.7134-2.8062.7603-.0264,1.4868.2573,2.0347.7891s.8496,1.2446.8496,2.0078c0,.5425-.2417,1.0498-.6631,1.3926-.4209.3428-.9717.4746-1.5127.3618-.6792-.1416-1.231-.6934-1.3726-1.3726-.165-.791.1968-1.5781.8999-1.9595l.3691.6816c-.3999.2163-.605.6665-.5103,1.1196.0796.3823.3896.6924.772.772.3164.0688.6235-.0059.8652-.2041.2397-.1948.377-.4834.377-.7915,0-.5518-.2178-1.0674-.6138-1.4517s-.9175-.5879-1.4717-.5708c-1.0669.0317-1.9648.9609-1.9614,2.0293.001.3101.0703.6074.2056.8833.0854.1748.2148.3472.395.5283l3.4058,3.4233c.5532.5566.8496,1.2983.812,2.0347-.0884,1.3813-1.1621,2.499-2.5005,2.6367-.0986.0103-.1973.0151-.2954.0151Z" fill="#f1b31c" stroke-width="0"/>
    </g>
  </g>
  <g id="frame">
    <g id="line">
      <rect x="5" y="17" width="62" height="38" fill="none" stroke="#000" stroke-linecap="round" stroke-linejoin="round" stroke-width="2"/>
    </g>
  </g>
</svg>