<?xml version="1.0" encoding="UTF-8"?>
<svg xmlns="http://www.w3.org/2000/svg" viewBox="0 0 72 72">
  <g id="color">
    <rect x="5" y="17" width="62" height="38" fill="#fff" stroke-width="0"/>
  </g>
  <g id="red">
    <g>
      <path d="m9.0816,22.8879c-.0152.004-.0302.0079-.0448.0117.0019-.0005.004-.0011.006-.0016.0145-.0038.0268-.007.0388-.0101Z" fill="#d22f27" stroke-width="0"/>
      <path d="m63.0351,22.9184c-.0118-.0031-.0398-.0104-.0839-.022.0061.0016.0125.0033.0183.0048-.0151-.004-.0305-.008-.0431-.0113-.0087-.0023-.0187-.0049-.0285-.0075.0021.0006.0043.0011.0065.0017-.0419-.011-.0703-.0184-.0829-.0217-.0072-.0019-.0116-.0031-.0193-.005-1.2525,3.5114-3.7792,8.8184-9.702,6.9501,0,0-2.0553,1.2195-3.9211,2.8181-1.8658,1.5986-3.4643,2.6262-6.0517,2.206-2.5874-.4179-3.3867.9911-4.3002,1.2195s-2.8272.2466-2.8272.2466c0,0-1.9137-.0183-2.8272-.2466s-1.7128-1.6374-4.3002-1.2195c-2.5874.4202-4.186-.6075-6.0517-2.206-1.8658-1.5986-3.9211-2.8181-3.9211-2.8181-5.9228,1.8683-8.4494-3.4387-9.7019-6.9501-.0049.0013-.0077.002-.0124.0033-.0071.0019-.0381.01-.1038.0272.007-.0018.0138-.0036.0206-.0054-.0236.0062-.0422.011-.0594.0155-.0031.0008-.0075.002-.0107.0028.0015-.0004.0032-.0008.0047-.0012-.022.0058-.0393.0103-.0514.0135-.0136.0036-.0233.0061-.0386.0101.9256,6.211,4.9993,6.258,9.3456,15.4871,1.9731,4.1918,5.5074,6.6572,8.9023,8.1061,5.6032,2.3912,12.0074,2.3912,17.6106,0,3.3949-1.4488,6.9292-3.9142,8.9023-8.1061,4.3463-9.229,8.42-9.2761,9.3456-15.4871-.0072-.0019-.0113-.003-.0181-.0047Zm-54.07,0c-.0127.0033-.012.0031,0,0h0Z" fill="#d22f27" stroke-width="0"/>
      <path d="m62.9511,22.8965c-.0157-.0041-.0312-.0082-.0468-.0123.0075.002.0135.0035.022.0058.0098.0026.0164.0043.0248.0065Z" fill="#d22f27" stroke-width="0"/>
    </g>
    <path d="m18.6118,29.711c-6.0712,1.5618-8.2941-3.9907-9.3439-7.5619-.0573-.1949.197-.3233.3222-.1633.4601.5883,1.1778,1.3964,2.1508,2.1754,1.4583,1.1675,3.8865-1.2912,6.0882,2.4669.5231.893,2.1532.0143,3.3633-.2452,0,0-.0063,1.5617-2.5805,3.3281Z" fill="#d22f27" stroke-width="0"/>
    <path d="m53.3882,29.711c6.0712,1.5618,8.2941-3.9907,9.3439-7.5619.0573-.1949-.197-.3233-.3222-.1633-.4601.5883-1.1778,1.3964-2.1508,2.1754-1.4583,1.1675-3.8865-1.2912-6.0882,2.4669-.5231.893-2.1532.0143-3.3633-.2452,0,0,.0063,1.5617,2.5805,3.3281Z" fill="#d22f27" stroke-width="0"/>
  </g>
  <g id="frame">
    <g id="line">
      <rect x="5" y="17" width="62" height="38" fill="none" stroke="#000" stroke-linecap="round" stroke-linejoin="round" stroke-width="2"/>
    </g>
  </g>
</svg>