<?xml version="1.0" encoding="UTF-8"?>
<svg xmlns="http://www.w3.org/2000/svg" viewBox="0 0 72 72">
  <g id="color">
    <g>
      <polygon points="5 16.9583 5 54.9583 5.0679 54.9583 67 16.9583 5 16.9583" fill="#d22f27" stroke-width="0"/>
      <polygon points="67 16.9583 5.0679 54.9583 67 54.9583 67 16.9583" fill="#fff" stroke-width="0"/>
      <g>
        <polygon points="14.6287 54.9583 67 54.9583 67 22.8246 14.6287 54.9583" fill="none" stroke-width="0"/>
        <polygon points="5 16.9583 5 49.1341 57.4398 16.9583 5 16.9583" fill="none" stroke-width="0"/>
      </g>
      <polygon points="67 16.9585 66.9999 16.9583 57.4398 16.9583 5 49.1341 5 54.8479 5.0677 54.9583 14.6287 54.9583 67 22.8246 67 16.9585" fill="#5c9e31" stroke-width="0"/>
    </g>
    <path d="m58.375,36.625h-2.3193v-2.3193c0-.2764-.2236-.5-.5-.5s-.5.2236-.5.5v2.3193h-2.3193c-.2764,0-.5.2236-.5.5s.2236.5.5.5h2.3193v2.3193c0,.2764.2236.5.5.5s.5-.2236.5-.5v-2.3193h2.3193c.2764,0,.5-.2236.5-.5s-.2236-.5-.5-.5Z" fill="#d22f27" stroke-width="0"/>
    <path d="m53.9028,44.3194h-2.3193v-2.3193c0-.2764-.2236-.5-.5-.5s-.5.2236-.5.5v2.3193h-2.3198c-.2764,0-.5.2236-.5.5s.2236.5.5.5h2.3198v2.3193c0,.2764.2236.5.5.5s.5-.2236.5-.5v-2.3193h2.3193c.2764,0,.5-.2236.5-.5s-.2236-.5-.5-.5Z" fill="#d22f27" stroke-width="0"/>
    <path d="m63.0786,44.6528h-2.3193v-2.3193c0-.2764-.2236-.5-.5-.5s-.5.2236-.5.5v2.3193h-2.3193c-.2764,0-.5.2236-.5.5s.2236.5.5.5h2.3193v2.3193c0,.2764.2236.5.5.5s.5-.2236.5-.5v-2.3193h2.3193c.2764,0,.5-.2236.5-.5s-.2236-.5-.5-.5Z" fill="#d22f27" stroke-width="0"/>
  </g>
  <g id="frame">
    <g id="line">
      <rect x="5" y="17" width="62" height="38" fill="none" stroke="#000" stroke-linecap="round" stroke-linejoin="round" stroke-width="2"/>
    </g>
  </g>
</svg>