<?xml version="1.0" encoding="UTF-8"?>
<svg xmlns="http://www.w3.org/2000/svg" viewBox="0 0 72 72">
  <g id="three_colors" data-name="three colors">
    <g>
      <rect x="5" y="17" width="62" height="12.6666" fill="#1e50a0" stroke-width="0"/>
      <rect x="5" y="29.6666" width="62" height="12.6667" fill="#fff" stroke-width="0"/>
      <rect x="5" y="42.3333" width="62" height="12.6667" fill="#d22f27" stroke-width="0"/>
      <rect x="5" y="16.8334" width="12.6667" height="38.3333" fill="#5c9e31" stroke-width="0"/>
    </g>
  </g>
  <g id="sun">
    <g>
      <circle cx="11.9027" cy="36.7639" r="2.336" fill="#fcea2b" stroke-width="0"/>
      <path d="m11.9028,41.1415c-2.4139,0-4.3777-1.9638-4.3777-4.3777s1.9638-4.3777,4.3777-4.3777,4.3777,1.9638,4.3777,4.3777-1.9638,4.3777-4.3777,4.3777Zm0-7.354c-1.641,0-2.9763,1.3353-2.9763,2.9763s1.3353,2.9763,2.9763,2.9763,2.9763-1.3353,2.9763-2.9763-1.3353-2.9763-2.9763-2.9763Z" fill="#fcea2b" stroke-width="0"/>
      <path d="m16.1823,40.0026c.6843-.9019,1.0955-2.0219,1.0955-3.2387s-.4112-2.3368-1.0955-3.2387l.381-1.4217-1.4217.381c-.9019-.6843-2.0219-1.0956-3.2387-1.0956s-2.3369.4112-3.2388,1.0956l-1.4218-.381.381,1.4218c-.6842.9019-1.0954,2.0218-1.0954,3.2386s.4112,2.3367,1.0954,3.2386l-.381,1.422,1.422-.381c.9019.6842,2.0218,1.0954,3.2386,1.0954s2.3367-.4112,3.2386-1.0954l1.4219.381-.381-1.4218Zm-9.0705-3.2387c0-2.6417,2.1493-4.791,4.791-4.791s4.791,2.1493,4.791,4.791-2.1493,4.791-4.791,4.791-4.791-2.1493-4.791-4.791Z" fill="#fcea2b" stroke-width="0"/>
    </g>
  </g>
  <g id="frame">
    <g id="line">
      <rect x="5" y="17" width="62" height="38" fill="none" stroke="#000" stroke-linecap="round" stroke-linejoin="round" stroke-width="2"/>
    </g>
  </g>
</svg>