<?xml version="1.0" encoding="UTF-8"?>
<svg xmlns="http://www.w3.org/2000/svg" viewBox="0 0 72 72">
  <g id="three_colors" data-name="three colors">
    <g>
      <rect x="5" y="17" width="62" height="12.6666" fill="#fff" stroke-width="0"/>
      <rect x="5" y="29.6666" width="62" height="12.6667" fill="#d22f27" stroke-width="0"/>
      <rect x="5" y="42.3333" width="62" height="12.6667" fill="#f1b31c" stroke-width="0"/>
    </g>
  </g>
  <g id="tiger">
    <ellipse cx="36" cy="41.9177" rx="15.7778" ry="8.7334" fill="#fff" stroke-width="0"/>
    <g>
      <path d="m45.1854,43.5668c-.4209-.255-1.2775-1.2479-1.7511-1.1749-.4736.073-.7176.0586-1.2119-.1831-.4726-.2311-1.0161-1.1925-1.901-1.6751.5766-.5394,1.3028-1.3797,1.5577-2.3696.2152-.8359-.054-1.6495-.7025-2.1234-.8408-.6144-2.0551-.534-3.2479.215-.1892.1188-.2463.3685-.1275.5578.1189.1892.3686.2463.5577.1275,1.0621-.6668,1.9054-.5646,2.3403-.2469.381.2784.529.7525.3963,1.2684-.2554.992-1.15,1.8489-1.6555,2.2682-.5451-.0768-.9557.0891-1.3471.2488-.5541.226-2.1253,1.2542-6.0199-.1381s-4.7231-.1989-4.9131-.1669c-.19.0319-.4372-.2442-.7899-.2454-.3526-.0012-.1258.7225-.0959,1.0955.0299.3731-.2878.4778-.4818.9111s-.0509.2155.0443.5454c.0952.3299.0216.449-.0958.6792-.1174.2302.0572.3433.0572.3433.6588.5081.8404.1357.9227.0819.0823-.0538.1852-.047.1852-.047,0,0-.3078-.4296.1098-.5399.4176-.1103.4594.2393.4383.482s-.3632.3284-.3632.3284c0,0,.1692.105.515.1048.3458-.0002.3297-.441.4489-.819s.4682-.4975.7261-.5509c.2579-.0534.4592.5874.4592.5874.1539.6312.0721.7557-.4167.9032-.4887.1476-1.2096.3608-1.4227.4021s-.5462.2911-.8876.5816c-.3414.2905-.6029.2231-.7273.5224-.1244.2993-.1925.7724.4542.8546s1.1924-.9006,1.4575-1.0937c.2651-.1931.3485.0215,1.776-.1962s2.6116-.2449,2.6116-.2449l.6734.1935c.6734.1935,2.1238.0369,2.927-.4771.8033-.514,2.4391-.9928,2.9651-.9069.5259.0858,2.2792.5908,2.9644.5185s1.5553-.7068,2.3157-.5944c.7605.1124.9859,1.2592,1.3592,1.5398.3734.2806.7847.1667.9845-.3643s-.6682-.9475-1.0891-1.2026Z" fill="#f1b31c" stroke-width="0"/>
      <path d="m42.0758,42.1128c-.4401-.3296-.959-1.1453-1.7543-1.5791.0374-.035.0785-.0815.1169-.1189-.2711-.1016-.5635-.1966-.9021-.267-.032.0274-.0667.0583-.0962.0828-.5451-.0769-.9557.0891-1.3471.2488-.5541.226-2.1254,1.2542-6.0199-.1381s-4.7231-.1988-4.9131-.1669c-.19.0319-.4373-.2442-.7899-.2454s-.1258.7223-.0959,1.0955h0c.4055.3076.8235-.1665,1.6265.0596.7404.2085,1.0755.8058,1.2542.6877.22-.1455-.306-1.0409-.0405-1.2542.192-.1543.7508.0863,1.0923.4855.5822.6806.4235,1.6946.5664,1.6991.0881.0028.1026-.384.4046-.8496.05-.0769.3813-.5878.5664-.5259.1586.053-.5208,1.0519-.5461,1.8003-.0167.4932.6059.5032.6271.5057.0274.0031-.0215-.9459.5664-1.6183.2421-.2769.562-.4723.6473-.4046.1055.0838-.2576.4837-.2427,1.0923.0119.4874.2629.9811.445.9709.1755-.0098.184-.4819.5664-1.2946.2544-.5407.4553-.9676.7282-.9709.3013-.0037.5945.51.6878.9305.1148.5174-.0785.869.0404.9305.1618.0836.4508-.6029,1.1733-.9709.6356-.3239.84-.0105,1.5778-.2832.984-.3636,1.2244-1.1442,1.6587-1.0114.2922.0894.4394.5209.6068,1.0114.2104.6166.1464.9589.3641,1.0518.2102.0898.4915-.1346.7282-.3236.2312-.1845.5095-.3991.7031-.6299Z" stroke-width="0"/>
      <path d="m41.1025,37.9083c-.004.0184-.0021.0356-.0069.0541-.0553.2148-.1445.4215-.2493.6205l.778.2539c.1046-.2151.1947-.4389.2549-.6727.0223-.0865.0179-.1701.0299-.2558h-.8066Z" stroke-width="0"/>
      <path d="m39.5578,36.4733c.2733-.0392.5175-.0265.7223.0279l.6337-.617c-.3009-.1576-.638-.2373-.9977-.2447l-.3582.8339Z" stroke-width="0"/>
    </g>
  </g>
  <g id="frame">
    <g id="line">
      <rect x="5" y="17" width="62" height="38" fill="none" stroke="#000" stroke-linecap="round" stroke-linejoin="round" stroke-width="2"/>
    </g>
  </g>
</svg>