<?xml version="1.0" encoding="UTF-8"?>
<svg xmlns="http://www.w3.org/2000/svg" viewBox="0 0 72 72">
  <g id="three_colors" data-name="three colors">
    <g>
      <rect x="5" y="15.8889" width="62" height="39.1111" fill="#fff" stroke-width="0"/>
      <rect x="29.6667" y="15.8889" width="12.6667" height="40.2222" fill="#d22f27" stroke-width="0"/>
      <rect x="5" y="29.6667" width="62" height="12.6666" fill="#1e50a0" stroke-width="0"/>
    </g>
  </g>
  <g id="stars">
    <polygon points="33.189 30.9417 33.6069 32.2276 34.959 32.2276 33.8651 33.0223 34.2829 34.3083 33.189 33.5135 32.0952 34.3083 32.513 33.0223 31.4191 32.2276 32.7712 32.2276 33.189 30.9417" fill="#fff" stroke-width="0"/>
    <polygon points="39.7693 30.9417 40.1871 32.2276 41.5392 32.2276 40.4454 33.0223 40.8632 34.3083 39.7693 33.5135 38.6754 34.3083 39.0932 33.0223 37.9994 32.2276 39.3515 32.2276 39.7693 30.9417" fill="#fff" stroke-width="0"/>
    <polygon points="33.189 37.0917 33.6069 38.3777 34.959 38.3777 33.8651 39.1724 34.2829 40.4583 33.189 39.6636 32.0952 40.4583 32.513 39.1724 31.4191 38.3777 32.7712 38.3777 33.189 37.0917" fill="#fff" stroke-width="0"/>
    <polygon points="39.7693 37.0917 40.1871 38.3777 41.5392 38.3777 40.4454 39.1724 40.8632 40.4583 39.7693 39.6636 38.6754 40.4583 39.0932 39.1724 37.9994 38.3777 39.3515 38.3777 39.7693 37.0917" fill="#fff" stroke-width="0"/>
    <polygon points="43.3092 34.2834 43.727 35.5694 45.0791 35.5694 43.9852 36.3641 44.403 37.65 43.3092 36.8553 42.2153 37.65 42.6331 36.3641 41.5392 35.5694 42.8913 35.5694 43.3092 34.2834" fill="#fff" stroke-width="0"/>
    <polygon points="29.6492 34.3083 30.067 35.5942 31.4191 35.5942 30.3252 36.389 30.7431 37.6749 29.6492 36.8801 28.5553 37.6749 28.9731 36.389 27.8792 35.5942 29.2314 35.5942 29.6492 34.3083" fill="#fff" stroke-width="0"/>
  </g>
  <g id="frame">
    <g id="line">
      <rect x="5" y="17" width="62" height="38" fill="none" stroke="#000" stroke-linecap="round" stroke-linejoin="round" stroke-width="2"/>
    </g>
  </g>
</svg>