<?xml version="1.0" encoding="UTF-8"?>
<svg xmlns="http://www.w3.org/2000/svg" viewBox="0 0 72 72">
  <g id="color">
    <rect x="5" y="17" width="62" height="38" fill="#001b69" stroke-width="0"/>
  </g>
  <g id="british">
    <g>
      <polygon points="33.1296 23.7362 33.1296 19.3652 25.998 23.7362 33.1296 23.7362" fill="#1e50a0" stroke-width="0"/>
      <polygon points="21.3334 34.625 20.426 34.625 17.7038 34.625 16.7964 34.625 16.7964 29.3758 8.2318 34.6251 30.5254 34.6251 21.3334 28.9913 21.3334 34.625" fill="#1e50a0" stroke-width="0"/>
      <polygon points="31.1526 17.3844 21.3334 17.3844 21.3334 23.4026 31.1526 17.3844" fill="#1e50a0" stroke-width="0"/>
      <polygon points="33.1296 33.0287 33.1296 28.2732 25.3706 28.2732 33.1296 33.0287" fill="#1e50a0" stroke-width="0"/>
      <polygon points="5 33.6011 5 34.6251 5.6276 34.6251 5 33.6011" fill="#1e50a0" stroke-width="0"/>
      <polygon points="5.0001 28.2732 5.0001 27.3658 5.0001 24.6436 5.0001 23.7362 12.7593 23.7362 5 18.9805 5 33.4134 13.3866 28.2732 5.0001 28.2732" fill="#1e50a0" stroke-width="0"/>
      <polygon points="16.7964 17.3844 7.6046 17.3844 16.7964 23.018 16.7964 17.3844" fill="#1e50a0" stroke-width="0"/>
      <polygon points="5 17.3844 5 17.3845 5.0001 17.3844 5 17.3844" fill="#1e50a0" stroke-width="0"/>
      <polygon points="16.7964 23.018 7.6046 17.3844 7.2801 17.3844 16.7964 23.2169 16.7964 23.018" fill="#fff" stroke-width="0"/>
      <polygon points="5.0001 17.3844 5 17.3845 5 17.5984 5.1311 17.3844 5.0001 17.3844" fill="#fff" stroke-width="0"/>
      <polygon points="33.1296 34.6251 33.1296 34.5118 33.0601 34.6251 33.1296 34.6251" fill="#fff" stroke-width="0"/>
      <polygon points="21.3334 28.9913 30.5254 34.6251 30.9114 34.6251 21.3334 28.7547 21.3334 28.9913" fill="#fff" stroke-width="0"/>
      <polygon points="14.8653 23.7362 5 17.6897 5 18.9805 12.7593 23.7362 14.8653 23.7362" fill="#fff" stroke-width="0"/>
      <polygon points="23.3261 28.2732 33.1296 34.2818 33.1296 33.0287 25.3706 28.2732 23.3261 28.2732" fill="#fff" stroke-width="0"/>
      <polygon points="5.6971 34.6251 5.5251 34.3446 15.4311 28.2732 13.3866 28.2732 5 33.4134 5 33.6011 5 34.6251 5.6971 34.6251" fill="#fff" stroke-width="0"/>
      <polygon points="16.7964 29.1392 7.8458 34.6251 8.2318 34.6251 16.7964 29.3758 16.7964 29.1392" fill="#fff" stroke-width="0"/>
      <polygon points="21.3334 23.6014 31.4771 17.3844 31.1526 17.3844 21.3334 23.4026 21.3334 23.6014" fill="#fff" stroke-width="0"/>
      <polygon points="25.998 23.7362 33.1296 19.3652 33.1296 18.0743 23.8919 23.7362 25.998 23.7362" fill="#fff" stroke-width="0"/>
      <polygon points="16.7964 28.2732 15.4311 28.2732 5 34.6251 5.6971 34.6251 7.8458 34.6251 16.7964 29.1392 16.7964 28.2732" fill="#d22f27" stroke-width="0"/>
      <polygon points="21.3334 23.7362 23.8919 23.7362 33.1296 18.0743 33.1296 17.3844 31.4771 17.3844 21.3334 23.6014 21.3334 23.7362" fill="#d22f27" stroke-width="0"/>
      <polygon points="21.3334 28.2732 21.3334 28.7547 30.9114 34.6251 33.0601 34.6251 33.1296 34.6251 33.1296 34.2818 23.3261 28.2732 21.3334 28.2732" fill="#d22f27" stroke-width="0"/>
      <polygon points="16.7964 23.7362 16.7964 23.2169 7.2801 17.3844 5 17.3844 5 17.5984 5 17.6897 14.8653 23.7362 16.7964 23.7362" fill="#d22f27" stroke-width="0"/>
      <polygon points="21.3334 27.3658 21.3334 28.2732 23.3261 28.2732 25.3706 28.2732 33.1296 28.2732 33.1296 27.3658 21.3334 27.3658" fill="#fff" stroke-width="0"/>
      <polygon points="16.7964 24.6436 16.7964 23.7362 14.8653 23.7362 12.7593 23.7362 5.0001 23.7362 5.0001 24.6436 16.7964 24.6436" fill="#fff" stroke-width="0"/>
      <polygon points="23.8919 23.7362 21.3334 23.7362 21.3334 24.6436 33.1296 24.6436 33.1296 23.7362 25.998 23.7362 23.8919 23.7362" fill="#fff" stroke-width="0"/>
      <polygon points="16.7964 27.3658 5.0001 27.3658 5.0001 28.2732 13.3866 28.2732 15.4311 28.2732 16.7964 28.2732 16.7964 27.3658" fill="#fff" stroke-width="0"/>
      <polygon points="21.3334 28.9913 21.3334 28.7547 21.3334 28.2732 21.3334 27.3658 20.426 27.3658 20.426 34.625 21.3334 34.625 21.3334 28.9913" fill="#fff" stroke-width="0"/>
      <polygon points="16.7964 23.2169 16.7964 23.7362 16.7964 24.6436 17.7038 24.6436 17.7038 17.3844 16.7964 17.3844 16.7964 23.018 16.7964 23.2169" fill="#fff" stroke-width="0"/>
      <polygon points="20.426 24.6436 21.3334 24.6436 21.3334 23.7362 21.3334 23.6014 21.3334 23.4026 21.3334 17.3844 20.426 17.3844 20.426 24.6436" fill="#fff" stroke-width="0"/>
      <polygon points="16.7964 27.3658 16.7964 28.2732 16.7964 29.1392 16.7964 29.3758 16.7964 34.625 17.7038 34.625 17.7038 27.3658 16.7964 27.3658" fill="#fff" stroke-width="0"/>
      <polygon points="21.3334 24.6436 20.426 24.6436 20.426 27.3658 21.3334 27.3658 33.1296 27.3658 33.1296 24.6436 21.3334 24.6436" fill="#d22f27" stroke-width="0"/>
      <polygon points="16.7964 27.3658 17.7038 27.3658 17.7038 24.6436 16.7964 24.6436 5.0001 24.6436 5.0001 27.3658 16.7964 27.3658" fill="#d22f27" stroke-width="0"/>
      <polygon points="17.7038 24.6436 17.7038 27.3658 17.7038 34.625 20.426 34.625 20.426 27.3658 20.426 24.6436 20.426 17.3844 17.7038 17.3844 17.7038 24.6436" fill="#d22f27" stroke-width="0"/>
    </g>
  </g>
  <g id="shield">
    <path d="m51.5271,47.9487h0s-7.6406-5.4479-7.6406-9.6677v-10.9152h15.2813v10.9152c0,4.2198-7.6406,9.6677-7.6406,9.6677Z" fill="#518ff7" stroke-width="0"/>
    <circle cx="51.3723" cy="32.6088" r="5.0485" fill="#fede00" stroke-width="0"/>
    <rect x="43.8865" y="32.6088" width="15.2813" height="5.6722" fill="#fff" stroke-width="0"/>
    <g>
      <path d="m50.2844,35.3258c.4033,0,.8874,0,1.8553-.0596,1.6133-.1191,1.694-.4169,2.5008-.1787.6452.1787,1.2101.2978,1.5327.1787.3226-.1787.1613-.5955-.3226-.6551-.4033-.0596-2.0166.1191-2.5814.2382-.5646.1191-1.8553.1191-1.452-.4169.4839-.4764.9681-.1787,1.2101-.4764.1613-.1787,0-.4169.242-.536.1613-.1191.3226-.1191.4839-.1191-.3226.3573-.4033.5955-.3226.7742v.1191c-.1613.1787-.5646,0-1.0487.1787-.1613.0596-.3226.1787-.242.2978s.5646.1191.8874.0596c.5646-.0596.9681-.2978,1.452-.4764.6452-.1787,1.2907-.2382,1.8553.1191.3226.2382.5646.7146.242,1.0124-.3226.3573-1.3714.2978-1.7746.0596-.0807-.0596-.1613-.1787-.3226-.1191-.0807,0-.242.0596-.242.1191-.0807.1787.242.3573.4033.4169.4839.2382,1.0487,0,1.2101-.0596.0807.1191.1613.2382.3226.4169.242.1787.3226.1787.4033.2382.242.2978-.242,1.1315-.8068,1.1315-.3226,0-.6452-.1787-.6452-.2978,0-.1787.5646-.1787.6452-.4764.0807-.1787-.0807-.3573-.242-.4169-.242-.1191-.4033.0596-.9681.0596-.4033,0-.5646.0596-.7259-.0596-.1613-.1191-.1613-.2978-.3226-.3573-.1613,0-.242.0596-.242.0596-.3226.2382.242.7146.0807,1.0124-.242.4764-1.8553.2978-2.4201.4764h-.1613c-.242,0-.4839-.2978-.3226-.4764,0-.0596.0807-.1191.8874-.2382.7259-.1191,1.2101-.0596,1.2907-.1787,0-.0596-.0807-.0596-.242-.2978-.0807-.0596-.0807-.1191-.0807-.1787-.3226.1787-.7259.2978-1.1294.3573-.5646.1191-.7259.0596-1.1294.1787-.5646.2382-.4839.4764-.8874.6551-.8068.3573-1.8553-.1191-2.0166-.1787s-.8874-.3573-.8068-.7146c0-.1191.0807-.2382.242-.2382.242-.0596.3226.1787.7259.3573.1613.0596.7259.2382,1.1294.1191.1613-.0596.4033-.1787.3226-.2978s-.5646-.0596-1.1294-.2978c-.4839-.1787-.6452-.536-.8068-.7742-.1613-.2978-.4033-.5955-.242-.8933.0807-.1787.4033-.4169.6452-.3573.1613.0596.3226.2382.3226.3573.0807.1787-.0807.2382-.0807.4764,0,.2978.3226.5955.6452.6551.0807,0,.3226.1191.5646.0596.0807-.0596.0807-.1191.1613-.2382.1613-.2382.9681-.1787,1.452-.1191h.0006Z" fill="#d22f27" stroke-width="0"/>
      <path d="m50.1231,35.5044l.242-.1787s.3226-.4764.242-.7146c-.0807-.2382.4033-.7742.4033-.7742l-.8068.0596s-1.3714-.1191-1.3714.536c0,0,.1613,0,.3226.2382s-.242.2978-.3226.3573-.242.2978.3226.4764c.4839.1191.9681,0,.9681,0h.0002Z" fill="#d22f27" stroke-width="0"/>
    </g>
    <path d="m51.5271,47.9487h0s7.6406-5.4479,7.6406-9.6678h-15.2813c0,4.2198,7.6406,9.6678,7.6406,9.6678Z" stroke-width="0"/>
    <g>
      <path d="m55.1414,41.1359c0,.9106.1468,1.3534.3021,1.8224.1213.3644.2435.7446.2938,1.3386,1.7711-1.8238,3.4303-4.0503,3.4303-6.0159h-3.4682c-.0611.422-.157.7386-.2554,1.0349-.1559.4684-.3027.9106-.3027,1.82Z" fill="none" stroke-width="0"/>
      <path d="m48.8664,43.0564c-.1565-.4714-.3186-.9593-.3186-1.9205,0-.96.162-1.4472.3186-1.9187.0937-.2816.1799-.5663.2372-.9362h-.942c-.0614.422-.1574.7386-.2557,1.0349-.1559.4684-.3027.9106-.3027,1.82,0,.9106.1468,1.3534.3027,1.8224.1565.4721.3192.9606.3192,1.9217,0,.1131-.0089.2002-.0131.3009.2934.2771.5831.5436.8613.7887.0577-.286.0959-.6269.0959-1.0896,0-.9112-.1468-1.354-.3027-1.8237Z" fill="none" stroke-width="0"/>
      <path d="m50.4257,44.8801c0-.9112-.1468-1.354-.3027-1.8231-.1565-.4721-.3192-.96-.3192-1.9211,0-.96.1626-1.4472.3192-1.9187.0937-.2816.1799-.5663.2372-.9362h-.9424c-.0611.422-.157.7386-.2554,1.0349-.1559.4684-.3027.9106-.3027,1.82,0,.9106.1468,1.3534.3021,1.8224.1571.4721.3192.9606.3192,1.9217,0,.5815-.062.9813-.1437,1.3179.2651.2289.5139.4383.7464.6286.0132-.0405.026-.0834.0393-.1234.1559-.469.3027-.9118.3027-1.8231Z" fill="none" stroke-width="0"/>
      <path d="m52.6283,41.1359c0,.9106.1468,1.3534.3027,1.8224.1565.4721.3192.9606.3192,1.9217s-.1626,1.4497-.3192,1.9217c-.0085.0257-.0163.052-.0247.0776.3634-.2963.7727-.6425,1.2116-1.0332.0453-.2622.0771-.564.0771-.9661,0-.9112-.1468-1.354-.3027-1.8231-.1565-.4721-.3192-.96-.3192-1.9211,0-.96.1626-1.4472.3192-1.9187.0937-.2816.1799-.5663.2372-.9362h-.9426c-.0614.422-.1574.7386-.2557,1.0349-.1559.4684-.3027.9106-.3027,1.82Z" fill="none" stroke-width="0"/>
      <path d="m51.6817,44.8801c0-.9112-.1468-1.354-.3027-1.8237-.1565-.4714-.3186-.9593-.3186-1.9205,0-.96.162-1.4472.3186-1.9187.0937-.2816.1799-.5663.2372-.9362h-.942c-.0614.422-.1574.7386-.2557,1.0349-.1559.4684-.3027.9106-.3027,1.82,0,.9106.1468,1.3534.3027,1.8224.1565.4721.3192.9606.3192,1.9217s-.1626,1.4497-.3192,1.9217c-.0261.0785-.0507.158-.0757.2373.3235.2602.5899.4654.7927.6188.0617-.3815.1515-.6769.2436-.9542.1559-.4696.3027-.9124.3027-1.8237Z" fill="none" stroke-width="0"/>
      <path d="m53.8849,41.1359c0,.9106.1468,1.3534.3027,1.8224.1565.4721.3192.9606.3192,1.9217,0,.2407-.0103.4518-.028.6404.316-.2893.6371-.5945.9605-.9174-.0282-.7172-.153-1.131-.2911-1.5467-.1565-.4714-.3186-.9593-.3186-1.9205,0-.96.162-1.4472.3186-1.9187.0937-.2816.1799-.5663.2372-.9362h-.942c-.0614.422-.1574.7386-.2557,1.0349-.1559.4684-.3027.9106-.3027,1.82Z" fill="none" stroke-width="0"/>
      <path d="m52.6356,46.7031c.1559-.469.3027-.9118.3027-1.8231s-.1468-1.354-.3027-1.8231c-.1565-.4721-.3192-.96-.3192-1.9211,0-.96.1626-1.4472.3192-1.9187.0937-.2816.1799-.5663.2372-.9362h-.9424c-.0611.422-.157.7386-.2554,1.0349-.1559.4684-.3027.9106-.3027,1.82,0,.9106.1468,1.3534.3021,1.8224.1571.4721.3192.9606.3192,1.9217s-.162,1.4497-.3192,1.9217c-.1041.3144-.2004.6288-.2552,1.0683.0662.0486.1079.0787.1079.0787h0s.3804-.2739.9545-.7278c.0483-.1841.1003-.3559.154-.5178Z" fill="none" stroke-width="0"/>
      <path d="m47.6104,43.057c-.1565-.4721-.3192-.96-.3192-1.9211,0-.96.1626-1.4472.3192-1.9187.0937-.2816.1799-.5663.2372-.9362h-3.9612c0,2.1861,2.0496,4.6963,4.0261,6.6134,0-.0053.0006-.0089.0006-.0143,0-.9112-.1468-1.354-.3027-1.8231Z" fill="none" stroke-width="0"/>
      <path d="m47.9059,42.9583c-.1559-.469-.3027-.9118-.3027-1.8224,0-.9094.1468-1.3516.3027-1.82.0984-.2963.1944-.6128.2557-1.0349h-.314c-.0573.3699-.1434.6546-.2372.9362-.1565.4714-.3192.9587-.3192,1.9187,0,.9612.1626,1.4491.3192,1.9211.1559.469.3027.9118.3027,1.8231,0,.0054-.0006.009-.0006.0143.1002.0972.1999.1926.2994.2866.0042-.1007.0131-.1878.0131-.3009,0-.9612-.1626-1.4497-.3192-1.9217Z" fill="#fff" stroke-width="0"/>
      <path d="m49.1618,42.9583c-.1553-.469-.3021-.9118-.3021-1.8224,0-.9094.1468-1.3516.3027-1.82.0984-.2963.1942-.6128.2554-1.0349h-.3142c-.0573.3699-.1434.6546-.2372.9362-.1565.4714-.3186.9587-.3186,1.9187,0,.9612.162,1.4491.3186,1.9205.1559.4696.3027.9124.3027,1.8237,0,.4627-.0382.8036-.0959,1.0896.0911.0802.1757.1518.2641.2283.0817-.3365.1437-.7363.1437-1.3179,0-.9612-.162-1.4497-.3192-1.9217Z" fill="#fff" stroke-width="0"/>
      <path d="m50.7376,44.8801c0-.9612-.1626-1.4497-.3192-1.9217-.1559-.469-.3027-.9118-.3027-1.8224,0-.9094.1468-1.3516.3027-1.82.0984-.2963.1944-.6128.2557-1.0349h-.314c-.0573.3699-.1434.6546-.2372.9362-.1565.4714-.3192.9587-.3192,1.9187,0,.9612.1626,1.4491.3192,1.9211.1559.469.3027.9118.3027,1.8231s-.1468,1.354-.3027,1.8231c-.0132.04-.026.0829-.0393.1234.0863.0707.1785.1479.259.2126.025-.0793.0496-.1588.0757-.2373.1565-.4721.3192-.9606.3192-1.9217Z" fill="#fff" stroke-width="0"/>
      <path d="m51.9936,44.8801c0-.9612-.162-1.4497-.3192-1.9217-.1553-.469-.3021-.9118-.3021-1.8224,0-.9094.1468-1.3516.3027-1.82.0984-.2963.1942-.6128.2554-1.0349h-.3142c-.0573.3699-.1434.6546-.2372.9362-.1565.4714-.3186.9587-.3186,1.9187,0,.9612.162,1.4491.3186,1.9205.1559.4696.3027.9124.3027,1.8237s-.1468,1.354-.3027,1.8237c-.0921.2772-.1818.5727-.2436.9542.1205.0911.2184.1643.2838.2122.0548-.4395.1511-.7539.2552-1.0683.1571-.4721.3192-.9606.3192-1.9217Z" fill="#fff" stroke-width="0"/>
      <path d="m52.3164,41.1359c0,.9612.1626,1.4491.3192,1.9211.1559.469.3027.9118.3027,1.8231s-.1468,1.354-.3027,1.8231c-.0537.1619-.1056.3337-.154.5178.1326-.1048.2721-.2172.4246-.3416.0085-.0256.0162-.0519.0247-.0776.1565-.4721.3192-.9606.3192-1.9217s-.1626-1.4497-.3192-1.9217c-.1559-.469-.3027-.9118-.3027-1.8224,0-.9094.1468-1.3516.3027-1.82.0984-.2963.1944-.6128.2557-1.0349h-.314c-.0573.3699-.1434.6546-.2372.9362-.1565.4714-.3192.9587-.3192,1.9187Z" fill="#fff" stroke-width="0"/>
      <path d="m53.573,41.1359c0,.9612.1626,1.4491.3192,1.9211.1559.469.3027.9118.3027,1.8231,0,.4022-.0317.7039-.0771.9661.1189-.1058.239-.2141.3609-.3257.0177-.1886.028-.3997.028-.6404,0-.9612-.1626-1.4497-.3192-1.9217-.1559-.469-.3027-.9118-.3027-1.8224,0-.9094.1468-1.3516.3027-1.82.0984-.2963.1944-.6128.2557-1.0349h-.314c-.0573.3699-.1434.6546-.2372.9362-.1565.4714-.3192.9587-.3192,1.9187Z" fill="#fff" stroke-width="0"/>
      <path d="m54.8296,41.1359c0,.9612.162,1.4491.3186,1.9205.138.4157.2628.8295.2911,1.5467.0999-.0997.1987-.2037.2982-.3062-.0503-.594-.1725-.9742-.2938-1.3386-.1553-.469-.3021-.9118-.3021-1.8224,0-.9094.1468-1.3516.3027-1.82.0984-.2963.1942-.6128.2554-1.0349h-.3142c-.0573.3699-.1434.6546-.2372.9362-.1565.4714-.3186.9587-.3186,1.9187Z" fill="#fff" stroke-width="0"/>
    </g>
  </g>
  <g id="frame">
    <g id="line">
      <rect x="5" y="17" width="62" height="38" fill="none" stroke="#000" stroke-linecap="round" stroke-linejoin="round" stroke-width="2"/>
    </g>
  </g>
</svg>