<?xml version="1.0" encoding="UTF-8"?>
<svg xmlns="http://www.w3.org/2000/svg" viewBox="0 0 72 72">
  <g id="color">
    <rect x="5" y="17" width="62" height="38" fill="#5c9e31" stroke-width="0"/>
    <rect x="22.0592" y="17" width="27.8816" height="38" fill="#fff" stroke-width="0"/>
    <rect x="5" y="17" width="62" height="38" fill="none" stroke="#000" stroke-linecap="round" stroke-linejoin="round" stroke-width="2"/>
  </g>
  <g id="grass">
    <path d="m46.0374,46.64c0,.57-4.4782,1.026-9.9988,1.026s-9.9988-.456-9.9988-1.026,4.6326-5.244,10.1532-5.244,9.8443,4.674,9.8443,5.244Z" fill="#b1cc33" stroke="#fff" stroke-miterlimit="10" stroke-width=".383"/>
  </g>
  <g id="tape">
    <path d="m36.0386,44.474v1.14s-.9651,0-1.4284-.152c-.4247-.19-.3088-.95-.3088-.95l.4247-.228,1.3126.19Z" fill="#fff" stroke-width="0"/>
    <path d="m34.7646,44.246s-.3861.266-.2316.532c.193.304,1.0037.418,1.0037.798.0386.342-.8107.798-.8107.798l-.7721-.646s-.6177-.494-.2702-.722c.2316-.152.3861-.38.5019-.532.0772-.076.2702-.19.3474-.19l.2316-.038h0Z" fill="#d0cfce" stroke-width="0"/>
    <path d="m35.4981,45.424s.193.076.1544.342c-.0386.304-.6563,1.064-.6563,1.064,0,0-5.2889.076-5.3275.038,0-.038-.3474-.988-.3474-.988l.4633-.228s4.9801.076,5.3275.076.4633-.114.3861-.304Z" fill="#fff" stroke-width="0"/>
    <path d="m36.0386,44.474v1.14s.9651,0,1.4284-.152c.4247-.19.3088-.95.3088-.95l-.4247-.228-1.3126.19Z" fill="#fff" stroke-width="0"/>
    <path d="m37.3512,44.246s.3861.266.2316.532c-.193.304-1.0037.418-1.0037.798-.0386.342.8107.798.8107.798l.7721-.646s.6177-.494.2702-.722c-.2316-.152-.3861-.38-.5019-.532-.0772-.076-.2702-.19-.3474-.19l-.2316-.038h0Z" fill="#d0cfce" stroke-width="0"/>
    <path d="m36.6177,45.424s-.193.076-.1544.342c.0386.304.6563,1.064.6563,1.064,0,0,5.2889.076,5.3275.038,0-.038.3474-.988.3474-.988l-.4633-.228s-4.9801.076-5.3275.076c-.3088.076-.5019-.114-.3861-.304Z" fill="#fff" stroke-width="0"/>
    <path d="m30.3636,45.728c-.3474,0-.7335-.418-.2702-.76.4633-.342-.1158-1.406-.1158-1.406l-1.6214.988s.4247-.114.3474.456-.8107,1.026-.2316,1.558,1.8531.38,1.8531.38l.0386-1.216h0Z" fill="#fff" stroke-width="0"/>
    <path d="m41.7136,45.728c.3474,0,.7335-.418.2702-.76-.4633-.342.1158-1.406.1158-1.406l1.6214.988s-.4247-.114-.3474.456c.0386.57.8107,1.026.2316,1.558s-1.8531.38-1.8531.38l-.0386-1.216h0Z" fill="#fff" stroke-width="0"/>
  </g>
  <g id="leaf">
    <path d="m33.6451,31.022c-.4247-.038-.6177.456-1.0037.38-.5019-.076-.6177-.836-1.0423-.836-.1544,0-.2702.152-.4633.38-.1544.19-.3088.342-.2702.494.0386.19.2702.304.5791.342-.0772.038-.193.076-.2702.114,0,.076-.0386.266-.193.418-.193.19-.4247.19-.4633.19.0386.076.1544.152.2702.228.2316.076.3474-.076.4633,0,.1544.114-.0386.418.1158.608s.4633.038.6177.228c.1158.152.0386.304.1158.456.1544.304.8879.38,1.3898.114.3861-.19.5405-.532.7335-.95s.3861-.798.2702-1.254c-.1158-.38-.4247-.836-.8493-.912Z" fill="#f1b31c" stroke-width="0"/>
  </g>
  <g id="Layer_9" data-name="Layer 9">
    <path d="m33.7609,34.252c-.0386-.076-.1544-1.596.4247-2.014,0,0-.7721-1.14-.9651-1.216h-.7721s.3474-.57.6177-.722c0,0,.2702-1.216,1.4284-1.444s2.2391.114,2.2391.114l.3861,1.102-.1834,1.3717c-.006.0453.0099.0891.0449.119.1536.1306.5841.4923.6789.5233.1158.038.5791.076.6563.418s0,1.368,0,1.368l-4.5554.38Z" fill="#9b9b9a" stroke-width="0"/>
    <path d="m33.066,30.414s.2316.266.8879.19l-.5791.19h-.3088v-.38Z" stroke-width="0"/>
    <path d="m35.3051,29.882s-1.9303.912-2.0847.874-.1544-.418-.1544-.418c-.2702.152-.6177.722-.6177.722h.7721c.8107-.19,2.1619-.988,2.1619-.988l-.0772-.19Z" fill="#3f3f3f" stroke-width="0"/>
    <path d="m37.3126,32.504c-.4247.38-.4633,1.368-.5019,1.52l1.3898-.114c0-.304.0772-1.178,0-1.292-.0772-.152-.3861-.494-.8879-.114Z" fill="#3f3f3f" stroke-width="0"/>
    <circle cx="36.2702" cy="31.288" r=".1544" fill="#d0cfce" stroke-width="0"/>
    <circle cx="36.5791" cy="31.706" r=".1544" fill="#d0cfce" stroke-width="0"/>
    <circle cx="36.8493" cy="32.124" r=".1544" fill="#d0cfce" stroke-width="0"/>
    <path d="m31.5604,30.794c0-.19.1544-.38.3088-.456.3474-.19.6177.114.9265-.076.193-.114.3474-.38.2702-.608-.0772-.19-.2702-.266-.3088-.266.1544-.038.3474-.152.5405-.38.1544-.19.3861-.608.2316-.798-.1158-.152-.4247-.152-.6177,0-.1158.076-.193.19-.193.266.1158-.19.0386-.418-.0772-.532-.1544-.114-.4633-.038-.5791.228.0386-.114.0772-.304.1544-.494.1544-.342.2316-.38.2316-.57,0-.038.0386-.456-.2316-.608-.193-.114-.4247-.076-.6563.076.0772.076.1544.266.1544.494,0,.19-.1158.304-.2702.57-.2316.304-.3474.342-.5019.608-.1158.19-.193.38-.2316.494,0-.038.1544-.342-.0386-.608-.0772-.114-.3088-.342-.5019-.266-.1544.076-.2316.266-.193.494-.0386-.076-.1544-.228-.3861-.304-.3088-.114-.7335,0-.7721.19-.0386.114.1158.266.193.342.193.19.3861.228.4633.228-.0386,0-.2702.076-.3474.228-.0772.19.0772.38.1158.418.2702.342.6563.228,1.1968.532.193.114.3088.228.4633.38.3861.342.6177.684.6563.646.0386,0,0-.114,0-.228Z" fill="#5c9e31" stroke-width="0"/>
    <path d="m32.0623,26.652c.0386,0,.0772-.418-.1544-.532-.0772-.038-.1544-.038-.2316-.038-.5405-.418-.6563-.646-.6177-.722,0-.038.0386-.038,0-.076-.0386-.114-.4247-.152-.6177.076-.1158.114-.0772.342.0386.494-.0772-.266-.3088-.456-.5405-.456-.1544,0-.3088.076-.3474.228-.0386.19.0772.418.3861.532-.0386-.038-.4247-.38-.8107-.228-.1158.038-.2702.19-.2702.304,0,.076.0772.114.0772.152-.0386.076-.3474.038-.5019-.114-.193-.152-.193-.456-.1158-.722-.0772,0-.1544,0-.193.038-.2316.114-.2316.532-.1158.798.1544.38.5019.532.5791.57-.2702.076-.4247.266-.3861.418,0,.114.1158.19.193.266.193.114.5019.19.6949.038.1158-.076.1544-.19.193-.266,0,0-.0772.266.0772.456,0,0,.0772.114.2316.114.1544.038.3474-.038.4633-.152.1544-.19.0772-.418.2702-.57.0386-.038.1158-.076.1158-.076-.0386.076-.0772.228-.0386.456,0,.076.0772.304.2316.342s.3474-.076.4633-.228c.1158-.19.0386-.304.193-.646.0386-.114.1158-.19.1158-.228.0386-.038.2316-.342.4247-.304.1544-.076.1544.076.193.076Z" fill="#f1b31c" stroke-width="0"/>
  </g>
  <g id="shield">
    <path d="m36.0386,33.91h-4.2466v4.788c0,.912.193,1.824.5791,2.66.7335,1.558,1.8917,2.774,3.7061,3.61,1.8144-.836,2.9726-2.09,3.7061-3.61.3861-.836.5791-1.748.5791-2.66v-4.788h-4.3238Z" fill="#d0cfce" stroke-width="0"/>
    <path d="m31.792,37.558v1.33c0,.722.1158,1.406.3861,2.09.6949,1.748,1.8917,3.116,3.8605,4.028,1.9689-.912,3.1656-2.28,3.8605-4.028.2702-.646.3861-1.368.3861-2.09v-1.33h-8.4932Z" fill="#5c9e31" stroke-width="0"/>
    <path d="m36.0386,33.91h-4.2466v4.788c0,.912.193,1.824.5791,2.66.7335,1.558,1.8917,2.774,3.7061,3.61,1.8144-.836,2.9726-2.09,3.7061-3.61.3861-.836.5791-1.748.5791-2.66v-4.788h-4.3238Z" fill="none" stroke="#3f3f3f" stroke-miterlimit="10" stroke-width=".383"/>
  </g>
  <g id="pickaxe">
    <path d="m36.0386,44.322h0c-.1544,0-.3088-.114-.3088-.304v-6.156h.5791v6.156c.0386.152-.0772.304-.2702.304Z" fill="#f1b31c" stroke-width="0"/>
    <path d="m32.873,39.686c1.5442-2.09,4.8257-2.09,6.3699,0l-.0386.038c-1.5442-.684-3.0884-1.102-4.7484-.57-.4247.076-1.3126.532-1.5828.532h0Z" fill="#fcea2b" stroke-width="0"/>
  </g>
  <g id="monstr">
    <path d="m35.4209,35.506c.193,0,.4247,0,.8879-.038.7721-.076.8107-.266,1.1968-.114.3088.114.5791.19.7335.114.1544-.114.0772-.38-.1544-.418-.193-.038-.9651.076-1.2354.152-.2702.076-.8879.076-.6949-.266.2316-.304.4633-.114.5791-.304.0772-.114,0-.266.1158-.342.0772-.076.1544-.076.2316-.076-.1544.228-.193.38-.1544.494v.076c-.0772.114-.2702,0-.5019.114-.0772.038-.1544.114-.1158.19s.2702.076.4247.038c.2702-.038.4633-.19.6949-.304.3088-.114.6177-.152.8879.076.1544.152.2702.456.1158.646-.1544.228-.6563.19-.8493.038-.0386-.038-.0772-.114-.1544-.076-.0386,0-.1158.038-.1158.076-.0386.114.1158.228.193.266.2316.152.5019,0,.5791-.038.0386.076.0772.152.1544.266.1158.114.1544.114.193.152.1158.19-.1158.722-.3861.722-.1544,0-.3088-.114-.3088-.19,0-.114.2702-.114.3088-.304.0386-.114-.0386-.228-.1158-.266-.1158-.076-.193.038-.4633.038-.193,0-.2702.038-.3474-.038-.0772-.076-.0772-.19-.1544-.228-.0772,0-.1158.038-.1158.038-.1544.152.1158.456.0386.646-.1158.304-.8879.19-1.1582.304h-.0772c-.1158,0-.2316-.19-.1544-.304,0-.038.0386-.076.4247-.152.3474-.076.5791-.038.6177-.114,0-.038-.0386-.038-.1158-.19-.0386-.038-.0386-.076-.0386-.114-.1544.114-.3474.19-.5405.228-.2702.076-.3474.038-.5405.114-.2702.152-.2316.304-.4247.418-.3861.228-.8879-.076-.9651-.114-.0772-.038-.4247-.228-.3861-.456,0-.076.0386-.152.1158-.152.1158-.038.1544.114.3474.228.0772.038.3474.152.5405.076.0772-.038.193-.114.1544-.19s-.2702-.038-.5405-.19c-.2316-.114-.3088-.342-.3861-.494-.0772-.19-.193-.38-.1158-.57.0386-.114.193-.266.3088-.228.0772.038.1544.152.1544.228.0386.114-.0386.152-.0386.304,0,.19.1544.38.3088.418.0386,0,.1544.076.2702.038.0386-.038.0386-.076.0772-.152.0772-.152.4633-.114.6949-.076Z" fill="#d22f27" stroke-width="0"/>
    <path d="m35.3437,35.62l.1158-.114s.1544-.304.1158-.456c-.0386-.152.193-.494.193-.494l-.3861.038s-.6563-.076-.6563.342c0,0,.0772,0,.1544.152s-.1158.19-.1544.228-.1158.19.1544.304c.2316.076.4633,0,.4633,0Z" fill="#d22f27" stroke-width="0"/>
    <g>
      <ellipse cx="39.3973" cy="35.278" rx=".193" ry=".304" fill="#5c9e31" stroke-width="0"/>
      <line x1="39.3973" y1="35.468" x2="39.3973" y2="36.532" fill="none" stroke="#5c9e31" stroke-miterlimit="10" stroke-width=".0958"/>
      <path d="m39.8991,34.784c.0772.57.2316,1.52-.3474,1.9-.2702.114-.5791-.076-.6563-.342-.1544-.494-.1544-1.102-.0386-1.558.0386.494.0386,1.026.2316,1.444.0772.152.1544.228.2702.228s.193-.076.2702-.228c.2316-.456.193-.988.2702-1.444h0Z" fill="#5c9e31" stroke-width="0"/>
      <polygon points="39.3973 34.936 39.6289 34.556 39.1656 34.556 39.3973 34.936 39.6289 34.556 39.1656 34.556 39.3973 34.936" fill="#61b2e4" stroke-width="0"/>
    </g>
    <g>
      <ellipse cx="32.7186" cy="35.278" rx=".193" ry=".304" fill="#5c9e31" stroke-width="0"/>
      <line x1="32.7186" y1="35.468" x2="32.7186" y2="36.532" fill="none" stroke="#5c9e31" stroke-miterlimit="10" stroke-width=".0958"/>
      <path d="m32.2167,34.784c.0772,2.242.9265,2.242,1.0037,0,.1544.456.1544,1.064,0,1.558-.0772.266-.3861.456-.6563.342-.3474-.152-.3861-.57-.4247-.874-.0386-.342-.0386-.76.0772-1.026h0Z" fill="#5c9e31" stroke-width="0"/>
      <polygon points="32.7186 34.936 32.4869 34.556 32.9502 34.556 32.7186 34.936 32.4869 34.556 32.9502 34.556 32.7186 34.936" fill="#61b2e4" stroke-width="0"/>
    </g>
  </g>
  <g id="crown">
    <path d="m37.7372,31.25c-.1544,0-.3861.19-.3474.342.0386.304,1.0423.266,1.1582.722.0386.152-.0772.228,0,.38.1158.228.4633.342.6949.228.193-.114.1158-.342.3088-.456.1544-.114.3088.038.8107.038.2316,0,.5019,0,.5405-.114s-.193-.19-.1544-.342c.0386-.114.2702-.076.3088-.19.0386-.114-.0772-.342-.2702-.456-.2316-.152-.4247-.038-.5791-.19s-.1544-.494-.0386-.722.2702-.228.9651-.57c.7335-.342.8879-.494.9265-.684,0-.038.0386-.228-.0772-.342-.0772-.076-.2316-.076-.3861-.038.1544-.114.3088-.228.3861-.304.2316-.19.2702-.228.3088-.304,0-.152-.2702-.342-.5405-.304-.2316.038-.3474.266-.3861.304-.0386-.076-.0772-.19-.193-.304-.0772-.114-.1544-.19-.2316-.19-.1544,0-.2702.266-.3088.304-.1158.228-.0386.418-.1158.418-.0772.038-.193-.266-.5791-.76-.2316-.342-.3474-.418-.3474-.608s.0772-.266.0386-.456c0-.038-.0772-.304-.2316-.342s-.3088.114-.3861.19c-.0386.038-.1158.114-.193.266-.1158.304,0,.608.0772.798.0386.114.1158.304.2702.494-.1544-.152-.3474-.228-.5019-.19-.0386.038-.1158.076-.1544.19-.0386.152.0386.266.0386.266-.0386-.076-.2702-.304-.5791-.304-.0772,0-.2316,0-.3088.114-.0772.114,0,.304.0772.494.0772.152.1158.304.3088.418.193.152.3861.114.4247.152,0,.076-.3474.114-.4247.342-.0772.19,0,.456.1544.608.3088.228.8107-.152,1.1196.114,0,0,.1544.114.1544.304.0386.228-.193.418-.2702.494-.2702.228-.7721.494-1.1196.304-.1544.038-.193-.114-.3474-.114Z" fill="#f1b31c" stroke-width="0"/>
    <path d="m36.0386,29.388c-.1158.152.0386.266-.0772.57-.0772.266-.2316.304-.2702.532,0,.038,0,.266.1158.38.1544.114.3861.038.4247,0,.2316-.114.2702-.342.2702-.342-.0386.038-.1544.38,0,.646.0386.038.1544.266.3474.266s.3088-.152.3088-.19c.193-.304-.0386-.722-.0386-.76.0386,0,.1158,0,.1544.038.1544.114.1158.418.1544.646,0,.076,0,.114.0386.152.0386.114.1158.418.3474.608.0772.076.3474.304.5405.19.1158-.076.193-.266.1544-.494.0772.076.193.228.4247.342.1158.076.4633.228.6177.076.1158-.076.1158-.304.0386-.456.2702.038.4633,0,.5791-.038.1544-.038.3861-.114.5019-.342,0-.038.0772-.19,0-.304-.0386-.076-.1544-.114-.1544-.114-.1544-.038-.3088.038-.5019.114-.1158.076-.193.076-.193.076-.0772-.038.1158-.228.0386-.418-.0386-.114-.2316-.228-.3861-.228-.0772,0-.0772.152-.1158.38,0,0-.0772.304-.3088.38-.2316.076-.4633-.076-.7335-.304-.2316-.19-.5019-.38-.5791-.684-.0386-.19.0386-.228,0-.38-.0772-.228-.3861-.342-.5019-.418-.4247-.152-1.0037-.19-1.1968.076Z" fill="#5c9e31" stroke-width="0"/>
    <path d="m39.1656,26.918c-.193.076-.2702.266-.3088.304,0-.152,0-.38.1158-.646.1158-.304.3474-.456.4247-.532.2702-.19.3474-.114.5019-.304.193-.19.0772-.38.2702-.456.1544-.114.4633-.038.5405.114.1158.152.0386.304.0772.342.0386,0,.0772-.19.2702-.304.1158-.076.3088-.076.4633.038.0386,0,.1544.114.1544.228,0,.152-.1544.304-.3861.304h.2702c.193-.038.2316-.152.4247-.114.0386,0,.1158,0,.193.076.0386.038.0772.114.0772.19-.0386.114-.193.152-.193.19,0,0,.0386-.038.0772-.038.1544-.076.3088.038.3861.038.1158,0,.2316-.152.3474-.836.0386-.038.1158-.038.1544-.038.1544.038.1158.38.1158.456,0,.114-.0386.532-.3088.722-.1544.114-.2702.076-.3088.152,0,.114.3088.19.3088.342,0,.114-.193.228-.2316.228-.2316.114-.4247.038-.4633.038-.2316-.076-.3474-.228-.3474-.304.0772.19.0772.38-.0386.494-.0772.114-.193.114-.2316.152-.3474.076-.6563-.38-.6949-.456-.0772-.114-.1158-.228-.1544-.304.1158.19.1544.418.0386.57,0,0-.1158.152-.3088.19-.2316,0-.3474-.266-.3861-.342-.1158-.228-.0386-.342-.1544-.456-.1158-.114-.4633-.152-.6949-.038Z" fill="#5c9e31" stroke-width="0"/>
    <ellipse cx="42.7173" cy="24.904" rx=".7335" ry=".722" fill="#f1b31c" stroke-width="0"/>
    <path d="m42.6787,24.904l-1.1924-.8734c-.2087-.1529-.1722-.4705.0659-.5737l.8462-.3665c.2418-.1047.5071.0907.4732.3486l-.1929,1.4649Z" fill="#f1b31c" stroke-width="0"/>
    <ellipse cx="28.7036" cy="24.828" rx=".7335" ry=".722" fill="#f1b31c" stroke-width="0"/>
    <path d="m28.7036,24.828l.1782-1.3534c.0408-.3101.4077-.4601.6598-.2697l.5291.3997c.251.1896.2004.5754-.0913.696l-1.2757.5274Z" fill="#f1b31c" stroke-width="0"/>
    <path d="m38.7024,27.45c-.5791-.532-2.5865-2.204-3.32-2.356,0,0-.0341-.9381,0-1.14.0386-.2286-.6209-.7313-.8879-.418,0,0-.4633-.342-.7721.532,0,0,.3088-.19.5405-.038h-.2702s.0386.342.3474.38l-.0772,1.444s-.5019.608-.3861,1.52.193,1.786.193,1.786l2.8954.114s.4247-1.444.6949-1.71c.193-.19.6949-.076.9651,0,.0772,0,.1158-.076.0772-.114Z" fill="#f1b31c" stroke-width="0"/>
    <ellipse cx="35.4209" cy="27.868" rx=".9651" ry="1.292" fill="#fcea2b" stroke-width="0"/>
    <g>
      <path d="m38.0461,29.578c-.0386.114-.1544.19-.3088.19-.0386,0-.0772,0-.1158-.038-.0772-.038-.1544-.076-.2316-.076h0c-.1544-.038-.3088-.076-.4633-.114h0c-.2702-.076-.5405-.076-.8107-.114h-.4247c-.2702,0-.5405,0-.7721.038-.1544,0-.2702.038-.3861.038-.4633.076-.7721.114-.7721.114-.193.038-.3474-.076-.3861-.228-.0386-.19.0772-.342.2316-.38.0386,0,.193-.038.5019-.114.1544-.038.3088-.038.4633-.076.193-.038.3861-.038.6177-.038h.5019c.193,0,.4247,0,.6177.038.193,0,.3861.038.5791.076.3088.076.6177.152.9265.266.2316.076.3088.266.2316.418Z" fill="#b1cc33" stroke-width="0"/>
      <path d="m34.9191,29.426c-.1544,0-.2702.038-.3861.038l-.4247-.608c.1544-.038.3088-.038.4633-.076l.3474.646Z" fill="#fcea2b" stroke-width="0"/>
      <path d="m36.1158,29.426h-.4247l-.4633-.646h.5019l.3861.646Z" fill="#fcea2b" stroke-width="0"/>
      <path d="m37.3898,29.654h0l-.4633-.114h0l-.5405-.722c.193,0,.3861.038.5791.076l.4247.76Z" fill="#fcea2b" stroke-width="0"/>
    </g>
  </g>
  <g id="goat">
    <g id="goat-2" data-name="goat">
      <path d="m28.3231,30.3776c-.0772-1.596-2.1619-2.394-3.2042-1.14.4633-.456,1.2354-.57,1.8144-.266.5405.266.8879.836.8107,1.406-.0386.38.5791.38.5791,0h0Z" fill="#9b9b9a" stroke-width="0"/>
      <path d="m27.6227,30.566l-.2316.038s-.1544-.266-.3861-.418-.4247-.76-.4247-.76c0,0-.0772.38-.1158.95s.4633.684.3861.76c-.0772.114-.3474.684-.3474.684-.6177,1.216.7335,2.926.9651,3.496s.1544.418.1544.646c.0386.228-.1544,1.558-.193,1.786,0,.19-.3474.57-.4633.798s-.3474.608-.5019.836c-.1158.228-.6563.532-.8493-.038-.193-.532.1544-1.52.1544-1.786s.3861-.304.5405-1.026c.1544-.646-.2702-2.888-.2702-2.888,0,0-.6563.304-.8879.988s.3861,2.47.3861,2.66c0,.152-.5405,1.71-.3088,2.546.2316.874,1.3126.152,1.3126.152,0,0,0,1.216-.0772,1.52s-.7721.57-.7721.76.2702,2.052.1158,2.318c-.1544.266,0,.608,0,.608,0,0,.1544.722.3861.836.2702.114,1.3126.076,1.0809-.114-.193-.152-.8493-.988-.8493-.988,0,0,.0386-1.976.1158-2.166.0772-.152.7335-.57,1.1582-.874s.9651-1.444.9651-1.444c.2316-.266.5405-1.596.3088-1.862-.1158-.152.1158-.19.1158-.19v-.152l.0386-.304h.9265c.2702,0,.5405-.076.7335-.19.193-.076.5405-.494.8493-.532.3088-.076.3088-.76.3088-.836,0-.114-.0772-.152-.193-.19-.1158,0-.5019-.19-.6949-.304s-.4247-.38-.4247-.38c.7335-.456.5791-1.976.5791-2.128s.193-.114.3088-.114c.1544.038.6563.456.6563.456h.8493s-1.1196-1.026-1.5442-1.178-.5791.304-.6563.494c-.0772.228-.0772.342-.2316.456-.1544.152-.3088.684-.3088.684-.1544-.228-.4633-.228-.4633-.228-.1158-.874-1.2354-1.406-1.2354-1.406,0,0,.0386-.152.3088-.304.2702-.19.8493,0,1.0809.076.2316.076.5405-.266.5019-.608s-.4247-.19-.5405-.19-.7434-.4479-.7721-.76c-.0225-.2442-.3111-.2263-.3111-.2263,0,0-.141-.1224-.334-.2364-.193-.114-.2428-.0312-.2428-.0312l-.6563.304Zm2.3935,6.232c.0386-.152.1375-.3041.1375-.3041,0,0,.6732.1521.8276.1521s.3861.038.3474.114c-.0386.076-.4633.418-.5019.456-.0386.038-.3088.266-.3088.266,0-.038-.1544-.152-.2702-.152-.0772,0-.2316.114-.2316.114,0,0-.2316-.19-.3088-.19s.2316-.228.3088-.456Z" fill="#a57939" stroke-width="0"/>
      <path d="m33.3362,43.6c.0386.076-.2316.532-1.1582.342-.9651-.19-.6563-.456-.7335-.532s-1.467-1.102-1.6214-1.14c-.1544-.038-.5019,0-.5019-.304s-.0772-.988-.3474-1.254q-.3088-.266-.3088-.266c.2816-.4128.4239-1.4381.193-1.71-.0772-.076.2006-.3033.2006-.3033l.1082-.1147s.2702.076.3861.19c.1158.152.8493.38.8879.836s-.1158,2.014-.1544,2.28.2702.342.6949.684.9651.722,1.1196.722c.1158,0,1.1196.494,1.2354.57Z" fill="#d0cfce" stroke-width="0"/>
      <path d="m27.7385,32.124l-.3474-1.14.9265-.494.5019-.038c.0772.038.1158.076.1158.076,0,0,.193,0,.2702.304s.6563.646.7721.646.4633-.114.5019.228c.0386.342-.2316.722-.4633.646-.193-.038-.8107-.228-1.0809-.076-.2702.19-.3474.266-.3474.266l-.8493-.418Z" fill="#d0cfce" stroke-width="0"/>
      <path d="m28.279,30.224s.1158-.076.3088.038c.193.114.3474.228.3474.228,0,0,.193,0,.2702.304.0386.228.3711.5062.6028.6202-.2702,0-.7958-.1642-.873-.3922-.1158-.266-.3088-.342-.5405-.304s-.5405.57-.5019.798c.0386.266,1.1968.342,1.1968.342,0,0-.7335.076-.8493.228-.1158.152.3474.456.3474.456-1.0809.076-1.1582-.684-1.1582-.722-.3088.722.9651,3.04,1.0809,3.496s.2316.722,0,.76-.8107,2.014-1.2354,2.66c-.193.304-.5019.418-.6949.456.0772-.228.193-.57.3088-.76.1158-.228.4247-.494.4633-.722,0-.228.2702-1.786.0386-2.356s-1.5056-2.47-.8879-3.648c0,0,.2316-.494.3088-.57.0772-.076-.4633-.266-.4247-.836.0386-.608.193-.912.193-.912,0,0,.2702.646.5019.798.2316.19.3861.38.3861.38l.1158-.038.6949-.304Z" fill="#3f3f3f" stroke-width="0"/>
      <path d="m29.7073,37.406l.1158.532c-.1158.038-.193.038-.2316.038-.3088,0-.3861.038-.3861.038l-.0386.304v.152s-.0772.266-.3088.266c-.0386-.038-.4633-.646-.4247-.912.0386-.418.4633-1.178.9265-1.596s.8107-.646.6563-1.52c-.0772-.342-.2083-.6953-.2083-.8473.1158,0,.4013.1253.5171.3153,0,0,.564.1058.371,1.3978l-.564.9582s-.0386.152-.1158.304c-.0386.19-.3861.418-.3088.418s.3088.19.3088.19c0,0-.1385-.0351-.3088-.038Z" fill="#d0cfce" stroke-width="0"/>
      <path d="m25.4994,37.33c0-.19-.6563-1.976-.4247-2.66.2316-.684.9651-1.064.9651-1.064,0,0,.4247,2.318.2702,2.964-.1544.722-.5405.76-.5405,1.026s-.3474,1.178-.1544,1.748c.0772.19.2385.3254.3929.3254-.0386.114-.1227.2066-.1999.2826-.0386.076-.1029.2027-.1029.3167-.193,0-.4376-.1267-.5148-.4307-.193-.912.2702-2.318.3088-2.508Z" fill="#3f3f3f" stroke-width="0"/>
      <path d="m29.5915,37.976c-.3088,0-.3861.038-.3861.038l-.4633-.114c.0772-.494.9528-.6518.9528-.6518l.0123.0058c.0772,0,.3088.19.3088.19v.494c-.193.038-.3861.038-.4247.038Z" fill="#3f3f3f" stroke-width="0"/>
      <circle cx="28.472" cy="31.098" r=".1544" fill="#6a462f" stroke-width="0"/>
      <circle cx="28.472" cy="31.098" r=".0766" stroke-width="0"/>
      <path d="m27.3138,45.956c.193.19-.8493.266-1.0809.152s-.4247-.912-.4247-.912c0,0-.2316-.228-.0772-.494.193-.266-.0386-2.128-.0386-2.432.1544.19.4664.494.8138.722-.0386.532-.0803,1.938-.0803,1.938,0,0,.6563.798.8879,1.026Z" fill="#d0cfce" stroke-width="0"/>
      <path d="m27.3524,45.956c.193.19-.8879.266-1.1196.152s-.4247-.912-.4247-.912c.5791-.228.6177-.266.6177-.266,0,0,.6563.798.9265,1.026Z" fill="#3f3f3f" stroke-width="0"/>
      <path d="m30.132,36.494c-1.0423.038-1.0037-.494-1.0037-.494l.7721-.95.7956.5238s.4783.9202-.564.9202Z" fill="#a57939" stroke-width="0"/>
      <path d="m32.2227,43.975c-.9651-.19-.7176-.413-.7782-.565l.5609-.4049s.134.0249.1726.0249c.1544,0,1.1196.494,1.1968.57.0772.076-.187.527-1.1521.375Z" fill="#3f3f3f" stroke-width="0"/>
      <path d="m28.5106,30.3c.193-1.9-2.1619-3.23-3.5903-1.9.6563-.456,1.5442-.456,2.2005,0,.5791.38.8879,1.14.7335,1.824-.1544.456.6177.57.6563.076h0Z" fill="#9b9b9a" stroke-width="0"/>
    </g>
    <g id="goat-3" data-name="goat">
      <path d="m43.8313,30.3776c.0772-1.596,2.1619-2.394,3.2042-1.14-.4633-.456-1.2354-.57-1.8144-.266-.5405.266-.8879.836-.8107,1.406.0386.38-.5791.38-.5791,0h0Z" fill="#9b9b9a" stroke-width="0"/>
      <path d="m43.8755,30.262s-.0498-.0828-.2428.0312c-.193.114-.334.2364-.334.2364,0,0-.2887-.0179-.3111.2263-.0287.3121-.6563.76-.7721.76s-.5019-.152-.5405.19.2702.684.5019.608c.2316-.076.8107-.266,1.0809-.076.2702.152.3088.304.3088.304,0,0-1.1196.532-1.2354,1.406,0,0-.3088,0-.4633.228,0,0-.1544-.532-.3088-.684-.1544-.114-.1544-.228-.2316-.456-.0772-.19-.2316-.646-.6563-.494s-1.5442,1.178-1.5442,1.178h.8493s.5019-.418.6563-.456c.1158,0,.3088-.038.3088.114,0,.152-.1544,1.672.5791,2.128,0,0-.2316.266-.4247.38s-.5791.304-.6949.304c-.1158.038-.193.076-.193.19s0,.76.3088.836c.3088.038.6563.456.8493.532.193.114.4633.19.7335.19h.9265l.0386.304v.152s.2316.038.1158.19c-.2316.266.0772,1.596.3088,1.862,0,0,.5405,1.14.9651,1.444s1.0809.722,1.1582.874c.0772.19.1158,2.166.1158,2.166,0,0-.6563.836-.8493.988-.2316.19.8107.228,1.0809.114.2316-.114.3861-.836.3861-.836,0,0,.1544-.342,0-.608-.1544-.266.1158-2.128.1158-2.318,0-.19-.6949-.456-.7721-.76s-.0772-1.52-.0772-1.52c0,0,1.0809.722,1.3126-.152.2316-.836-.3088-2.394-.3088-2.546,0-.19.6177-1.976.3861-2.66s-.8879-.988-.8879-.988c0,0-.4247,2.242-.2702,2.888.1544.722.5405.76.5405,1.026,0,.266.3474,1.254.1544,1.786-.193.57-.7335.266-.8493.038-.1544-.228-.3861-.608-.5019-.836s-.4633-.608-.4633-.798c-.0386-.228-.2316-1.558-.193-1.786,0-.228-.0772-.076.1544-.646s1.5828-2.28.9651-3.496c0,0-.2702-.57-.3474-.684-.0772-.076.4247-.19.3861-.76s-.1158-.95-.1158-.95c0,0-.193.608-.4247.76s-.3861.418-.3861.418l-.2316-.038-.6563-.304Zm-1.4284,6.992c-.0772,0-.3088.19-.3088.19,0,0-.1544-.114-.2316-.114-.1158,0-.2702.114-.2702.152,0,0-.2702-.228-.3088-.266-.0386-.038-.4633-.38-.5019-.456-.0386-.076.193-.114.3474-.114s.8276-.1521.8276-.1521c0,0,.0989.1521.1375.3041.0772.228.3861.456.3088.456Z" fill="#a57939" stroke-width="0"/>
      <path d="m38.8182,43.6c-.0386.076.2316.532,1.1582.342.9651-.19.6563-.456.7335-.532s1.467-1.102,1.6214-1.14c.1544-.038.5019,0,.5019-.304,0-.304.0772-.988.3474-1.254q.3088-.266.3088-.266c-.2816-.4128-.4239-1.4381-.193-1.71.0772-.076-.2006-.3033-.2006-.3033l-.1082-.1147s-.2702.076-.3861.19c-.1158.152-.8493.38-.8879.836s.1158,2.014.1544,2.28-.2702.342-.6949.684-.9651.722-1.1196.722c-.1158,0-1.1196.494-1.2354.57Z" fill="#d0cfce" stroke-width="0"/>
      <path d="m44.4159,32.124l.3474-1.14-.9265-.494-.5019-.038c-.0772.038-.1158.076-.1158.076,0,0-.193,0-.2702.304s-.6563.646-.7721.646-.4633-.114-.5019.228c-.0386.342.2316.722.4633.646.193-.038.8107-.228,1.0809-.076.2702.19.3474.266.3474.266l.8493-.418Z" fill="#d0cfce" stroke-width="0"/>
      <path d="m43.8755,30.224s-.1158-.076-.3088.038c-.193.114-.3474.228-.3474.228,0,0-.193,0-.2702.304-.0386.228-.3711.5062-.6028.6202.2702,0,.7958-.1642.873-.3922.1158-.266.3088-.342.5405-.304s.5405.57.5019.798c-.0386.266-1.1968.342-1.1968.342,0,0,.7335.076.8493.228.1158.152-.3474.456-.3474.456,1.0809.076,1.1582-.684,1.1582-.722.3088.722-.9651,3.04-1.0809,3.496s-.2316.722,0,.76.8107,2.014,1.2354,2.66c.193.304.5019.418.6949.456-.0772-.228-.193-.57-.3088-.76-.1158-.228-.4247-.494-.4633-.722,0-.228-.2702-1.786-.0386-2.356s1.5056-2.47.8879-3.648c0,0-.2316-.494-.3088-.57-.0772-.076.4633-.266.4247-.836-.0386-.608-.193-.912-.193-.912,0,0-.2702.646-.5019.798-.2316.19-.3861.38-.3861.38l-.1158-.038-.6949-.304Z" fill="#3f3f3f" stroke-width="0"/>
      <path d="m42.4471,37.406l-.1158.532c.1158.038.193.038.2316.038.3088,0,.3861.038.3861.038l.0386.304v.152s.0772.266.3088.266c.0386-.038.4633-.646.4247-.912-.0386-.418-.4633-1.178-.9265-1.596s-.8107-.646-.6563-1.52c.0772-.342.2083-.6953.2083-.8473-.1158,0-.4013.1253-.5171.3153,0,0-.564.1058-.371,1.3978l.564.9582s.0386.152.1158.304c.0386.19.3861.418.3088.418s-.3088.19-.3088.19c0,0,.1385-.0351.3088-.038Z" fill="#d0cfce" stroke-width="0"/>
      <path d="m46.655,37.33c0-.19.6563-1.976.4247-2.66-.2316-.684-.9651-1.064-.9651-1.064,0,0-.4247,2.318-.2702,2.964.1544.722.5405.76.5405,1.026,0,.266.3474,1.178.1544,1.748-.0772.19-.2385.3254-.3929.3254.0386.114.1227.2066.1999.2826.0386.076.1029.2027.1029.3167.193,0,.4376-.1267.5148-.4307.193-.912-.2702-2.318-.3088-2.508Z" fill="#3f3f3f" stroke-width="0"/>
      <path d="m42.5629,37.976c.3088,0,.3861.038.3861.038l.4633-.114c-.0772-.494-.9528-.6518-.9528-.6518l-.0123.0058c-.0772,0-.3088.19-.3088.19v.494c.193.038.3861.038.4247.038Z" fill="#3f3f3f" stroke-width="0"/>
      <circle cx="43.6824" cy="31.098" r=".1544" fill="#6a462f" stroke-width="0"/>
      <circle cx="43.6824" cy="31.098" r=".0766" stroke-width="0"/>
      <path d="m44.8406,45.956c-.193.19.8493.266,1.0809.152s.4247-.912.4247-.912c0,0,.2316-.228.0772-.494-.193-.266.0386-2.128.0386-2.432-.1544.19-.4664.494-.8138.722.0386.532.0803,1.938.0803,1.938,0,0-.6563.798-.8879,1.026Z" fill="#d0cfce" stroke-width="0"/>
      <path d="m44.802,45.956c-.193.19.8879.266,1.1196.152s.4247-.912.4247-.912c-.5791-.228-.6177-.266-.6177-.266,0,0-.6563.798-.9265,1.026Z" fill="#3f3f3f" stroke-width="0"/>
      <path d="m42.0224,36.494c1.0423.038,1.0037-.494,1.0037-.494l-.7721-.95-.7956.5238s-.4783.9202.564.9202Z" fill="#a57939" stroke-width="0"/>
      <path d="m39.9317,43.975c.9651-.19.7176-.413.7782-.565l-.5609-.4049s-.134.0249-.1726.0249c-.1544,0-1.1196.494-1.1968.57-.0772.076.187.527,1.1521.375Z" fill="#3f3f3f" stroke-width="0"/>
      <path d="m43.6438,30.3c-.193-1.9,2.1619-3.23,3.5903-1.9-.6563-.456-1.5442-.456-2.2005,0-.5791.38-.8879,1.14-.7335,1.824.1544.456-.6177.57-.6563.076h0Z" fill="#9b9b9a" stroke-width="0"/>
    </g>
  </g>
</svg>