<?xml version="1.0" encoding="UTF-8"?>
<svg xmlns="http://www.w3.org/2000/svg" viewBox="0 0 72 72">
  <g id="color">
    <rect x="5" y="17" width="62" height="38" fill="#f1b31c" stroke-width="0"/>
  </g>
  <g id="eagle">
    <g>
      <circle cx="42.4937" cy="44.424" r="1.6331" fill="#fcea2b" stroke-width="0"/>
      <path d="m37.8273,34.6115c.1308,1.3365.9799,2.0155,1.8008,1.9862.3708-.0132,1.2138-.1545,1.1078-1.9862s.8121-1.2667,2.4011-2.7144,2.5423-1.9773,3.2485-3.8841,2.3657,2.1892,0,5.5083c0,0,.829-.6356,1.2266-.8827s.786,3.6419-2.3565,4.9635c0,0,1.2367.7448,1.7663.886s-.8483,2.766-3.4612,1.9186c0,0-.3531.5296-.0706.8827s-3.0719.6709-4.6256-1.1652c0,0-.971.1059-.3531,1.2358s1.43,1.0593,1.5007,2.7365c.0177.3001.6709,1.0769,1.3947,1.2358s1.0152-.6974,1.7302-.2736-.3708,1.8273-.7945,1.8538-2.6747-1.9332-2.6747-1.9332c0,0-1.6419-.9798-1.8405-1.2976s-.2516-1.0858-.6488-.8209-.8474.6981.3443,1.625.3178,1.1125.3178,1.1125c0,0,.4502.8736,1.0593,1.3238s-.8209,1.8008-1.6949,1.0328c0,0-.9534,1.0593-1.2447,1.1917v-15.6253s.3901-3.6185,2.3842-3.6185c1.9175,0,1.5345-.0228,1.8346.2155s.9785.3876.9785.3876c0,0,.4684.0618.2654.6091s-.3972.8298-.3972.8298c0,0-.2022-.6083-.4494-.5907s-.5506.3139-.6541.5024c-.2358.4297-.686.465-1.2951.5709s-.9809.3347-.8,2.184Z" fill="#3f3f3f" stroke-width="0"/>
      <polygon points="31.9497 49.2412 27.9951 43.9097 28.25 43.7202 32.2046 49.0518 31.9497 49.2412" fill="#fcea2b" stroke-width="0"/>
      <circle cx="27.7872" cy="43.2676" r=".7945" fill="#fcea2b" stroke-width="0"/>
      <path d="m34.1727,34.6115c-.1308,1.3365-.9799,2.0155-1.8008,1.9862-.3708-.0132-1.2138-.1545-1.1078-1.9862s-.8121-1.2667-2.4011-2.7144-2.5423-1.9773-3.2485-3.8841-2.3657,2.1892,0,5.5083c0,0-.829-.6356-1.2266-.8827s-.786,3.6419,2.3565,4.9635c0,0-1.2367.7448-1.7663.886s.8483,2.766,3.4612,1.9186c0,0,.3531.5296.0706.8827s3.0719.6709,4.6256-1.1652c0,0,.971.1059.3531,1.2358s-1.43,1.0593-1.5007,2.7365c-.0177.3001-.6709,1.0769-1.3947,1.2358s-1.0152-.6974-1.7302-.2736.3708,1.8273.7945,1.8538,2.6747-1.9332,2.6747-1.9332c0,0,1.6419-.9798,1.8405-1.2976s.2516-1.0858.6488-.8209.8474.6981-.3443,1.625-.3178,1.1125-.3178,1.1125c0,0-.4502.8736-1.0593,1.3238s.8209,1.8008,1.6949,1.0328c0,0,.9534,1.0593,1.2447,1.1917v-15.6253s-.3901-3.6185-2.3842-3.6185c-1.9175,0-2.2951-.0441-2.5953.1942s-.9785.3876-.9785.3876c0,0-.4684.0618-.2654.6091s.3972.8298.3972.8298c0,0,.2022-.6083.4494-.5907s.5834.2994.6541.5024.768.4502,1.3771.5561,1.6596.3708,1.4786,2.2201Z" fill="#3f3f3f" stroke-width="0"/>
      <path d="m42.5069,41.6963h0c.1681,0,.3045.1365.3045.3045v.7901h-.6091v-.7901c0-.1681.1365-.3045.3045-.3045Z" fill="#f1b31c" stroke-width="0"/>
      <rect x="41.6286" y="42.2436" width="1.8008" height=".5473" fill="#f1b31c" stroke-width="0"/>
      <path d="m38.0182,39.5045c0,1.0552-1.7478,1.5827-1.7478,1.5827,0,0-1.7478-.5276-1.7478-1.5827v-3.1008h3.4957v3.1008Z" fill="#f1b31c" stroke-width="0"/>
      <path d="m37.4826,39.2719c0,.7318-1.2123,1.0978-1.2123,1.0978,0,0-1.2123-.3659-1.2123-1.0978v-2.1507h2.4245v2.1507Z" fill="#d22f27" stroke-width="0"/>
      <path d="m33.9755,29.0731c.1152-.2108.1865-.449.1865-.7062,0-.7113-.5014-1.3044-1.1696-1.4484v1.6514h-.6267v-1.6514c-.6683.144-1.1696.7371-1.1696,1.4484,0,.2572.0714.4954.1865.7062h2.5929Z" fill="#fcea2b" stroke-width="0"/>
      <rect x="31.3799" y="29.232" width="2.5688" height=".4679" fill="#fcea2b" stroke-width="0"/>
      <rect x="32.4731" y="26.7074" width=".412" height="1.6596" rx=".2008" ry=".2008" fill="#fcea2b" stroke-width="0"/>
      <path d="m40.1017,29.0731c.1152-.2108.1865-.449.1865-.7062,0-.7113-.5014-1.3044-1.1696-1.4484v1.6514h-.6267v-1.6514c-.6683.144-1.1696.7371-1.1696,1.4484,0,.2572.0714.4954.1865.7062h2.5929Z" fill="#fcea2b" stroke-width="0"/>
      <rect x="37.5062" y="29.232" width="2.5688" height=".4679" fill="#fcea2b" stroke-width="0"/>
      <rect x="38.5993" y="26.6974" width=".412" height="1.6596" rx=".2008" ry=".2008" fill="#fcea2b" stroke-width="0"/>
      <path d="m37.7441,26.3292c.1692-.3098.2741-.6597.2741-1.0376,0-1.0451-.7366-1.9164-1.7185-2.128v2.4263h-.9208v-2.4263c-.9819.2116-1.7185,1.0829-1.7185,2.128,0,.3779.1049.7278.2741,1.0376h3.8097Z" fill="#fcea2b" stroke-width="0"/>
      <rect x="33.9306" y="26.5627" width="3.7742" height=".6874" fill="#fcea2b" stroke-width="0"/>
      <rect x="35.5366" y="22.8533" width=".6053" height="2.4383" rx=".2951" ry=".2951" fill="#fcea2b" stroke-width="0"/>
    </g>
  </g>
  <g id="frame">
    <g id="line">
      <rect x="5" y="17" width="62" height="38" fill="none" stroke="#000" stroke-linecap="round" stroke-linejoin="round" stroke-width="2"/>
    </g>
  </g>
</svg>