<?xml version="1.0" encoding="UTF-8"?>
<svg xmlns="http://www.w3.org/2000/svg" viewBox="0 0 72 72">
  <g id="three_colors" data-name="three colors">
    <g>
      <rect x="5" y="17" width="62" height="39" fill="#fcea2b" stroke-width="0"/>
      <g>
        <polygon points="67 17 67 45.3673 21.903 17 67 17" fill="none" stroke-width="0"/>
        <polygon points="50.0974 56 5 56 5 27.6325 50.0974 56" fill="none" stroke-width="0"/>
        <polygon points="21.903 17 67 45.3673 67 55.9998 5 17 21.903 17" stroke-width="0"/>
        <polygon points="5 17 67 55.9998 67 56 50.0974 56 5 27.6325 5 17" fill="#d22f27" stroke-width="0"/>
      </g>
    </g>
  </g>
  <g id="star">
    <polygon points="31.2722 32.0353 26.3982 31.0565 29.8344 34.6491 25.4715 37.0324 30.4131 37.5757 28.6028 42.2058 32.7376 39.4456 34.327 44.156 35.7201 39.3839 39.9655 41.9706 37.9653 37.4195 42.8802 36.6721 38.4224 34.4714 41.7071 30.7398 36.8777 31.9193 36.9952 26.9493 34.0538 30.9572 30.9492 27.0744 31.2722 32.0353" fill="#fcea2b" stroke-width="0"/>
  </g>
  <g id="frame">
    <g id="line">
      <rect x="5" y="17" width="62" height="38" fill="none" stroke="#000" stroke-linecap="round" stroke-linejoin="round" stroke-width="2"/>
    </g>
  </g>
</svg>