<?xml version="1.0" encoding="UTF-8"?>
<svg xmlns="http://www.w3.org/2000/svg" viewBox="0 0 72 72">
  <g id="three_colors" data-name="three colors">
    <g>
      <rect x="5" y="17" width="62" height="12.6666" fill="#5c9e31" stroke-width="0"/>
      <rect x="5" y="29.6666" width="62" height="12.6667" fill="#fff" stroke-width="0"/>
      <rect x="5" y="42.3333" width="62" height="12.6667" fill="#d22f27" stroke-width="0"/>
    </g>
    <polygon points="36 30.9972 37.1232 34.4541 40.7579 34.4541 37.8174 36.5905 38.9406 40.0473 36 37.9109 33.0594 40.0473 34.1826 36.5905 31.2421 34.4541 34.8768 34.4541 36 30.9972" stroke-width="0"/>
  </g>
  <g id="letter">
    <g>
      <rect x="32.3579" y="25.1605" width="2.8032" height="2.2045" fill="#fff" stroke-width="0"/>
      <path d="m28.8335,23.7318c0,.5826-.3764,1.4287-.9663,1.4287v2.2045c1.9585,0,3.1707-1.8859,3.1707-3.6332v-4.7083h-2.2045v4.7083Z" fill="#fff" stroke-width="0"/>
      <path d="m43.0401,19.0235v4.7083c0,.5826-.3764,1.4287-.9663,1.4287v2.2045c1.9585,0,3.1707-1.8859,3.1707-3.6332v-4.7083h-2.2045Z" fill="#fff" stroke-width="0"/>
      <path d="m37.6514,22.1435c-.2061.0721-.3936.0765-.5449.003-.1188-.0576-.1745-.1423-.1804-.1566v-2.9664h-2.2045v2.9664c0,.0543.0071.1083.0114.1624-.1967.064-.3755.065-.521-.0058-.1188-.0576-.1745-.1423-.1804-.1566v-2.9664h-2.2045v2.9664c0,.7708.4383,1.531,1.144,1.9838.4499.2887.9604.434,1.4887.434.4373-.0001.8867-.0996,1.3239-.3l.1523-.0957c.4329.2603.9167.3957,1.4183.3957.0539,0,.1083-.0062.1625-.0092-.1588.4077-.4502.762-.8317.762v2.2045c1.9585,0,3.1707-1.8859,3.1707-3.6332v-4.7083h-2.2045v3.12Z" fill="#fff" stroke-width="0"/>
      <rect x="40.3729" y="19.0235" width="2.2045" height="4.2804" fill="#fff" stroke-width="0"/>
    </g>
  </g>
  <g id="frame">
    <g id="line">
      <rect x="5" y="17" width="62" height="38" fill="none" stroke="#000" stroke-linecap="round" stroke-linejoin="round" stroke-width="2"/>
    </g>
  </g>
</svg>