<?xml version="1.0" encoding="UTF-8"?>
<svg xmlns="http://www.w3.org/2000/svg" viewBox="0 0 72 72">
  <g id="color">
    <rect x="5" y="17" width="62" height="38" fill="#1e50a0" stroke-width="0"/>
  </g>
  <g id="shield">
    <g>
      <path d="m56,47.5644h0s-7.6406-5.4479-7.6406-9.6677v-10.9152h15.2813v10.9152c0,4.2198-7.6406,9.6677-7.6406,9.6677Z" fill="#5c9e31" stroke-width="0"/>
      <rect x="48.3594" y="26.9814" width="15.2813" height="5.6722" fill="#fff" stroke-width="0"/>
      <g>
        <path d="m54.7573,29.6984c.4033,0,.8874,0,1.8553-.0596,1.6133-.1191,1.694-.4169,2.5008-.1787.6452.1787,1.2101.2978,1.5327.1787.3226-.1787.1613-.5955-.3226-.6551-.4033-.0596-2.0166.1191-2.5814.2382-.5646.1191-1.8553.1191-1.452-.4169.4839-.4764.9681-.1787,1.2101-.4764.1613-.1787,0-.4169.242-.536.1613-.1191.3226-.1191.4839-.1191-.3226.3573-.4033.5955-.3226.7742v.1191c-.1613.1787-.5646,0-1.0487.1787-.1613.0596-.3226.1787-.242.2978s.5646.1191.8874.0596c.5646-.0596.9681-.2978,1.452-.4764.6452-.1787,1.2907-.2382,1.8553.1191.3226.2382.5646.7146.242,1.0124-.3226.3573-1.3714.2978-1.7746.0596-.0807-.0596-.1613-.1787-.3226-.1191-.0807,0-.242.0596-.242.1191-.0807.1787.242.3573.4033.4169.4839.2382,1.0487,0,1.2101-.0596.0807.1191.1613.2382.3226.4169.242.1787.3226.1787.4033.2382.242.2978-.242,1.1315-.8068,1.1315-.3226,0-.6452-.1787-.6452-.2978,0-.1787.5646-.1787.6452-.4764.0807-.1787-.0807-.3573-.242-.4169-.242-.1191-.4033.0596-.9681.0596-.4033,0-.5646.0596-.7259-.0596-.1613-.1191-.1613-.2978-.3226-.3573-.1613,0-.242.0596-.242.0596-.3226.2382.242.7146.0807,1.0124-.242.4764-1.8553.2978-2.4201.4764h-.1613c-.242,0-.4839-.2978-.3226-.4764,0-.0596.0807-.1191.8874-.2382.7259-.1191,1.2101-.0596,1.2907-.1787,0-.0596-.0807-.0596-.242-.2978-.0807-.0596-.0807-.1191-.0807-.1787-.3226.1787-.7259.2978-1.1294.3573-.5646.1191-.7259.0596-1.1294.1787-.5646.2382-.4839.4764-.8874.6551-.8068.3573-1.8553-.1191-2.0166-.1787s-.8874-.3573-.8068-.7146c0-.1191.0807-.2382.242-.2382.242-.0596.3226.1787.7259.3573.1613.0596.7259.2382,1.1294.1191.1613-.0596.4033-.1787.3226-.2978s-.5646-.0596-1.1294-.2978c-.4839-.1787-.6452-.536-.8068-.7742-.1613-.2978-.4033-.5955-.242-.8933.0807-.1787.4033-.4169.6452-.3573.1613.0596.3226.2382.3226.3573.0807.1787-.0807.2382-.0807.4764,0,.2978.3226.5955.6452.6551.0807,0,.3226.1191.5646.0596.0807-.0596.0807-.1191.1613-.2382.1613-.2382.9681-.1787,1.452-.1191h.0006Z" fill="#d22f27" stroke-width="0"/>
        <path d="m54.596,29.8771l.242-.1787s.3226-.4764.242-.7146c-.0807-.2382.4033-.7742.4033-.7742l-.8068.0596s-1.3714-.1191-1.3714.536c0,0,.1613,0,.3226.2382s-.242.2978-.3226.3573-.242.2978.3226.4764c.4839.1191.9681,0,.9681,0h.0002Z" fill="#d22f27" stroke-width="0"/>
      </g>
      <path d="m56.0255,44.678h0c-.2522,0-.5044-.1862-.5044-.4965v-10.0541h.9458v10.0541c.0631.2482-.1261.4965-.4414.4965Z" fill="#f1b31c" stroke-width="0"/>
      <path d="m50.7983,37.1064c2.522-3.4134,7.8813-3.4134,10.4034,0l-.063.0621c-2.522-1.1171-5.0441-1.7998-7.7552-.9309-.6936.1241-2.1437.8689-2.5851.8689h0Z" fill="#fcea2b" stroke-width="0"/>
      <g>
        <ellipse cx="49.5682" cy="29.4587" rx=".193" ry=".304" fill="#5c9e31" stroke-width="0"/>
        <line x1="49.5682" y1="29.6487" x2="49.5682" y2="30.7127" fill="none" stroke="#5c9e31" stroke-miterlimit="10" stroke-width=".0958"/>
        <path d="m50.0701,28.9647c.0772.57.2316,1.52-.3474,1.9-.2702.114-.5791-.076-.6563-.342-.1544-.494-.1544-1.102-.0386-1.558.0386.494.0386,1.026.2316,1.444.0772.152.1544.228.2702.228s.193-.076.2702-.228c.2316-.456.193-.988.2702-1.444h0Z" fill="#5c9e31" stroke-width="0"/>
        <polygon points="49.5682 29.1167 49.7999 28.7367 49.3366 28.7367 49.5682 29.1167 49.7999 28.7367 49.3366 28.7367 49.5682 29.1167" fill="#e67a94" stroke-width="0"/>
      </g>
      <g>
        <ellipse cx="62.5833" cy="29.4587" rx=".193" ry=".304" fill="#5c9e31" stroke-width="0"/>
        <line x1="62.5833" y1="29.6487" x2="62.5833" y2="30.7127" fill="none" stroke="#5c9e31" stroke-miterlimit="10" stroke-width=".0958"/>
        <path d="m63.0852,28.9647c.0772.57.2316,1.52-.3474,1.9-.2702.114-.5791-.076-.6563-.342-.1544-.494-.1544-1.102-.0386-1.558.0386.494.0386,1.026.2316,1.444.0772.152.1544.228.2702.228s.193-.076.2702-.228c.2316-.456.193-.988.2702-1.444h0Z" fill="#5c9e31" stroke-width="0"/>
        <polygon points="62.5833 29.1167 62.815 28.7367 62.3517 28.7367 62.5833 29.1167 62.815 28.7367 62.3517 28.7367 62.5833 29.1167" fill="#e67a94" stroke-width="0"/>
      </g>
    </g>
  </g>
  <g id="british">
    <g>
      <polygon points="33.3193 23.3518 33.3193 18.9808 26.1876 23.3518 33.3193 23.3518" fill="#1e50a0" stroke-width="0"/>
      <polygon points="21.5231 34.2407 20.6157 34.2407 17.8935 34.2407 16.9861 34.2407 16.9861 28.9915 8.4215 34.2407 30.7151 34.2407 21.5231 28.6069 21.5231 34.2407" fill="#1e50a0" stroke-width="0"/>
      <polygon points="31.3423 17 21.5231 17 21.5231 23.0182 31.3423 17" fill="#1e50a0" stroke-width="0"/>
      <polygon points="33.3193 32.6444 33.3193 27.8888 25.5603 27.8888 33.3193 32.6444" fill="#1e50a0" stroke-width="0"/>
      <polygon points="5.1897 33.2167 5.1897 34.2407 5.8172 34.2407 5.1897 33.2167" fill="#1e50a0" stroke-width="0"/>
      <polygon points="5.1898 27.8888 5.1898 26.9814 5.1898 24.2592 5.1898 23.3518 12.9489 23.3518 5.1897 18.5961 5.1897 33.0291 13.5763 27.8888 5.1898 27.8888" fill="#1e50a0" stroke-width="0"/>
      <polygon points="16.9861 17 7.7943 17 16.9861 22.6337 16.9861 17" fill="#1e50a0" stroke-width="0"/>
      <polygon points="5.1897 17 5.1897 17.0001 5.1897 17 5.1897 17" fill="#1e50a0" stroke-width="0"/>
      <polygon points="16.9861 22.6337 7.7943 17 7.4698 17 16.9861 22.8325 16.9861 22.6337" fill="#fff" stroke-width="0"/>
      <polygon points="5.1897 17 5.1897 17.0001 5.1897 17.2141 5.3208 17 5.1897 17" fill="#fff" stroke-width="0"/>
      <polygon points="33.3193 34.2407 33.3193 34.1274 33.2498 34.2407 33.3193 34.2407" fill="#fff" stroke-width="0"/>
      <polygon points="21.5231 28.6069 30.7151 34.2407 31.1011 34.2407 21.5231 28.3703 21.5231 28.6069" fill="#fff" stroke-width="0"/>
      <polygon points="15.055 23.3518 5.1897 17.3053 5.1897 18.5961 12.9489 23.3518 15.055 23.3518" fill="#fff" stroke-width="0"/>
      <polygon points="23.5158 27.8888 33.3193 33.8974 33.3193 32.6444 25.5603 27.8888 23.5158 27.8888" fill="#fff" stroke-width="0"/>
      <polygon points="5.8867 34.2407 5.7148 33.9602 15.6208 27.8888 13.5763 27.8888 5.1897 33.0291 5.1897 33.2167 5.1897 34.2407 5.8867 34.2407" fill="#fff" stroke-width="0"/>
      <polygon points="16.9861 28.7549 8.0355 34.2407 8.4215 34.2407 16.9861 28.9915 16.9861 28.7549" fill="#fff" stroke-width="0"/>
      <polygon points="21.5231 23.2171 31.6668 17 31.3423 17 21.5231 23.0182 21.5231 23.2171" fill="#fff" stroke-width="0"/>
      <polygon points="26.1876 23.3518 33.3193 18.9808 33.3193 17.69 24.0816 23.3518 26.1876 23.3518" fill="#fff" stroke-width="0"/>
      <polygon points="16.9861 27.8888 15.6208 27.8888 5.1897 34.2407 5.8867 34.2407 8.0355 34.2407 16.9861 28.7549 16.9861 27.8888" fill="#d22f27" stroke-width="0"/>
      <polygon points="21.5231 23.3518 24.0816 23.3518 33.3193 17.69 33.3193 17 31.6668 17 21.5231 23.2171 21.5231 23.3518" fill="#d22f27" stroke-width="0"/>
      <polygon points="21.5231 27.8888 21.5231 28.3703 31.1011 34.2407 33.2498 34.2407 33.3193 34.2407 33.3193 33.8974 23.5158 27.8888 21.5231 27.8888" fill="#d22f27" stroke-width="0"/>
      <polygon points="16.9861 23.3518 16.9861 22.8325 7.4698 17 5.1897 17 5.1897 17.2141 5.1897 17.3053 15.055 23.3518 16.9861 23.3518" fill="#d22f27" stroke-width="0"/>
      <polygon points="21.5231 26.9814 21.5231 27.8888 23.5158 27.8888 25.5603 27.8888 33.3193 27.8888 33.3193 26.9814 21.5231 26.9814" fill="#fff" stroke-width="0"/>
      <polygon points="16.9861 24.2592 16.9861 23.3518 15.055 23.3518 12.9489 23.3518 5.1898 23.3518 5.1898 24.2592 16.9861 24.2592" fill="#fff" stroke-width="0"/>
      <polygon points="24.0816 23.3518 21.5231 23.3518 21.5231 24.2592 33.3193 24.2592 33.3193 23.3518 26.1876 23.3518 24.0816 23.3518" fill="#fff" stroke-width="0"/>
      <polygon points="16.9861 26.9814 5.1898 26.9814 5.1898 27.8888 13.5763 27.8888 15.6208 27.8888 16.9861 27.8888 16.9861 26.9814" fill="#fff" stroke-width="0"/>
      <polygon points="21.5231 28.6069 21.5231 28.3703 21.5231 27.8888 21.5231 26.9814 20.6157 26.9814 20.6157 34.2407 21.5231 34.2407 21.5231 28.6069" fill="#fff" stroke-width="0"/>
      <polygon points="16.9861 22.8325 16.9861 23.3518 16.9861 24.2592 17.8935 24.2592 17.8935 17 16.9861 17 16.9861 22.6337 16.9861 22.8325" fill="#fff" stroke-width="0"/>
      <polygon points="20.6157 24.2592 21.5231 24.2592 21.5231 23.3518 21.5231 23.2171 21.5231 23.0182 21.5231 17 20.6157 17 20.6157 24.2592" fill="#fff" stroke-width="0"/>
      <polygon points="16.9861 26.9814 16.9861 27.8888 16.9861 28.7549 16.9861 28.9915 16.9861 34.2407 17.8935 34.2407 17.8935 26.9814 16.9861 26.9814" fill="#fff" stroke-width="0"/>
      <polygon points="21.5231 24.2592 20.6157 24.2592 20.6157 26.9814 21.5231 26.9814 33.3193 26.9814 33.3193 24.2592 21.5231 24.2592" fill="#d22f27" stroke-width="0"/>
      <polygon points="16.9861 26.9814 17.8935 26.9814 17.8935 24.2592 16.9861 24.2592 5.1898 24.2592 5.1898 26.9814 16.9861 26.9814" fill="#d22f27" stroke-width="0"/>
      <polygon points="17.8935 24.2592 17.8935 26.9814 17.8935 34.2407 20.6157 34.2407 20.6157 26.9814 20.6157 24.2592 20.6157 17 17.8935 17 17.8935 24.2592" fill="#d22f27" stroke-width="0"/>
    </g>
  </g>
  <g id="frame">
    <g id="line">
      <rect x="5" y="17" width="62" height="38" fill="none" stroke="#000" stroke-linecap="round" stroke-linejoin="round" stroke-width="2"/>
    </g>
  </g>
</svg>