<?xml version="1.0" encoding="UTF-8"?>
<svg xmlns="http://www.w3.org/2000/svg" viewBox="0 0 72 72">
  <g id="color">
    <rect x="5" y="17" width="62" height="38" fill="#d22f27" stroke-width="0"/>
  </g>
  <g id="hammer">
    <path d="m22.1099,37.1148l-1.8215-1.747c.3538-.4736.6395-1.0396.8235-1.7076.6103-3.1748-2.2107-5.6554-4.4634-7.3373.8102,1.1577,1.6389,2.2867,2.2589,3.4778.6307,1.1668,1.0233,2.4537.6647,3.4438-.1115.3224-.2973.6395-.5285.9293l-4.086-3.9189,1.4472-1.4472-.4877-.4877-2.1952.2057-2.9547,2.9547,1.4824,1.4824,1.478-1.478,3.9074,3.7476c-.1166.0438-.2348.0807-.3545.1062-1.0311.2548-2.3452-.0456-3.5746-.4716l-.2099-.2081-.3211.2573-3.2181,2.5785c-.9684.8447.3921,2.1941,1.2297,1.2297l2.3391-2.9193c1.6744,1.4129,3.829,1.6435,5.4571.7199l1.9236,1.8449c.1685.1617.3853.242.6017.242.2288,0,.457-.0897.6277-.2676.3323-.3466.321-.897-.0256-1.2294Z" fill="#fcea2b" stroke-width="0"/>
    <polygon points="16.349 20.2071 17.0518 22.3702 19.3262 22.3702 17.4862 23.7071 18.189 25.8702 16.349 24.5333 14.5089 25.8702 15.2117 23.7071 13.3717 22.3702 15.6461 22.3702 16.349 20.2071" fill="#fcea2b" stroke-width="0"/>
  </g>
  <g id="frame">
    <g id="line">
      <rect x="5" y="17" width="62" height="38" fill="none" stroke="#000" stroke-linecap="round" stroke-linejoin="round" stroke-width="2"/>
    </g>
  </g>
</svg>