<?xml version="1.0" encoding="UTF-8"?>
<svg xmlns="http://www.w3.org/2000/svg" viewBox="0 0 72 72">
  <g id="three_colors" data-name="three colors">
    <g>
      <rect x="5" y="17" width="62" height="14.3333" fill="#d22f27" stroke-width="0"/>
      <rect x="5" y="31.3333" width="62" height="9.3333" fill="#186648" stroke-width="0"/>
      <rect x="5" y="40.6666" width="62" height="14.3334" fill="#d22f27" stroke-width="0"/>
    </g>
  </g>
  <g id="hammer">
    <path d="m18.8021,28.6964l-1.1027-1.0576c.2142-.2867.3871-.6294.4985-1.0338.3695-1.922-1.3383-3.4237-2.7021-4.4419.4905.7008.9921,1.3844,1.3675,2.1054.3818.7064.6195,1.4854.4024,2.0848-.0675.1952-.18.3871-.3199.5626l-2.4736-2.3725.8761-.8761-.2952-.2953-1.3289.1246-1.7887,1.7887.8974.8974.8948-.8948,2.3655,2.2688c-.0706.0265-.1421.0489-.2146.0643-.6242.1542-1.4197-.0276-2.164-.2855l-.1271-.126-.1944.1557-1.9482,1.561c-.5862.5114.2374,1.3283.7444.7444l1.416-1.7673c1.0137.8554,2.3181.995,3.3036.4358l1.1645,1.1169c.102.0979.2333.1465.3643.1465.1385,0,.2767-.0543.38-.162.2012-.2098.1943-.543-.0155-.7442Z" fill="#fcea2b" stroke-width="0"/>
    <polygon points="15.3145 18.4607 15.74 19.7702 17.117 19.7702 16.003 20.5795 16.4285 21.889 15.3145 21.0797 14.2006 21.889 14.6261 20.5795 13.5121 19.7702 14.8891 19.7702 15.3145 18.4607" fill="#fcea2b" stroke-width="0"/>
  </g>
  <g id="frame">
    <g id="line">
      <rect x="5" y="17" width="62" height="38" fill="none" stroke="#000" stroke-linecap="round" stroke-linejoin="round" stroke-width="2"/>
    </g>
  </g>
</svg>