<?xml version="1.0" encoding="UTF-8"?>
<svg xmlns="http://www.w3.org/2000/svg" viewBox="0 0 72 72">
  <g id="color">
    <rect x="5" y="17" width="62" height="38" fill="#5c9e31" stroke-width="0"/>
  </g>
  <g id="hand">
    <circle cx="35.9362" cy="35.6401" r="12.1472" fill="#fcea2b" stroke-width="0"/>
    <path d="m33.575,33.3867s-1.3608-1.6566-1.3608-2.997.4483-3.4216,1.8611-3.6028,7.1709.6024,8.5112-1.0277c0,0,.6521.7607-.8694,2.8256s-2.7318,2.0873-3.565,3.1016-4.5771,1.7003-4.5771,1.7003" fill="#d22f27" stroke-width="0"/>
    <g>
      <path d="m31.4861,43.9255c-.2078.9298-.3872,1.8635-.4915,2.8138,1.4867.6629,3.1311,1.0357,4.8614,1.0469l-2.6494-3.0326s-.8921-.3374-1.7205-.8281Z" fill="none" stroke-width="0"/>
      <path d="m35.9362,23.4929c-6.7087,0-12.1472,5.4385-12.1472,12.1471,0,4.4049,2.3447,8.2622,5.8541,10.3919.3971-.8678.7453-1.7551,1.0543-2.6565-.426-.3636-.6963-.7635-.5663-1.1534l.2225-.2954s-.6564-.419-.4079-.7713c.2484-.3523.3931-.2744.3931-.2744,0,0-.5192-.382-.3115-.7454.2077-.3634.3894-.356.3894-.356,0,0-.7602-.382-.4413-.864.3189-.4821,1.0643-.2855,1.1755-.1817.1112.1038.7009.1409.7009.1409,0,0-.0519-.9419.1632-1.0976.0665-.0481.1343-.0656.1993-.0548.1217-.6248.2799-1.2341.3016-1.8773.0466-.9076-.1987-1.9962-.6241-2.885-.1377-.2833-.2819-.5497-.445-.8075-.149-.2355.0685-.5305.3364-.4538,1.2891.3691,3.7357,1.0695,5.0251,1.4387.2667.0763.298.442.0477.5616-1.1822.5648-2.2545,1.4867-2.8632,2.5689-.3228.5585-.5111,1.1608-.7391,1.7566-.1154.3143-.2271.6299-.3369.946.1424.2049.3114.381.4852.4679.3857.1928.5562.3337.5711.6527.0148.3189.2373,1.7725.2373,1.7725,0,0,3.1891,3.3745,3.3226,3.419.0931.031,1.68.5944,3.0092,1.6,4.4246-1.8146,7.5413-6.1643,7.5413-11.2426,0-6.7087-5.4385-12.1471-12.1471-12.1471Z" fill="none" stroke-width="0"/>
      <g>
        <path d="m32.2142,37.7224c-.0649-.0108-.1328.0067-.1993.0548-.2151.1557-.1632,1.0976-.1632,1.0976,0,0-.5896-.0371-.7009-.1409-.1112-.1038-.8566-.3004-1.1755.1817-.3189.4821.4413.864.4413.864,0,0-.1817-.0074-.3894.356-.2077.3634.3115.7454.3115.7454,0,0-.1446-.0779-.3931.2744-.2485.3523.4079.7713.4079.7713l-.2225.2954c-.13.3899.1402.7898.5663,1.1534.6323-1.844,1.105-3.7448,1.5159-5.6488.0003-.0015.0006-.0029.0009-.0044Z" fill="#6a462f" stroke-width="0"/>
        <path d="m32.2035,37.7298c-.4637.0498-.3117.8033-.3392,1.1442-.5595.0778-.943-.4038-1.5232-.2135-.6922.2536-.4399.8803.1114,1.1262-.2312.0242-.4259.2916-.4608.5087-.0075.2553.2028.4558.3899.6065-.2211-.0753-.5022.2581-.4765.4703.0402.2498.3008.4123.457.561,0,0-.2225.2952-.2225.2952-.0696.1997-.0097.4537.1117.6379.0972.1933.3409.3707.4367.5059.6618-1.7744,1.0168-3.8554,1.5155-5.6423h0Zm.0545-.0378c-.3888,1.9322-.9344,3.8306-1.551,5.6867-.1632-.0859-.3509-.3217-.4732-.5017-.1216-.1913-.1906-.4384-.111-.6613l.2223-.2953.0027.0152c-.1959-.1406-.4087-.3075-.4642-.5602-.0687-.1721.3343-.6181.4485-.4855-.1783-.1477-.3693-.3419-.3631-.5959.0399-.2286.2131-.4699.4479-.5259-.1891-.0271-.4746-.3056-.5237-.544-.0412-.2775.1964-.5116.4404-.5865.5737-.1685.884.2065,1.5055.2378.0122-.4655-.0989-1.1737.4188-1.1833h0Z" fill="#6a462f" stroke-width="0"/>
      </g>
      <g>
        <path d="m34.2103,41.8637s-.2225-1.4536-.2373-1.7725c-.0148-.3189-.1854-.4598-.5711-.6527-.1738-.0869-.3428-.263-.4852-.4679-.5115,1.4729-.9604,2.9663-1.323,4.4835-.0365.1571-.0724.3142-.1076.4714.8284.4907,1.7205.8281,1.7205.8281l2.6494,3.0326c.0268.0002.0534.001.0802.001,1.6304,0,3.1854-.322,4.6059-.9046-1.3292-1.0056-2.9161-1.5689-3.0092-1.6-.1335-.0445-3.3226-3.419-3.3226-3.419Z" fill="#6a462f" stroke-width="0"/>
        <path d="m34.2072,41.9339l-.0086-.0645-.2259-1.6848c.016-.2945-.1673-.539-.4292-.6573-.232-.1046-.5602-.3483-.6151-.5525,0,0-.7301,2.4727-.7301,2.4727-.2344.8075-.514,1.6965-.7062,2.4682.5499.3237,1.1317.5937,1.723.8307,0,0,2.6487,3.0329,2.6487,3.0329,1.5569.0039,3.2066-.2938,4.6742-.9064-.7932-.5318-1.7445-1.0877-2.6885-1.4422-.3441-.0714-.5954-.3552-.8273-.5904-.709-.7179-2.1208-2.176-2.815-2.9064h0Zm.0061-.1408l.0449.0472,2.8094,2.9551c.2465.2479.4503.5063.8017.5859.9534.3914,1.8714.881,2.694,1.5041-1.4882.6118-3.0983.9233-4.7072.9113-.0117.0097-2.6491-3.0362-2.6578-3.0356-.5715-.2209-1.1794-.5098-1.7251-.8298.1847-.843.4712-1.6594.7022-2.4903.0235-.0185.7175-2.4772.737-2.4991.2087.4164.6873.5039.9747.8309.1577.229.256,1.725.3263,2.0203h0Z" fill="#6a462f" stroke-width="0"/>
      </g>
      <path d="m31.5936,43.4541c.3626-1.5172.8115-3.0106,1.323-4.4835.1098-.3162.2215-.6317.3369-.946.2281-.5959.4164-1.1981.7391-1.7566.6087-1.0822,1.681-2.004,2.8632-2.5689.2503-.1196.219-.4852-.0477-.5616-1.2894-.3692-3.736-1.0696-5.0251-1.4387-.2679-.0767-.4854.2183-.3364.4538.1631.2578.3073.5242.445.8075.4254.8889.6707,1.9774.6241,2.885-.0217.6432-.1799,1.2525-.3016,1.8773-.0003.0015-.0006.0029-.0009.0044-.4109,1.904-.8836,3.8048-1.5159,5.6488-.3091.9014-.6572,1.7887-1.0543,2.6565.4334.263.8848.4992,1.3515.7073.1043-.9503.2837-1.884.4915-2.8138.0351-.1572.071-.3143.1076-.4714Z" fill="#6a462f" stroke-width="0"/>
    </g>
  </g>
  <g id="frame">
    <g id="line">
      <rect x="5" y="17" width="62" height="38" fill="none" stroke="#000" stroke-linecap="round" stroke-linejoin="round" stroke-width="2"/>
    </g>
  </g>
</svg>