<?xml version="1.0" encoding="UTF-8"?>
<svg xmlns="http://www.w3.org/2000/svg" viewBox="0 0 72 72">
  <g id="three_colors" data-name="three colors">
    <g>
      <rect x="5" y="17" width="62" height="12.6666" fill="#92d3f5" stroke-width="0"/>
      <rect x="5" y="29.6666" width="62" height="12.6667" stroke-width="0"/>
      <rect x="5" y="42.3333" width="62" height="12.6667" fill="#5c9e31" stroke-width="0"/>
      <g>
        <polygon points="5 17 5 26.7859 16.5794 17 5 17" fill="none" stroke-width="0"/>
        <polygon points="24.2977 17 9.3096 29.6666 67 29.6666 67 17 24.2977 17" fill="none" stroke-width="0"/>
        <polygon points="16.5794 17 5 26.7859 5 28.7428 18.8949 17 16.5794 17" fill="#f1b31c" stroke-width="0"/>
        <polygon points="21.9822 17 6.9941 29.6666 9.3096 29.6666 24.2977 17 21.9822 17" fill="#f1b31c" stroke-width="0"/>
        <polygon points="18.8949 17 5 28.7428 5 29.6666 6.9941 29.6666 21.9822 17 18.8949 17" stroke-width="0"/>
      </g>
      <path d="m16.5794,17s-11.5794,10.5162-11.5794,9.7859v-9.7859h11.5794Z" fill="#5c9e31" stroke-width="0"/>
    </g>
  </g>
  <g id="frame">
    <g id="line">
      <rect x="5" y="17" width="62" height="38" fill="none" stroke="#000" stroke-linecap="round" stroke-linejoin="round" stroke-width="2"/>
    </g>
  </g>
</svg>